<svg width="333" height="79" viewBox="0 0 333 79" fill="none" xmlns="http://www.w3.org/2000/svg">
<path d="M89.9022 17.3296L89.808 17.7074H77.6578L78.3878 14.5909C78.5526 13.9062 78.3878 13.2215 77.9875 12.6785C77.5636 12.1355 76.9514 11.8521 76.2921 11.8521H21.7575C20.745 11.8521 19.8973 12.5368 19.6619 13.552L11.8914 46.2045C11.7266 46.8891 11.8914 47.5738 12.3152 48.1168C12.7391 48.6599 13.3278 48.9432 14.0106 48.9432H68.5452C69.5577 48.9432 70.4054 48.2585 70.6409 47.2433L72.9249 36.7841H85.0751L82.1553 50.0056C80.6483 56.3567 75.0441 60.7953 68.5452 60.7953H13.9871C9.70153 60.7953 5.69856 58.8593 3.03776 55.4595C0.35342 52.0597 -0.612002 47.6919 0.400514 43.4657L8.14744 10.7897C9.65444 4.43865 15.2586 0 21.7575 0H76.3157C80.6247 0 84.6042 1.93601 87.265 5.33582C89.9493 8.73564 90.8912 13.1271 89.9022 17.3296Z" fill="white"/>
<path d="M112.295 35.0369L104.525 67.6893C103.018 74.0404 97.4136 78.479 90.9147 78.479H36.4036C32.0946 78.479 28.1151 76.543 25.4308 73.1432C22.7464 69.7434 21.8046 65.3519 22.7935 61.1494L22.8877 60.7716H35.0379L34.2844 63.8881C34.1196 64.5728 34.2844 65.2575 34.7083 65.8005C35.1321 66.3435 35.7208 66.6269 36.4036 66.6269H90.9618C91.9978 66.6269 92.822 65.9422 93.081 64.927L100.851 32.2745C101.016 31.5899 100.851 30.9052 100.428 30.3621C100.004 29.8191 99.4151 29.5358 98.7322 29.5358H44.1506C43.138 29.5358 42.2904 30.2205 42.0313 31.2357L39.347 41.8129H27.1968L30.5405 28.497C32.0475 22.1459 37.6516 17.7073 44.1506 17.7073H98.7087C102.994 17.7073 106.997 19.6433 109.658 23.0431C112.342 26.4429 113.308 30.8343 112.295 35.0369Z" fill="white"/>
<path d="M132.192 52.5788C129.531 49.9817 128.189 46.3694 128.189 41.7655C128.189 38.2476 128.919 34.895 130.403 31.7077C131.886 28.5204 134.029 25.9233 136.831 23.9637C139.657 21.9805 142.93 21.0125 146.697 21.0125C151.642 21.0125 155.48 22.311 158.235 24.9081C160.99 27.5052 162.356 31.1175 162.356 35.7214C162.356 36.9255 162.285 38.0351 162.12 39.0032C161.979 39.9712 161.861 40.6322 161.838 40.9864H137.09C137.043 41.6002 137.019 42.1905 137.019 42.7335C137.019 44.9528 137.679 46.6291 138.974 47.786C140.269 48.9429 142.082 49.5095 144.437 49.5095C145.826 49.5095 147.074 49.1318 148.181 48.3999C149.287 47.668 150.323 46.4875 151.336 44.882H160.566C159.059 48.9193 156.916 51.8705 154.138 53.7121C151.359 55.5536 147.733 56.4744 143.236 56.4744C138.738 56.4744 134.9 55.1759 132.216 52.5788M153.479 35.1311V34.8714C153.479 32.5813 152.961 30.8341 151.948 29.7009C150.935 28.544 149.334 27.9774 147.168 27.9774C144.743 27.9774 142.812 28.6384 141.352 29.9842C139.892 31.33 138.809 33.0535 138.079 35.1311H153.479Z" fill="white"/>
<path d="M171.233 21.9096H180.063L179.027 26.608H179.168C180.864 24.5303 182.7 23.0665 184.725 22.2402C186.75 21.4138 188.799 21.0125 190.918 21.0125C194.073 21.0125 196.499 21.7916 198.194 23.3498C199.889 24.9081 200.737 27.1274 200.737 29.9842C200.737 30.6689 200.667 31.3536 200.549 32.0382C200.408 32.6993 200.337 33.1715 200.29 33.4312L195.604 55.5773H186.374L190.471 35.9103C190.518 35.745 190.612 35.1784 190.8 34.2576C190.965 33.3132 191.059 32.6049 191.059 32.0855C191.059 30.9994 190.636 30.1022 189.764 29.3939C188.893 28.6856 187.857 28.3079 186.656 28.3079C184.278 28.3079 182.253 29.1578 180.605 30.8578C178.956 32.5577 177.803 34.9423 177.167 38.0115L173.47 55.6009H164.24L171.256 21.9332L171.233 21.9096Z" fill="white"/>
<path d="M208.885 52.5788C206.224 49.9817 204.882 46.3694 204.882 41.7655C204.882 38.2476 205.612 34.895 207.095 31.7077C208.578 28.5204 210.721 25.9233 213.523 23.9637C216.349 21.9805 219.622 21.0125 223.389 21.0125C228.334 21.0125 232.172 22.311 234.927 24.9081C237.682 27.5052 239.048 31.1175 239.048 35.7214C239.048 36.9255 238.977 38.0351 238.813 39.0032C238.671 39.9712 238.554 40.6322 238.53 40.9864H213.782C213.735 41.6002 213.712 42.1905 213.712 42.7335C213.712 44.9528 214.371 46.6291 215.666 47.786C216.961 48.9429 218.774 49.5095 221.129 49.5095C222.518 49.5095 223.766 49.1318 224.873 48.3999C225.98 47.668 227.016 46.4875 228.028 44.882H237.259C235.752 48.9193 233.609 51.8705 230.83 53.7121C228.052 55.5536 224.426 56.4744 219.928 56.4744C215.431 56.4744 211.592 55.1759 208.908 52.5788M230.171 35.1311V34.8714C230.171 32.5813 229.653 30.8341 228.64 29.7009C227.628 28.544 226.027 27.9774 223.86 27.9774C221.435 27.9774 219.504 28.6384 218.044 29.9842C216.584 31.33 215.501 33.0535 214.771 35.1311H230.171Z" fill="white"/>
<path d="M244.417 65.3995C241.779 63.4399 240.461 60.7484 240.461 57.325H249.691C249.691 58.9304 250.256 60.1345 251.41 60.9373C252.564 61.74 254 62.1414 255.719 62.1414C257.32 62.1414 258.662 61.7636 259.746 61.0317C260.829 60.2998 261.794 59.0957 262.642 57.443C263.49 55.7903 264.29 53.4766 265.067 50.4781V50.4073L264.926 50.2656C263.584 52.0364 262.124 53.2877 260.546 53.9724C258.969 54.6571 257.344 55.0112 255.719 55.0112C251.787 55.0112 248.631 53.7835 246.3 51.3045C243.969 48.8254 242.792 45.4964 242.792 41.2703C242.792 37.9649 243.475 34.754 244.84 31.6375C246.206 28.521 248.184 25.9475 250.751 23.9643C253.317 21.9574 256.331 20.9658 259.746 20.9658C262.642 20.9658 264.902 21.5325 266.504 22.6893C268.105 23.8462 269.282 25.2864 270.012 27.0099H270.153L271.189 21.863H280.019L273.262 53.9724C272.484 57.7972 271.213 60.7484 269.47 62.8261C267.728 64.9037 265.585 66.3439 263.113 67.1231C260.617 67.9022 257.885 68.3036 254.895 68.3036C250.562 68.3036 247.077 67.3356 244.44 65.3759M265.373 44.1743C267.163 41.6008 268.058 38.6024 268.058 35.2262C268.058 32.936 267.493 31.1417 266.339 29.8431C265.185 28.5682 263.56 27.9307 261.441 27.9307C258.71 27.9307 256.473 29.2529 254.683 31.8972C252.917 34.5415 252.022 37.4455 252.022 40.6328C252.022 42.8994 252.564 44.6937 253.67 46.0395C254.777 47.3852 256.308 48.0463 258.239 48.0463C261.182 48.0463 263.56 46.7478 265.35 44.1743" fill="white"/>
<path d="M287.813 21.9097H297.091L289.956 55.5774H280.679L287.813 21.9097ZM290.545 9.0896H299.822L298.127 16.7156H288.849L290.545 9.0896Z" fill="white"/>
<path d="M309.1 37.5396L301.518 21.9099H311.384L315.081 31.6136L322.686 21.9099H333L319.037 38.059L327.561 55.5775H317.812L312.938 44.5045L303.967 55.5775H293.512L309.1 37.5396Z" fill="white"/>
<path d="M130.567 66.8394H134.523C135.442 66.8394 136.148 67.0755 136.643 67.5477C137.137 68.0199 137.373 68.6809 137.373 69.5781C137.373 70.1211 137.231 70.6169 136.972 71.0891C136.713 71.5613 136.289 71.9627 135.724 72.246C135.159 72.5529 134.453 72.6946 133.581 72.6946H130.662L129.814 76.7555H128.495L130.567 66.8394ZM133.958 71.5849C134.594 71.5849 135.112 71.3961 135.512 71.0419C135.913 70.6878 136.101 70.192 136.101 69.5781C136.101 69.0587 135.96 68.6573 135.677 68.374C135.395 68.0907 135.018 67.949 134.523 67.949H131.698L130.944 71.5849H133.982H133.958Z" fill="white"/>
<path d="M145.402 66.8394H146.838L148.628 76.7555H147.262L146.815 73.7807H142.647L140.904 76.7555H139.445L145.402 66.8394ZM146.65 72.6474L145.92 67.9962H145.896L143.259 72.6474H146.673H146.65Z" fill="white"/>
<path d="M156.116 72.7654L153.525 66.8394H154.915L156.94 71.6558L160.684 66.8394H162.214L157.434 72.7654L156.563 76.7555H155.268L156.116 72.7654Z" fill="white"/>
<path d="M167.395 66.8394H169.232L170.527 75.3625H170.574L175.448 66.8394H177.285L175.189 76.7555H173.941L175.942 68.0907H175.919L170.88 76.7555H169.632L168.337 68.0907H168.313L166.571 76.7555H165.323L167.395 66.8394Z" fill="white"/>
<path d="M183.618 66.8394H190.423L190.212 67.949H184.702L184.042 71.1127H189.152L188.94 72.2224H183.807L183.077 75.6458H188.657L188.398 76.7555H181.523L183.618 66.8394Z" fill="white"/>
<path d="M196.216 66.8394H197.629L201.161 75.0556H201.184L202.833 66.8394H204.128L202.032 76.7555H200.619L197.111 68.6101H197.087L195.392 76.7555H194.12L196.216 66.8394Z" fill="white"/>
<path d="M212.346 67.949H209.026L209.261 66.8394H217.22L216.984 67.949H213.664L211.804 76.7555H210.486L212.346 67.949Z" fill="white"/>
<path d="M228.758 69.6256V69.7673H227.439V69.6729C227.439 69.0118 227.251 68.516 226.898 68.2091C226.544 67.8785 225.956 67.7133 225.179 67.7133C224.566 67.7133 224.025 67.8549 223.578 68.1382C223.107 68.4215 222.895 68.8229 222.895 69.3423C222.895 69.7673 223.036 70.0978 223.295 70.3339C223.554 70.5937 223.978 70.7825 224.567 70.9478L225.838 71.2783C226.615 71.4908 227.204 71.7978 227.604 72.1991C228.028 72.6241 228.216 73.1907 228.216 73.9462C228.216 74.5837 228.028 75.1267 227.651 75.5989C227.274 76.0475 226.803 76.4017 226.215 76.6378C225.626 76.8739 225.014 76.9919 224.355 76.9919C223.107 76.9919 222.165 76.7322 221.482 76.1892C220.799 75.6462 220.446 74.867 220.446 73.8754C220.446 73.7102 220.446 73.5921 220.446 73.5213H221.764V73.6865C221.764 74.4421 221.976 74.9851 222.424 75.3628C222.871 75.717 223.53 75.9059 224.402 75.9059C225.155 75.9059 225.744 75.7406 226.215 75.3865C226.662 75.0323 226.898 74.5837 226.898 73.9935C226.898 73.5213 226.733 73.1671 226.427 72.931C226.097 72.6949 225.673 72.506 225.132 72.3644L224.048 72.0811C223.224 71.8686 222.612 71.538 222.188 71.1367C221.788 70.7353 221.576 70.1923 221.576 69.5076C221.576 68.8937 221.741 68.3507 222.094 67.9257C222.447 67.5008 222.895 67.1702 223.436 66.9577C224.001 66.7452 224.566 66.6272 225.179 66.6272C226.262 66.6272 227.133 66.8869 227.769 67.4299C228.405 67.973 228.734 68.7049 228.734 69.6493" fill="white"/>
</svg>
