<svg width="168" height="40" viewBox="0 0 168 40" fill="none" xmlns="http://www.w3.org/2000/svg">
<g clip-path="url(#clip0_58_20286)">
<path d="M45.356 8.83539L45.3085 9.02799H39.1787L39.547 7.43906C39.6301 7.08998 39.547 6.7409 39.345 6.46404C39.1312 6.18718 38.8223 6.04273 38.4897 6.04273H10.9767C10.4659 6.04273 10.0383 6.39181 9.91947 6.90942L5.99923 23.557C5.91607 23.9061 5.99923 24.2552 6.21306 24.532C6.42689 24.8089 6.72388 24.9534 7.06838 24.9534H34.5813C35.0921 24.9534 35.5198 24.6043 35.6386 24.0867L36.7909 18.7541H42.9207L41.4477 25.495C40.6874 28.7331 37.8601 30.9961 34.5813 30.9961H7.0565C4.89443 30.9961 2.87492 30.009 1.53253 28.2757C0.178269 26.5423 -0.308791 24.3154 0.202028 22.1607L4.11039 5.50105C4.87067 2.26302 7.698 0 10.9767 0H38.5016C40.6755 0 42.6831 0.98706 44.0255 2.72043C45.3798 4.45381 45.855 6.69275 45.356 8.83539Z" fill="white"/>
<path d="M56.6532 17.8633L52.733 34.511C51.9727 37.749 49.1454 40.012 45.8666 40.012H18.3656C16.1916 40.012 14.184 39.0249 12.8297 37.2916C11.4754 35.5582 11.0003 33.3193 11.4992 31.1766L11.5467 30.984H17.6765L17.2964 32.5729C17.2132 32.922 17.2964 33.2711 17.5102 33.548C17.7241 33.8248 18.0211 33.9693 18.3656 33.9693H45.8904C46.4131 33.9693 46.8289 33.6202 46.9595 33.1026L50.8798 16.455C50.9629 16.1059 50.8798 15.7568 50.6659 15.48C50.4521 15.2031 50.1551 15.0586 49.8106 15.0586H22.2739C21.7631 15.0586 21.3354 15.4077 21.2048 15.9253L19.8505 21.3181H13.7207L15.4076 14.529C16.1678 11.291 18.9952 9.02795 22.2739 9.02795H49.7987C51.9608 9.02795 53.9803 10.015 55.3227 11.7484C56.677 13.4818 57.164 15.7207 56.6532 17.8633Z" fill="white"/>
<path d="M66.6914 26.8071C65.349 25.483 64.6719 23.6413 64.6719 21.2941C64.6719 19.5005 65.0401 17.7912 65.7886 16.1662C66.537 14.5411 67.618 13.217 69.0317 12.2179C70.4572 11.2068 72.1084 10.7133 74.0092 10.7133C76.5039 10.7133 78.4402 11.3753 79.8301 12.6994C81.22 14.0235 81.909 15.8652 81.909 18.2125C81.909 18.8264 81.8734 19.3922 81.7902 19.8857C81.719 20.3792 81.6596 20.7163 81.6477 20.8968H69.1623C69.1386 21.2098 69.1267 21.5107 69.1267 21.7876C69.1267 22.9191 69.4593 23.7737 70.1127 24.3636C70.7661 24.9534 71.6808 25.2423 72.8687 25.2423C73.5696 25.2423 74.1992 25.0497 74.7576 24.6765C75.3159 24.3034 75.8386 23.7015 76.3494 22.883H81.0062C80.2459 24.9414 79.1649 26.446 77.7631 27.3849C76.3613 28.3239 74.5319 28.7933 72.2629 28.7933C69.9939 28.7933 68.0575 28.1313 66.7033 26.8071M77.4305 17.9116V17.7792C77.4305 16.6115 77.1691 15.7208 76.6583 15.143C76.1475 14.5532 75.3397 14.2643 74.2468 14.2643C73.0232 14.2643 72.049 14.6013 71.3125 15.2874C70.576 15.9736 70.0295 16.8523 69.6613 17.9116H77.4305Z" fill="white"/>
<path d="M86.3876 11.1707H90.8424L90.3197 13.5661H90.391C91.2463 12.5068 92.1729 11.7605 93.1945 11.3392C94.2162 10.9179 95.2497 10.7133 96.3189 10.7133C97.9107 10.7133 99.1343 11.1105 99.9896 11.905C100.845 12.6994 101.273 13.8309 101.273 15.2874C101.273 15.6365 101.237 15.9856 101.178 16.3347C101.106 16.6717 101.071 16.9125 101.047 17.0449L98.6829 28.3359H94.0261L96.0931 18.3088C96.1169 18.2245 96.1644 17.9356 96.2595 17.4662C96.3426 16.9847 96.3901 16.6236 96.3901 16.3588C96.3901 15.805 96.1763 15.3476 95.7368 14.9865C95.2972 14.6254 94.7745 14.4328 94.1687 14.4328C92.9688 14.4328 91.9472 14.8661 91.1156 15.7328C90.2841 16.5995 89.702 17.8153 89.3812 19.3801L87.5161 28.3479H82.8594L86.3995 11.1827L86.3876 11.1707Z" fill="white"/>
<path d="M105.383 26.8071C104.041 25.483 103.364 23.6413 103.364 21.2941C103.364 19.5005 103.732 17.7912 104.48 16.1662C105.229 14.5411 106.31 13.217 107.723 12.2179C109.149 11.2068 110.8 10.7133 112.701 10.7133C115.196 10.7133 117.132 11.3753 118.522 12.6994C119.912 14.0235 120.601 15.8652 120.601 18.2125C120.601 18.8264 120.565 19.3922 120.482 19.8857C120.411 20.3792 120.351 20.7163 120.339 20.8968H107.854C107.83 21.2098 107.818 21.5107 107.818 21.7876C107.818 22.9191 108.151 23.7737 108.804 24.3636C109.458 24.9534 110.372 25.2423 111.56 25.2423C112.261 25.2423 112.891 25.0497 113.449 24.6765C114.008 24.3034 114.53 23.7015 115.041 22.883H119.698C118.938 24.9414 117.857 26.446 116.455 27.3849C115.053 28.3239 113.224 28.7933 110.955 28.7933C108.686 28.7933 106.749 28.1313 105.395 26.8071M116.122 17.9116V17.7792C116.122 16.6115 115.861 15.7208 115.35 15.143C114.839 14.5532 114.031 14.2643 112.938 14.2643C111.715 14.2643 110.741 14.6013 110.004 15.2874C109.268 15.9736 108.721 16.8523 108.353 17.9116H116.122Z" fill="white"/>
<path d="M123.309 33.3433C121.979 32.3442 121.313 30.972 121.313 29.2266H125.97C125.97 30.0451 126.255 30.659 126.837 31.0683C127.42 31.4775 128.144 31.6822 129.011 31.6822C129.819 31.6822 130.496 31.4896 131.043 31.1164C131.589 30.7433 132.076 30.1294 132.504 29.2867C132.932 28.4441 133.336 27.2645 133.728 25.7357V25.6996L133.656 25.6274C132.979 26.5302 132.243 27.1682 131.447 27.5173C130.651 27.8663 129.831 28.0469 129.011 28.0469C127.028 28.0469 125.436 27.421 124.26 26.157C123.084 24.8931 122.49 23.1959 122.49 21.0412C122.49 19.356 122.834 17.7189 123.523 16.13C124.212 14.541 125.21 13.229 126.505 12.2178C127.8 11.1947 129.32 10.6891 131.043 10.6891C132.504 10.6891 133.644 10.978 134.452 11.5678C135.26 12.1576 135.854 12.8919 136.222 13.7706H136.294L136.816 11.1465H141.271L137.862 27.5173C137.47 29.4673 136.828 30.972 135.949 32.0312C135.07 33.0905 133.989 33.8248 132.742 34.222C131.482 34.6193 130.104 34.8239 128.596 34.8239C126.41 34.8239 124.652 34.3304 123.321 33.3313M133.882 22.5218C134.785 21.2097 135.236 19.681 135.236 17.9596C135.236 16.792 134.951 15.8772 134.369 15.2151C133.787 14.5651 132.967 14.2401 131.898 14.2401C130.52 14.2401 129.392 14.9142 128.489 16.2624C127.598 17.6105 127.146 19.0911 127.146 20.7162C127.146 21.8718 127.42 22.7866 127.978 23.4727C128.536 24.1588 129.308 24.4959 130.282 24.4959C131.767 24.4959 132.967 23.8338 133.87 22.5218" fill="white"/>
<path d="M145.203 11.1707H149.884L146.284 28.3359H141.604L145.203 11.1707ZM146.581 4.6344H151.262L150.406 8.52245H145.726L146.581 4.6344Z" fill="white"/>
<path d="M155.942 19.1394L152.117 11.1707H157.094L158.96 16.118L162.797 11.1707H168L160.955 19.4042L165.256 28.3359H160.338L157.878 22.6904L153.352 28.3359H148.078L155.942 19.1394Z" fill="white"/>
<path d="M65.8718 34.0776H67.8676C68.3309 34.0776 68.6873 34.198 68.9367 34.4388C69.1862 34.6795 69.305 35.0165 69.305 35.474C69.305 35.7508 69.2337 36.0036 69.103 36.2444C68.9724 36.4851 68.7585 36.6897 68.4734 36.8342C68.1883 36.9907 67.8319 37.0629 67.3924 37.0629H65.9193L65.4917 39.1333H64.8264L65.8718 34.0776ZM67.5825 36.4971C67.9032 36.4971 68.1646 36.4008 68.3665 36.2203C68.5685 36.0397 68.6635 35.7869 68.6635 35.474C68.6635 35.2091 68.5922 35.0045 68.4497 34.8601C68.3071 34.7156 68.117 34.6434 67.8676 34.6434H66.442L66.0619 36.4971H67.5943H67.5825Z" fill="white"/>
<path d="M73.3559 34.0776H74.0805L74.9833 39.1333H74.2943L74.0686 37.6166H71.966L71.0869 39.1333H70.3503L73.3559 34.0776ZM73.9855 37.0388L73.6172 34.6675H73.6053L72.2748 37.0388H73.9974H73.9855Z" fill="white"/>
<path d="M78.7611 37.099L77.4543 34.0776H78.1552L79.1769 36.5333L81.0657 34.0776H81.8379L79.4263 37.099L78.9868 39.1333H78.3334L78.7611 37.099Z" fill="white"/>
<path d="M84.4514 34.0776H85.378L86.0314 38.4231H86.0551L88.5142 34.0776H89.4408L88.3835 39.1333H87.7539L88.7637 34.7156H88.7518L86.2096 39.1333H85.58L84.9266 34.7156H84.9147L84.0356 39.1333H83.406L84.4514 34.0776Z" fill="white"/>
<path d="M92.6364 34.0776H96.0696L95.9626 34.6434H93.1828L92.8502 36.2564H95.4281L95.3211 36.8221H92.7314L92.3632 38.5676H95.1786L95.0479 39.1333H91.5791L92.6364 34.0776Z" fill="white"/>
<path d="M98.9918 34.0776H99.7046L101.487 38.2666H101.498L102.33 34.0776H102.983L101.926 39.1333H101.213L99.4433 34.9804H99.4314L98.5761 39.1333H97.9346L98.9918 34.0776Z" fill="white"/>
<path d="M107.129 34.6434H105.454L105.573 34.0776H109.588L109.47 34.6434H107.795L106.856 39.1333H106.191L107.129 34.6434Z" fill="white"/>
<path d="M115.409 35.4981V35.5703H114.744V35.5222C114.744 35.1851 114.649 34.9323 114.471 34.7759C114.293 34.6073 113.996 34.5231 113.604 34.5231C113.295 34.5231 113.021 34.5953 112.796 34.7398C112.558 34.8842 112.451 35.0888 112.451 35.3537C112.451 35.5703 112.523 35.7388 112.653 35.8592C112.784 35.9916 112.998 36.0879 113.295 36.1722L113.936 36.3407C114.328 36.449 114.625 36.6055 114.827 36.8102C115.041 37.0268 115.136 37.3157 115.136 37.7009C115.136 38.0259 115.041 38.3028 114.851 38.5435C114.661 38.7723 114.423 38.9528 114.126 39.0732C113.829 39.1936 113.52 39.2537 113.188 39.2537C112.558 39.2537 112.083 39.1213 111.739 38.8445C111.394 38.5676 111.216 38.1704 111.216 37.6648C111.216 37.5806 111.216 37.5204 111.216 37.4843H111.881V37.5685C111.881 37.9537 111.988 38.2306 112.214 38.4232C112.439 38.6037 112.772 38.7 113.212 38.7C113.592 38.7 113.889 38.6158 114.126 38.4352C114.352 38.2546 114.471 38.0259 114.471 37.725C114.471 37.4843 114.388 37.3037 114.233 37.1833C114.067 37.063 113.853 36.9667 113.58 36.8944L113.033 36.75C112.618 36.6416 112.309 36.4731 112.095 36.2685C111.893 36.0639 111.786 35.787 111.786 35.4379C111.786 35.1249 111.869 34.8481 112.047 34.6314C112.226 34.4147 112.451 34.2462 112.725 34.1379C113.01 34.0295 113.295 33.9694 113.604 33.9694C114.15 33.9694 114.59 34.1018 114.91 34.3786C115.231 34.6555 115.397 35.0286 115.397 35.5101" fill="white"/>
</g>
<defs>
<clipPath id="clip0_58_20286">
<rect width="168" height="40" fill="white"/>
</clipPath>
</defs>
</svg>
