<svg width="218" height="146" fill="none" xmlns="http://www.w3.org/2000/svg"><path fill-rule="evenodd" clip-rule="evenodd" d="M106.557 1.352H91.73v141.94h14.827V1.352Zm1.348 18.25V0H90.382v52.72H74.207v56.664a21.02 21.02 0 0 0-1.841-4.035c-2.035-3.73-5.031-6.559-8.947-8.472-3.745-1.83-7.34-3.213-10.783-4.139-3.429-.921-7.569-1.662-12.407-2.23l-.078-.008h-.079c-.229 0-.702-.043-1.481-.156l-.012-.001-.012-.002a370.11 370.11 0 0 1-8.635-1.17 55.46 55.46 0 0 1-6.628-1.793c-2.031-.826-3.46-1.917-4.387-3.225-.914-1.289-1.425-3.017-1.425-5.289 0-3.912 1.654-6.99 5.1-9.34 3.505-2.39 8.18-3.645 14.134-3.645 6.369 0 11.348 1.522 15.066 4.436l.01.007.008.007c3.677 2.78 5.552 6.492 5.655 11.263l.029 1.323h16.22v-1.352c0-9.16-3.46-16.53-10.378-21.971-6.768-5.524-15.626-8.223-26.443-8.223-10.47 0-19.041 2.468-25.586 7.533-6.49 4.995-9.73 11.868-9.73 20.468 0 4.797.988 8.979 3.029 12.488l.008.014.01.015c2.145 3.484 5.125 6.181 8.907 8.088l.008.003.007.004c3.745 1.83 7.34 3.213 10.783 4.138l.026.007.025.006c3.496.796 7.589 1.474 12.273 2.038.537.127 1.304.24 2.257.347 5.347.674 9.065 1.284 11.208 1.824l.038.01.037.007c2.052.394 4.186 1.493 6.402 3.407l.026.023.027.021c2.108 1.642 3.16 3.825 3.16 6.691 0 4.033-1.662 7.159-5.088 9.5-3.501 2.279-8.288 3.485-14.48 3.485-7.598 0-13.455-1.803-17.72-5.261-4.134-3.441-6.261-8.004-6.366-13.821l-.024-1.327H.072v1.352c0 10.451 3.473 18.779 10.512 24.81l.005.004.005.004c7.016 5.893 16.791 8.749 29.144 8.749 10.99 0 19.74-2.339 26.08-7.19 4.08-3.067 6.874-6.92 8.39-11.516v17.354h49.872v-44.59l43.808 44.59h22.577L145.31 98.682l45.155-45.961h-22.577L124.08 97.31V19.6h-16.175Zm14.827 1.351v122.339h-14.827V20.953h14.827Zm-47.177 33.12h14.827v89.219H75.555v-89.22Zm-1.348 64.259c0 8.321-3.067 14.786-9.203 19.397-6.024 4.61-14.446 6.915-25.266 6.915-12.16 0-21.585-2.811-28.279-8.433-6.392-5.477-9.732-12.954-10.019-22.43-.014-.447-.02-.897-.02-1.352h13.386c.112 6.184 2.398 11.132 6.86 14.842 4.574 3.711 10.765 5.566 18.574 5.566 6.358 0 11.434-1.237 15.227-3.71 3.792-2.587 5.689-6.129 5.689-10.626 0-3.261-1.227-5.847-3.681-7.759-2.343-2.024-4.686-3.261-7.028-3.711-2.231-.562-6.024-1.18-11.379-1.855-1.004-.112-1.729-.225-2.175-.337-4.685-.563-8.757-1.237-12.215-2.024-3.346-.9-6.86-2.249-10.541-4.048-3.57-1.8-6.359-4.33-8.367-7.59-1.896-3.261-2.844-7.197-2.844-11.807 0-8.208 3.067-14.674 9.203-19.397 6.247-4.835 14.501-7.252 24.764-7.252 10.598 0 19.131 2.642 25.601 7.927 6.24 4.904 9.522 11.425 9.846 19.563.018.446.027.896.027 1.352H58.813c-.111-5.173-2.175-9.277-6.191-12.313-4.016-3.148-9.315-4.723-15.896-4.723-6.136 0-11.1 1.293-14.892 3.88-3.793 2.586-5.69 6.072-5.69 10.457 0 2.474.558 4.498 1.674 6.072 1.115 1.574 2.789 2.811 5.02 3.71a56.819 56.819 0 0 0 6.86 1.856c2.231.337 5.131.731 8.701 1.18.78.113 1.339.17 1.673.17 4.797.561 8.869 1.292 12.215 2.192 3.347.9 6.86 2.249 10.542 4.048 3.681 1.8 6.47 4.442 8.366 7.927 2.008 3.374 3.012 7.478 3.012 12.313Zm69.21-19.65 43.828-44.61h-18.794l-43.827 44.61 43.827 44.61h18.794l-43.828-44.61Zm72.743 32.444c0 6.72-5.431 12.167-12.132 12.167-6.699 0-12.13-5.447-12.13-12.167 0-6.719 5.431-12.166 12.13-12.166 6.701 0 12.132 5.447 12.132 12.166Zm1.347 0c0 7.466-6.034 13.519-13.479 13.519-7.443 0-13.479-6.053-13.479-13.519 0-7.465 6.036-13.518 13.479-13.518 7.445 0 13.479 6.053 13.479 13.518Z" fill="#fff"/></svg>