<svg width="80" height="53" viewBox="0 0 80 53" fill="none" xmlns="http://www.w3.org/2000/svg">
<path fill-rule="evenodd" clip-rule="evenodd" d="M38.6557 0.490727H33.2732V19.1383V52.0168H38.6557V7.11552V0.490727ZM39.145 7.11552V0H32.7839V19.1383H26.9122V39.7078C26.7373 39.1884 26.5149 38.6998 26.2438 38.2431C25.5051 36.8892 24.4175 35.8623 22.9961 35.1676C21.6366 34.5032 20.3315 34.0012 19.0816 33.6653C17.8369 33.3307 16.334 33.0618 14.5775 32.8559L14.5492 32.8526H14.5208C14.4376 32.8526 14.2658 32.8371 13.9829 32.7963L13.9786 32.7957L13.9743 32.7952C12.6868 32.6329 11.6423 32.4912 10.8395 32.37C10.0593 32.2122 9.25736 31.9955 8.43368 31.7193C7.69614 31.4197 7.1775 31.0237 6.84091 30.5487C6.5094 30.0809 6.32394 29.4535 6.32394 28.6287C6.32394 27.2085 6.92438 26.0912 8.17498 25.2384C9.44741 24.3707 11.1443 23.915 13.3059 23.915C15.618 23.915 17.4256 24.4673 18.7751 25.5253L18.7785 25.528L18.7819 25.5305C20.1165 26.5395 20.7973 27.8871 20.8347 29.619L20.845 30.0991H26.7333V29.6084C26.7333 26.2833 25.477 23.6079 22.9656 21.6327C20.5088 19.6274 17.2934 18.6476 13.3667 18.6476C9.5659 18.6476 6.45438 19.5435 4.07838 21.3823C1.72291 23.1956 0.546678 25.6906 0.546678 28.8124C0.546678 30.5537 0.905175 32.0718 1.64594 33.3456L1.64904 33.351L1.65229 33.3562C2.43101 34.6209 3.51308 35.6002 4.886 36.2921L4.88868 36.2935L4.89137 36.2948C6.25089 36.9592 7.55587 37.4611 8.80579 37.7971L8.81497 37.7996L8.82421 37.8017C10.0932 38.0906 11.5791 38.3368 13.2794 38.5416C13.4743 38.5878 13.7528 38.6288 14.0986 38.6677C16.04 38.9123 17.3896 39.1337 18.1676 39.3298L18.1811 39.3332L18.1948 39.3358C18.9397 39.4789 19.7143 39.8777 20.5186 40.5726L20.528 40.5808L20.5378 40.5884C21.3031 41.1845 21.685 41.977 21.685 43.0174C21.685 44.4817 21.0818 45.6165 19.8381 46.4661C18.5671 47.2935 16.8293 47.7311 14.5815 47.7311C11.8234 47.7311 9.69728 47.0765 8.1491 45.8215C6.64833 44.5724 5.87602 42.9157 5.83794 40.8043L5.82925 40.3224H0V40.8131C0 44.607 1.26094 47.6303 3.81601 49.8195L3.81782 49.821L3.81966 49.8225C6.36652 51.9618 9.91518 52.9985 14.3993 52.9985C18.3891 52.9985 21.565 52.1495 23.8666 50.3886C25.348 49.275 26.3622 47.8763 26.9122 46.2081V52.5076H32.7839H33.2732H38.6557H39.145H45.0167V36.3211L60.9196 52.5076H69.1153L52.7233 35.823L69.1153 19.1383H60.9196L45.0167 35.325V7.11552H39.145ZM44.5274 7.60624V35.823V52.0168H39.145V7.60624H44.5274ZM27.4015 19.6291H32.7839V52.0168H27.4015V42.9562V19.6291ZM26.9122 42.9562C26.9122 45.9767 25.7986 48.3238 23.5714 49.9973C21.3846 51.671 18.3273 52.5076 14.3993 52.5076C9.98537 52.5076 6.56353 51.4873 4.13385 49.4463C1.81341 47.4582 0.601017 44.744 0.49668 41.3039C0.491769 41.1419 0.489312 40.9783 0.489312 40.8131H5.34869C5.38919 43.0582 6.21933 44.8542 7.83913 46.2012C9.49942 47.5482 11.7469 48.2218 14.5815 48.2218C16.8897 48.2218 18.7322 47.7728 20.1091 46.8747C21.4859 45.9359 22.1743 44.6501 22.1743 43.0174C22.1743 41.8336 21.7288 40.8948 20.838 40.2009C19.9876 39.4661 19.1372 39.0171 18.2868 38.8539C17.4769 38.6497 16.1 38.4253 14.1563 38.1803C13.7919 38.1395 13.5287 38.0987 13.3667 38.0579C11.6659 37.8538 10.1878 37.6089 8.93247 37.3232C7.71763 36.9966 6.44203 36.5067 5.10574 35.8537C3.80989 35.2006 2.79752 34.2821 2.06861 33.0984C1.3802 31.9146 1.03599 30.486 1.03599 28.8124C1.03599 25.8326 2.1496 23.4855 4.37682 21.7712C6.64453 20.0159 9.64112 19.1383 13.3667 19.1383C17.2137 19.1383 20.3115 20.0976 22.6602 22.0161C24.9253 23.7962 26.1167 26.1634 26.2344 29.1177C26.2408 29.2795 26.244 29.443 26.244 29.6084H21.3239C21.2834 27.7307 20.5342 26.2408 19.0764 25.1387C17.6186 23.9958 15.6951 23.4243 13.3059 23.4243C11.0787 23.4243 9.27667 23.8937 7.89988 24.8326C6.52303 25.7714 5.83463 27.0368 5.83463 28.6287C5.83463 29.5267 6.03708 30.2615 6.44203 30.8329C6.84698 31.4044 7.45443 31.8534 8.26433 32.18C9.11472 32.4657 9.94487 32.6902 10.7548 32.8535C11.5647 32.9759 12.6175 33.1188 13.9134 33.2821C14.1968 33.3229 14.3993 33.3433 14.5208 33.3433C16.262 33.5474 17.7401 33.8127 18.9549 34.1393C20.1698 34.4658 21.4454 34.9556 22.7817 35.6087C24.1181 36.2619 25.1304 37.2211 25.8188 38.4865C26.5478 39.711 26.9122 41.2009 26.9122 42.9562ZM52.0363 35.823L67.9463 19.6291H61.124L45.2143 35.823L61.124 52.0168H67.9463L52.0363 35.823ZM78.4431 47.6007C78.4431 50.0399 76.4715 52.0173 74.039 52.0173C71.6071 52.0173 69.6354 50.0399 69.6354 47.6007C69.6354 45.1615 71.6071 43.1842 74.039 43.1842C76.4715 43.1842 78.4431 45.1615 78.4431 47.6007ZM78.9321 47.6007C78.9321 50.3109 76.7416 52.5081 74.039 52.5081C71.3369 52.5081 69.146 50.3109 69.146 47.6007C69.146 44.8905 71.3369 42.6934 74.039 42.6934C76.7416 42.6934 78.9321 44.8905 78.9321 47.6007Z" fill="white"/>
</svg>
