<svg width="799" height="44" fill="none" xmlns="http://www.w3.org/2000/svg"><path d="M19.736 38.214c-3.585 0-6.748-.549-9.404-1.603-2.657-1.054-4.639-2.404-5.904-3.964-1.223-1.518-2.235-3.078-2.952-4.596C.759 26.532.337 25.183.253 24.087L0 22.105h11.681v.337c0 .042 0 .126.042.253 0 .084.042.295.169.801.127.422.253.801.422 1.18.168.338.421.76.8 1.182.38.421.844.843 1.35 1.138.506.338 1.181.59 2.024.801.844.211 1.814.338 2.868.338 1.054 0 2.024-.085 2.91-.253.843-.169 1.56-.38 2.108-.633a7.146 7.146 0 0 0 1.392-.843c.38-.295.633-.59.801-.886.169-.337.337-.632.464-.885s.169-.422.21-.549V15.61H13.706V3.76h25.429v20.074c0 .21 0 .506-.042.885-.042.38-.169 1.012-.422 1.982s-.633 1.94-1.096 2.825c-.464.886-1.181 1.898-2.151 2.994a14.413 14.413 0 0 1-3.458 2.868c-1.307.801-3.078 1.476-5.187 2.024-2.108.506-4.47.802-7.042.802ZM.8 22.82l.127 1.181c.084 1.012.506 2.277 1.18 3.711.675 1.476 1.645 2.952 2.868 4.47 1.18 1.476 3.078 2.741 5.65 3.753 2.573 1.012 5.652 1.56 9.11 1.56 2.53 0 4.85-.253 6.873-.8 2.067-.507 3.711-1.181 4.976-1.94a14.804 14.804 0 0 0 3.29-2.7c.927-1.054 1.602-1.981 2.024-2.867a14.8 14.8 0 0 0 1.012-2.699c.253-.928.38-1.56.422-1.897.042-.338.042-.59.042-.802V4.477H14.422v10.416H27.96v9.32a5.05 5.05 0 0 1-.253.717c-.127.295-.295.59-.506.928-.211.38-.549.759-1.012 1.096-.422.337-.928.633-1.518.928-.59.295-1.35.506-2.278.717-.927.168-1.94.253-3.036.253s-2.15-.127-3.036-.338c-.928-.21-1.687-.548-2.235-.927-.548-.38-1.054-.802-1.476-1.308-.422-.506-.717-.927-.928-1.35-.169-.379-.337-.842-.464-1.264-.126-.464-.168-.76-.21-.928H.8v.084ZM61.906 38.509c-3.374 0-6.326-.253-8.73-.717-2.445-.506-4.638-1.265-6.452-2.362-1.855-1.096-3.247-2.614-4.132-4.512-.886-1.898-1.35-4.175-1.35-6.831 0-2.278.38-4.302 1.097-6.03.717-1.73 1.729-3.164 2.952-4.218 1.223-1.054 2.74-1.898 4.512-2.572a27.114 27.114 0 0 1 5.524-1.35c1.856-.253 4.006-.38 6.284-.38 2.361 0 4.512.127 6.41.296 1.897.21 3.837.633 5.735 1.265 1.94.633 3.542 1.476 4.807 2.53 1.265 1.055 2.32 2.488 3.12 4.217.802 1.73 1.181 3.838 1.181 6.157 0 2.657-.506 4.976-1.434 6.874-.97 1.898-2.445 3.416-4.343 4.554-1.898 1.097-4.09 1.856-6.536 2.362-2.404.464-5.314.717-8.645.717Zm-.253-28.254c-2.277 0-4.386.126-6.2.337a25.477 25.477 0 0 0-5.355 1.307c-1.729.633-3.163 1.434-4.301 2.446-1.139.97-2.066 2.32-2.741 3.964-.717 1.645-1.054 3.585-1.054 5.777 0 2.573.421 4.766 1.265 6.537.843 1.771 2.15 3.163 3.88 4.217 1.728 1.054 3.837 1.813 6.198 2.277 2.404.464 5.272.717 8.603.717 3.247 0 6.115-.21 8.518-.675 2.362-.464 4.513-1.223 6.326-2.277 1.771-1.012 3.163-2.446 4.048-4.26.928-1.812 1.392-4.005 1.392-6.535 0-2.235-.38-4.218-1.139-5.862-.759-1.645-1.729-2.994-2.91-3.964-1.223-.97-2.74-1.813-4.596-2.404-1.856-.632-3.711-1.012-5.567-1.223-1.897-.295-4.048-.38-6.367-.38Zm.38 20.368c-2.995 0-5.23-.548-6.664-1.645-1.475-1.138-2.235-2.867-2.235-5.187 0-.927.211-1.813.59-2.572.38-.76.886-1.392 1.477-1.856.59-.463 1.307-.843 2.108-1.138.802-.295 1.56-.506 2.32-.633a13.8 13.8 0 0 1 2.277-.168c1.054 0 2.024.084 2.952.253.927.168 1.897.506 2.867.927 1.012.422 1.814 1.139 2.446 2.067.59.928.928 2.066.928 3.373 0 2.404-.801 4.133-2.404 5.103-1.56.97-3.795 1.476-6.663 1.476Zm-.17-12.525c-.716 0-1.433.043-2.15.17-.717.126-1.434.294-2.193.59a6.89 6.89 0 0 0-1.898 1.054 5.13 5.13 0 0 0-1.307 1.644c-.337.675-.506 1.434-.506 2.277 0 2.109.633 3.627 1.94 4.597 1.307 1.012 3.416 1.518 6.241 1.518 2.741 0 4.85-.464 6.241-1.35 1.392-.885 2.067-2.36 2.067-4.511 0-1.181-.253-2.193-.802-2.995-.548-.8-1.265-1.433-2.108-1.813a11.675 11.675 0 0 0-2.699-.843c-.886-.253-1.813-.338-2.825-.338ZM96.865 38.213H84.973V9.748h11.892v28.465Zm-11.175-.717h10.458v-27.03H85.69v27.03ZM96.865 8.272H84.973V2.158h11.892v6.114ZM85.69 7.555h10.458v-4.68H85.69v4.68ZM138.276 38.214h-11.892V26.87c0-.338-.043-.802-.085-1.434-.042-.633-.126-1.096-.168-1.476a27.256 27.256 0 0 0-.38-1.35c-.169-.505-.337-.927-.59-1.222-.211-.338-.506-.675-.886-1.055a4.002 4.002 0 0 0-1.181-.843 7.585 7.585 0 0 0-1.644-.506c-.633-.127-1.35-.21-2.151-.21-1.982 0-3.584.294-4.765.842-1.139.549-2.235 1.35-3.205 2.362v16.278H99.353V9.79h11.976v3.5c.759-.548 1.391-.928 1.813-1.223.548-.337 1.35-.759 2.404-1.223a14.273 14.273 0 0 1 3.373-1.012c1.181-.21 2.573-.295 4.133-.295 1.518 0 2.868.084 4.006.21 1.181.127 2.404.38 3.669.802 1.307.38 2.446 1.054 3.458 1.898a8.767 8.767 0 0 1 2.319 3.247c.759 1.77 1.265 4.048 1.434 6.747.169 2.699.253 7.169.253 13.283v2.489h.085Zm-11.176-.717h10.459V35.64c0-6.072-.085-10.542-.253-13.241-.169-2.657-.633-4.85-1.392-6.537-.506-1.18-1.223-2.192-2.151-2.994-.885-.801-1.982-1.391-3.162-1.729a19.827 19.827 0 0 0-3.543-.759c-1.138-.126-2.446-.168-3.922-.168-1.518 0-2.867.084-4.006.295a11.34 11.34 0 0 0-3.205.97c-1.012.463-1.771.843-2.319 1.18-.548.338-1.349.844-2.362 1.603l-.548.422v-4.175h-10.542v27.03h10.542V21.684l.085-.084c1.096-1.097 2.277-1.983 3.542-2.573 1.265-.632 2.994-.928 5.06-.928.802 0 1.603.085 2.278.211.674.169 1.307.338 1.813.59.506.254.97.591 1.391.97.38.38.717.76.928 1.14.253.379.506.843.675 1.433.169.59.295 1.054.379 1.434.085.38.169.927.211 1.56.042.675.085 1.139.085 1.476v10.585h-.043ZM179.308 38.34c-1.561 0-2.868-.042-3.88-.169-1.054-.126-2.024-.38-2.868-.801-.885-.422-1.56-.97-2.066-1.602-.464-.633-.886-1.519-1.223-2.7-.337-1.138-.548-2.445-.632-3.879-.085-1.392-.127-3.205-.127-5.398v-5.187h-5.566V9.538h5.566v-5.82h11.85v5.82h13.579v9.066h-13.579v5.482c0 .085 0 .253.042.675.042.338.084.633.169.928.084.295.211.59.379.97.169.337.338.632.591.885.253.253.548.422.969.59a3.5 3.5 0 0 0 1.35.254c.801 0 1.645-.042 2.53-.169.928-.126 1.729-.253 2.446-.422a70.308 70.308 0 0 0 2.024-.506c.633-.168 1.097-.337 1.476-.421.042 0 .084-.043.127-.043l-.085-.126h.886l.042.253 4.091 8.898-.338.126c-.506.211-1.223.422-2.151.675-.969.253-2.909.59-6.03 1.012-3.078.464-6.283.675-9.572.675Zm-15.646-20.41h5.567v5.903c0 2.151.042 3.964.126 5.356.085 1.392.296 2.614.591 3.711.295 1.054.675 1.898 1.096 2.446.422.548 1.012 1.012 1.771 1.391.802.38 1.687.633 2.657.717 1.012.127 2.277.169 3.838.169 3.247 0 6.452-.21 9.488-.633 3.036-.421 5.018-.759 5.946-1.012a15.08 15.08 0 0 0 1.729-.506l-3.669-7.97c-.084 0-.127.042-.211.085-.379.126-.885.253-1.476.421-.632.169-1.307.338-2.066.506-.759.169-1.603.296-2.53.422a19.38 19.38 0 0 1-2.615.169c-.59 0-1.139-.085-1.602-.296-.506-.21-.886-.463-1.181-.759a4.224 4.224 0 0 1-.759-1.096c-.169-.422-.338-.76-.422-1.096a8.065 8.065 0 0 1-.169-1.055c-.042-.38-.042-.59-.042-.717V17.93h13.579v-7.633h-13.579v-5.82h-10.416v5.82h-5.566v7.633h-.085ZM238.177 38.213h-11.892V26.912c0-.338 0-.801-.043-1.434-.042-.633-.084-1.096-.168-1.434-.085-.337-.211-.801-.338-1.35-.168-.505-.337-.927-.548-1.222-.211-.338-.506-.675-.843-1.054a3.484 3.484 0 0 0-1.097-.844 6.382 6.382 0 0 0-1.518-.506 9.425 9.425 0 0 0-1.94-.21c-4.343 0-7.59.927-9.614 2.782v16.658h-11.892V4.013l12.482.296-.548 9.066c3.584-2.53 7.843-3.753 13.03-3.626h.717c3.711.042 7.97.084 10.669 3.036a7.534 7.534 0 0 1 1.856 2.699c.717 1.77 1.181 4.175 1.391 7.169.211 2.952.296 7.337.296 13.114v2.446Zm-11.175-.717h10.458v-1.855c0-5.735-.085-10.163-.295-13.073-.211-2.867-.675-5.229-1.35-6.958a7.055 7.055 0 0 0-1.687-2.446c-2.53-2.74-6.41-2.783-10.163-2.825h-.717c-5.271-.084-9.614 1.223-13.199 3.964l-.632.464.59-9.868-11.006-.295v32.85h10.458V21.22l.126-.127c2.151-2.024 5.609-3.078 10.205-3.078.759 0 1.476.084 2.109.21.632.17 1.223.338 1.687.549.506.21.927.548 1.307 1.012.38.422.675.801.886 1.139.253.38.463.843.632 1.433.169.549.295 1.055.38 1.434.084.38.126.928.168 1.56.043.675.043 1.14.043 1.476v10.67ZM260.232 38.214c-3.29 0-6.157-.211-8.561-.675-2.446-.464-4.47-1.097-5.988-1.898-1.56-.801-2.825-1.855-3.795-3.12a11.47 11.47 0 0 1-1.982-4.007c-.338-1.391-.549-3.036-.549-4.891 0-4.85 1.94-8.308 5.946-10.5h.043c2.277-1.055 5.06-1.983 8.096-2.657h.085c3.12-.127 6.452 0 10.795.295 1.097.084 2.235.126 3.416.126 4.47.085 9.066.169 12.229 3.67 3.163 3.794 1.561 9.36.338 12.313l-.085.21h-.253c-.084 0-7.548-.126-14.591-.126h-13.747c.295.548.97 1.012 1.982 1.434 1.349.506 3.458.801 6.199.801 2.446 0 4.892-.169 7.295-.464 2.404-.295 4.26-.632 5.482-.97l2.067-.548 5.102 8.265-.168.17a3.753 3.753 0 0 1-.591.294c-.295.127-.927.338-1.982.633a32.224 32.224 0 0 1-3.542.759c-1.307.21-3.163.422-5.482.59-2.362.211-4.976.296-7.759.296Zm-14.549-24.501c-3.753 2.066-5.566 5.313-5.566 9.868 0 1.77.168 3.373.506 4.723.337 1.307.969 2.572 1.855 3.753.886 1.18 2.066 2.15 3.542 2.91 1.476.758 3.416 1.391 5.778 1.855 2.361.422 5.229.675 8.434.675 2.783 0 5.355-.085 7.632-.253 2.32-.17 4.133-.38 5.44-.59a31.317 31.317 0 0 0 3.5-.76c1.013-.295 1.645-.464 1.898-.59.042-.042.127-.042.169-.085l-4.47-7.21-1.561.421c-1.265.337-3.12.633-5.566.97-2.446.337-4.934.464-7.422.464-2.825 0-5.018-.295-6.452-.844-1.518-.59-2.404-1.391-2.572-2.361l-.085-.422h14.676c6.325 0 12.988.085 14.337.127 2.573-6.41.928-9.868-.337-11.344-2.952-3.247-7.38-3.332-11.723-3.458-1.139-.042-2.362-.042-3.458-.127-4.344-.295-7.633-.421-10.711-.295-2.91.633-5.651 1.56-7.844 2.573Zm23.151 8.476h-.295c-.042 0-4.554-.127-8.771-.127h-8.94v-.337c0-.464.168-.928.464-1.35.295-.421.716-.843 1.349-1.265.633-.421 1.56-.759 2.868-1.054 1.349-.253 2.951-.38 4.807-.38 3.331.17 5.693.675 6.874 1.434 1.433.802 2.024 1.73 1.729 2.826l-.085.253Zm-17.247-.843h8.181c3.626 0 7.422.084 8.476.126.042-.38-.127-1.012-1.434-1.729h-.042c-1.054-.675-3.331-1.139-6.494-1.35-1.814 0-3.416.127-4.681.38-1.181.253-2.066.548-2.615.928-.548.38-.927.717-1.138 1.096-.127.127-.211.338-.253.549ZM344.909 39.436c-1.56 0-3.416-.337-5.229-.632-1.139-.211-2.362-.422-3.416-.548l-.548-.043 1.855-2.952c-4.217 1.73-8.392 2.742-12.313 3.079-5.019.422-9.615-.337-13.663-2.235-2.025-.928-3.796-3.247-3.205-5.693.21-.928.464-1.898.674-2.868 1.265-5.44 2.573-11.09 5.651-15.265 1.265-1.645 4.428-1.392 7.759-1.18 1.097.083 2.235.168 3.248.168h.379l-.042.38c-.211 2.15-1.181 4.343-2.109 6.493-1.476 3.416-2.909 6.663-.843 8.814 1.94 2.066 5.018 2.994 8.645 2.615 3.416-.338 6.874-1.814 9.277-3.922 1.181-1.097 1.434-3.332 1.603-5.314.042-.464.084-.843.126-1.265.548-3.626.591-7.422.591-7.464v-.38h.379c.928.043 2.066-.042 3.121-.084 2.783-.168 5.398-.295 6.03 1.139 3.585 8.518 1.434 20.03-4.934 26.272-.675.674-1.771.885-3.036.885Zm-8.012-1.813c.927.127 1.939.295 2.909.464 3.121.548 6.368 1.138 7.717 0 6.157-6.03 8.266-17.206 4.766-25.47-.422-.97-3.037-.844-5.314-.718-.97.043-1.94.127-2.825.085-.042 1.054-.127 4.175-.591 7.168-.042.38-.084.802-.126 1.266-.211 2.108-.464 4.47-1.856 5.735-5.102 4.512-14.464 6.03-18.934 1.265-2.404-2.488-.885-5.946.717-9.573.843-1.94 1.729-3.964 2.024-5.903-.928 0-1.94-.085-2.91-.17-2.994-.21-6.114-.42-7.126.886-2.994 4.09-4.302 9.615-5.525 15.013-.21.928-.463 1.898-.674 2.867-.506 2.109 1.054 4.091 2.783 4.892 3.922 1.856 8.392 2.573 13.283 2.15 4.218-.337 8.603-1.517 13.158-3.457l1.054-.464-2.53 3.964Z" fill="#fff"/><path d="m382.061 40.87.043-.464c.126-.928.295-1.855.463-2.783.717-4.133 1.434-8.392-.843-12.271-1.223-2.109-3.627-3.374-6.452-3.29-2.825.043-5.313 1.392-6.368 3.416-.801 1.56-1.349 3.458-1.897 5.23-.97 3.162-1.856 6.114-3.88 7.885-2.024 1.645-5.651 1.392-9.151 1.139-.928-.085-1.898-.127-2.825-.17h-.548l.253-.505c4.259-8.982 5.903-18.386 4.68-27.073l-.042-.464.464.042c1.139.127 2.319.21 3.458.253 2.53.127 5.187.295 7.506 1.18l.043.043c.632.38.801 1.518.969 2.741.043.21.043.38.085.59 2.572-2.319 6.157-3.795 9.91-4.006 4.09-.253 7.928.928 10.795 3.29a9.68 9.68 0 0 1 3.163 2.572c2.277 3.078 3.795 6.873 4.301 10.669.549 4.006-.168 7.633-1.982 10.247-1.096 1.73-4.217 1.687-7.506 1.645-1.434 0-2.91-.042-4.175.084h-.464Zm-6.578-19.525c2.994 0 5.566 1.35 6.874 3.67 2.403 4.09 1.644 8.518.927 12.777-.126.759-.253 1.518-.379 2.32 1.223-.085 2.53-.085 3.837-.043 2.952.042 6.031.084 6.874-1.307 1.687-2.488 2.362-5.946 1.856-9.784-.464-3.669-1.982-7.337-4.175-10.332a8.858 8.858 0 0 0-2.952-2.403h-.042l-.043-.042c-2.741-2.277-6.409-3.374-10.331-3.12-3.838.252-7.422 1.812-9.91 4.258l-.464.464-.127-.632c-.084-.38-.168-.844-.21-1.265-.127-.886-.253-1.94-.591-2.193-2.193-.844-4.639-.97-7.253-1.139-1.012-.042-2.024-.127-3.036-.21 1.096 8.56-.506 17.753-4.597 26.566.759.042 1.518.085 2.277.169 3.374.253 6.874.506 8.645-.97 1.898-1.602 2.741-4.512 3.669-7.548.548-1.814 1.139-3.711 1.94-5.356 1.181-2.235 3.922-3.753 7-3.795.084-.085.127-.085.211-.085Z" fill="#fff"/><path d="m397.2 39.605.084-.464c1.266-8.392-.21-17.5-4.427-27.959-1.265-3.12-2.193-5.229-2.193-5.27l-.169-.38.38-.127c1.012-.253 2.066-.675 3.12-1.054 2.53-.97 4.892-1.856 6.621-1.096 2.024.8 3.036 4.174 3.964 7.168.084.211.126.422.211.633 2.53-2.53 7.211-6.157 12.735-5.524 5.061.38 9.531 3.331 13.242 8.729 2.572 3.837 4.132 6.958 4.891 9.826 1.055 3.88.591 7.295-1.307 10.12-2.446 3.796-6.536 5.44-12.145 4.808-4.765-.506-9.657-2.53-13.031-4.09-.042.252-.042.547-.084.843-.042.8-.084 1.56-.59 1.813-2.32 1.012-4.892 1.265-7.422 1.476-1.139.126-2.277.21-3.374.38l-.506.168Zm-5.693-33.567c.295.759 1.054 2.53 2.024 4.892 4.175 10.331 5.651 19.482 4.513 27.832a70.147 70.147 0 0 1 2.951-.338c2.446-.253 4.977-.463 7.169-1.433.169-.085.169-.802.211-1.223.042-.464.042-.97.169-1.434l.126-.422.38.169c12.693 5.861 20.79 5.777 24.712-.295 4.09-6.115.253-13.453-3.585-19.188-3.584-5.229-7.886-8.054-12.735-8.434-2.404-.253-7.169.127-12.567 5.735l-.422.422-.168-.59c-.127-.38-.253-.801-.38-1.223-.843-2.826-1.855-6.03-3.542-6.705-1.476-.633-3.795.253-6.073 1.096-.927.506-1.897.844-2.783 1.139Zm30.152 22.645h-.338c-.463-.042-1.012-.042-1.56-.084-5.271-.211-12.482-.506-12.314-7.464.211-3.374 3.585-5.736 9.236-6.495 2.235-.168 4.259.675 5.861 2.404 2.067 2.193 3.079 5.567 2.657 8.603-.211 1.813-1.771 3.036-3.542 3.036Zm-13.495-7.506c-.168 6.241 6.368 6.536 11.597 6.705.548.042 1.054.042 1.56.084 1.561.127 2.952-.928 3.205-2.404.422-2.825-.548-5.988-2.488-8.012-1.012-1.096-2.783-2.361-5.313-2.193-5.229.717-8.35 2.826-8.561 5.82Z" fill="#fff"/><path d="m467.793 43.738.042-.422c.084-.506-.085-.97-.253-1.476a4.067 4.067 0 0 1-.211-.675c-2.446 1.097-4.976 1.56-7.548 1.56-6.41 0-13.073-2.825-19.061-5.861-2.235-1.096-3.88-3.627-4.175-6.41-.295-2.53.59-4.807 2.403-6.326 3.248-2.53 7.043-3.247 11.682-2.15 3.5.801 6.958 2.53 10.078 4.175-2.235-3.079-5.651-5.314-9.699-6.368-4.386-1.139-9.109-.76-12.904 1.096l-.337.17-.169-.338c-.717-1.476-1.518-2.994-2.277-4.428-.759-1.434-1.56-2.952-2.277-4.428l-.169-.38.422-.126c.759-.21 1.518-.464 2.235-.675 4.132-1.265 8.349-2.614 12.946-1.77 5.777 1.095 11.048 3.668 15.687 7.632 4.259 3.627 7.886 8.434 10.501 13.916 1.982 3.795 3.71 7.844 5.271 12.271l.168.464-.463.043c-.844.042-1.729.084-2.615.126-2.867.127-5.862.253-8.729.506l-.548-.126Zm.126-3.67.085.465c.042.38.168.674.295 1.012.168.422.295.843.295 1.35 2.741-.212 5.608-.338 8.35-.465.716-.042 1.391-.084 2.108-.084-1.518-4.217-3.163-8.054-5.06-11.723-2.573-5.398-6.157-10.121-10.332-13.663-4.554-3.88-9.699-6.368-15.35-7.464-4.386-.844-8.56.463-12.567 1.729-.59.168-1.223.379-1.855.59.675 1.35 1.392 2.74 2.108 4.048.717 1.35 1.476 2.741 2.151 4.133 3.922-1.771 8.645-2.15 13.073-.97 4.765 1.223 8.645 4.006 10.922 7.844l.675 1.096-1.308-.675c-6.747-3.584-15.139-8.054-22.013-2.656-1.644 1.349-2.403 3.373-2.15 5.692.295 2.53 1.771 4.85 3.795 5.862 8.392 4.26 18.091 8.097 26.399 4.133l.379-.253Zm-7.337-4.427c-1.519 0-3.079-.253-4.639-.548-4.597-1.055-7.169-2.446-7.591-4.133-.126-.464-.084-.886.211-1.139.253-.253.59-.337 1.012-.253.548.043 1.139.127 1.729.17 4.976.505 10.627 1.096 13.916 4.343l.338.337-.422.21c-1.434.76-2.994 1.013-4.554 1.013Zm-4.47-1.265c2.783.548 5.735.928 8.181-.169-3.163-2.783-8.434-3.331-13.115-3.795-.591-.042-1.181-.127-1.772-.169h-.042a.447.447 0 0 0-.337.042c-.084.085-.084.253-.042.464v.042c.253.802 1.434 2.32 7.127 3.585ZM483.48 42.22c-.633 0-1.097-.127-1.392-.464-5.102-6.03-7.843-13.959-10.542-21.634-.591-1.686-1.181-3.415-1.814-5.06l-.126-.337.379-.127c.76-.21 1.519-.506 2.32-.759 2.657-.928 5.355-1.855 7.97-1.518.59.042.801.843 1.054 1.855.085.296.169.633.253.97 1.729-2.91 4.049-4.934 6.79-6.072 4.048-1.476 10.163-3.711 14.169.253 1.012.885 1.94 2.024 2.741 3.373 2.361 4.175 4.343 8.645 6.241 12.989 1.518 3.5 3.121 7.084 4.892 10.542l.211.422-.464.084c-.801.127-1.645.38-2.573.59-2.656.675-5.44 1.35-6.747.17-2.91-2.446-4.386-5.947-5.904-9.657-1.391-3.374-2.867-6.832-5.524-9.489-1.223-1.138-3.078-1.096-5.609.085-2.403 1.054-4.68 3.078-4.09 5.018.928 3.29 2.488 6.367 3.964 9.362 1.054 2.108 2.151 4.259 2.994 6.494l.127.38-.38.126c-.928.253-2.066.632-3.121 1.012-2.488.717-4.512 1.391-5.819 1.391Zm-12.946-27.074c.59 1.56 1.138 3.163 1.687 4.723 2.656 7.591 5.439 15.477 10.416 21.38.674.76 3.879-.337 6.494-1.222.927-.338 1.897-.633 2.783-.928-.843-2.066-1.856-4.09-2.825-6.073-1.519-3.036-3.079-6.156-4.007-9.488-.337-1.138.043-2.361 1.097-3.542.843-.886 2.066-1.73 3.373-2.32 2.826-1.307 4.934-1.265 6.368.085 2.783 2.783 4.259 6.325 5.693 9.741 1.518 3.627 2.952 7.043 5.735 9.404 1.054.928 3.711.253 6.073-.337.717-.169 1.433-.38 2.15-.506-1.686-3.332-3.205-6.79-4.681-10.163-1.897-4.302-3.837-8.772-6.198-12.946-.76-1.266-1.645-2.362-2.615-3.205-3.711-3.67-9.53-1.519-13.41-.127-2.826 1.139-5.103 3.29-6.832 6.41l-.337.59-.295-.59c-.253-.506-.422-1.18-.591-1.771-.126-.464-.295-1.181-.421-1.307-2.446-.338-5.103.59-7.675 1.475-.633.253-1.308.506-1.982.717ZM522.235 36.906c-1.518 0-2.784-.253-3.416-1.096-3.795-4.681-6.705-10.248-8.645-16.53-1.813-5.82-2.783-12.104-2.825-18.682V.176l.421.042c1.097.127 2.362.127 3.543.169 3.036.042 5.903.042 7 1.729 1.771 2.614 2.108 6.072 2.488 9.699.169 1.813.379 3.669.717 5.398.506-.422.97-.886 1.476-1.308a41.64 41.64 0 0 1 3.331-2.783c2.699-2.066 5.482-5.018 5.482-5.06l.085-.085h.126c.928-.084 1.898-.168 2.826-.253 4.301-.38 8.771-.759 13.157-.759h.97l-.717.633c-5.482 4.723-9.91 9.446-13.579 14.464a242.754 242.754 0 0 0 6.41 3.585c4.428 2.488 9.024 5.018 13.41 7.801l.885.548-1.054.085c-1.687.168-3.373.506-5.06.843-3.037.633-6.157 1.265-9.067.717-2.614-.506-4.892-2.277-7.084-3.964-1.687-1.307-3.416-2.657-5.314-3.416-.337.296-1.181 1.603-1.181 2.488.085 1.012.591 2.024 1.139 3.079.379.717.759 1.476 1.012 2.277l.127.464h-.464c-.928 0-1.982.084-2.994.168-1.181.085-2.235.17-3.205.17ZM508.023 1.02c.127 6.368 1.055 12.44 2.784 18.091 1.939 6.2 4.807 11.681 8.56 16.32.801 1.097 3.416.844 5.946.633.886-.085 1.771-.169 2.572-.169-.21-.59-.506-1.139-.801-1.687-.548-1.054-1.096-2.193-1.223-3.331v-.042c0-1.139 1.055-2.826 1.603-3.12.211-.127.379-.085.464-.043 2.024.801 3.837 2.193 5.608 3.584 2.235 1.73 4.302 3.374 6.79 3.838 2.783.548 5.693-.085 8.771-.717a69.487 69.487 0 0 1 4.091-.76c-4.091-2.53-8.392-4.933-12.525-7.21-2.235-1.223-4.512-2.53-6.747-3.796l-.338-.21.211-.338c3.543-4.934 7.886-9.657 13.2-14.295-4.007.042-8.139.421-12.103.759-.886.084-1.814.168-2.699.21-.506.549-3.036 3.163-5.482 5.061-1.139.801-2.235 1.813-3.29 2.741-.632.59-1.307 1.139-1.939 1.687l-.422.38-.127-.549c-.463-1.94-.674-4.048-.885-6.072-.338-3.543-.675-6.916-2.362-9.404-.885-1.35-3.711-1.392-6.41-1.392-1.096-.084-2.235-.084-3.247-.169Z" fill="#fff"/><path d="M573.724 37.707h-.801c-4.892-.126-9.699-1.223-13.874-3.205-3.29-1.56-6.115-3.626-8.35-6.114a22.886 22.886 0 0 1-5.102-9.236c-.633-2.445-.211-4.807 1.307-6.831 2.066-2.783 5.861-4.68 9.741-4.85a297.38 297.38 0 0 1 9.741-1.054c5.061-.801 10.163.886 14.001 4.597 3.964 3.837 5.946 9.277 5.313 14.548l-.042.338-.337-.042c-2.446-.17-4.976-.17-7.422-.17-6.157-.041-12.567-.083-18.471-2.318 2.91 4.512 8.687 4.09 14.254 3.626 2.488-.21 4.807-.38 6.831-.126 2.024.253 3.585 2.952 5.103 5.566.464.76.885 1.518 1.307 2.193l.211.337-.379.169c-3.88 1.687-8.392 2.572-13.031 2.572Zm-4.85-30.826c-.801 0-1.56.042-2.361.169-3.205.295-6.41.674-9.741 1.054h-.043c-3.668.169-7.295 1.94-9.235 4.597-1.349 1.855-1.771 4.006-1.181 6.24.928 3.332 2.573 6.368 4.934 8.94 2.193 2.404 4.934 4.429 8.139 5.947 4.091 1.94 8.771 3.036 13.579 3.12 4.681.085 9.235-.717 13.199-2.403-.379-.59-.717-1.181-1.096-1.856-1.35-2.361-2.868-5.018-4.555-5.187-1.982-.253-4.259-.042-6.705.127-5.861.464-12.482 1.012-15.434-4.892l-.422-.886.886.38c6.03 2.572 12.693 2.614 19.145 2.657 2.362 0 4.765.042 7.127.168.506-4.976-1.434-10.036-5.145-13.62-3.12-2.952-7.042-4.555-11.091-4.555Zm-1.476 13.621c-5.144 0-7.717-1.56-9.024-3.078-.38-.464-.337-.844-.253-1.055.38-.843 2.235-.97 5.229-1.054 1.097-.042 2.151-.042 2.91-.169h.084c2.826.127 4.892.633 6.157 1.476.801.549 2.024 2.067 1.898 2.741a.582.582 0 0 1-.338.422h-.042c-2.572.506-4.765.717-6.621.717Zm-1.054-4.639c-.759.085-1.813.127-2.952.169-1.518.042-4.385.127-4.596.633 0 .042 0 .126.168.295 3.079 3.626 10.416 2.994 14.718 2.192-.169-.421-.886-1.433-1.561-1.897-1.18-.76-3.12-1.223-5.777-1.392ZM605.014 38.509h-.548c-5.482-.127-10.374-2.235-13.79-5.904-2.909-3.12-4.596-7.59-4.301-11.344.253-2.741 1.476-5.018 3.627-6.62 3.753-2.826 8.476-4.428 14-4.808 4.47-.295 9.404.253 14.38 1.602l1.181-8.265h.295c1.603 0 3.247-.084 4.808-.169 2.403-.126 4.891-.253 7.295-.168h.379l-.042.38c-1.518 10.668-1.602 20.831-.295 30.193l.042.337-.337.043c-.717.126-1.476.295-2.193.421-3.163.633-6.452 1.265-9.615 1.139-.506 0-.632-.675-.801-2.193-3.669 3.458-8.729 5.356-14.085 5.356Zm1.392-28.044c-.801 0-1.56.043-2.319.085-5.398.337-9.953 1.897-13.621 4.639-1.982 1.476-3.121 3.584-3.332 6.114-.295 3.585 1.307 7.802 4.091 10.796 3.289 3.542 8.012 5.566 13.283 5.693 5.567.126 10.922-1.898 14.633-5.567l.506-.506.085.717c.042.169.042.38.084.59.084.549.169 1.392.295 1.687 3.036.085 6.241-.548 9.32-1.138.59-.127 1.223-.253 1.855-.38-1.265-9.193-1.181-19.187.295-29.645-2.235-.043-4.596.042-6.831.168-1.518.085-3.036.169-4.555.169l-1.18 8.434-.38-.127c-4.175-1.138-8.349-1.729-12.229-1.729Zm.675 19.863c-2.531 0-4.766-.802-6.621-2.446-1.392-1.223-2.235-3.458-1.94-5.314.211-1.35.97-2.361 2.151-2.867 4.512-1.898 9.741-2.446 14.759-1.603 3.796.717 3.5 4.892 3.416 6.242v.084l-.042.084c-.886 1.56-2.151 2.783-3.753 3.585-2.573 1.35-5.019 2.066-7.296 2.192-.211.043-.421.043-.674.043Zm3.753-11.892c-3.416 0-6.832.674-9.868 1.94-1.223.505-1.603 1.56-1.729 2.319-.253 1.602.464 3.584 1.687 4.639 2.403 2.066 6.747 3.795 13.832.126a7.93 7.93 0 0 0 3.415-3.247c.211-3.332-.674-5.018-2.825-5.398a26.782 26.782 0 0 0-4.512-.38ZM673.372 42.177a82 82 0 0 1-4.934-.168c-4.091-.296-8.73-2.151-9.742-5.525-.506-1.518.506-3.078 1.561-4.765.548-.843 1.138-1.729 1.476-2.614l.21-.506.38.337c2.446 2.235 5.693 3.416 9.699 3.5 3.079.042 6.536-.506 10.543-1.729.042 0 .042-.042.084-.042-.295-.253-1.139-.59-1.729-.717-1.771-.127-3.627 0-5.398.084-2.91.169-5.904.338-8.94-.38-2.657-.716-4.765-2.445-5.988-4.891-1.307-2.699-1.392-6.03-.211-8.898.338-.717.675-1.391 1.097-1.982a9.415 9.415 0 0 1 1.433-1.687c.549-.506 1.265-.927 2.151-1.265a17.65 17.65 0 0 1 2.657-.801c.885-.21 2.024-.337 3.331-.422 1.307-.084 2.615-.168 3.838-.21 1.391-.043 2.909-.085 4.428-.043 1.222.085 2.488.127 3.753.127 4.512.084 9.235.21 13.199 2.699l.337.21-.253.296c-.674.843-1.307 1.94-1.897 3.036-1.139 2.066-2.235 4.048-3.88 4.26-2.699.379-5.82.084-8.771-.212-4.091-.38-8.266-.801-11.766.422 0 .042.042.042.042.084.253.253 1.265.886 5.82.844 4.892-.253 9.319-.338 14 .8 1.687.423 2.91 1.393 3.543 2.869.548 1.222.716 2.825.463 4.554-.21 1.518-.674 3.036-1.391 4.343-1.814 3.754-5.356 6.284-10.501 7.507-2.909.674-5.946.885-8.644.885ZM662.154 29.78c-.379.802-.843 1.56-1.307 2.277-.97 1.519-1.855 2.91-1.476 4.133.548 1.771 2.193 2.91 3.458 3.542 1.603.802 3.627 1.35 5.651 1.476 3.5.253 8.687.422 13.368-.674 4.934-1.181 8.307-3.543 9.994-7.127 1.181-2.32 1.982-5.862.886-8.308-.591-1.265-1.603-2.108-3.079-2.488-4.554-1.096-8.94-1.012-13.789-.759-3.627.042-5.693-.295-6.368-1.054a1.063 1.063 0 0 1-.253-.843l.042-.211.211-.085c3.669-1.391 8.097-.97 12.356-.548 3.078.295 5.988.59 8.645.211 1.307-.169 2.319-1.982 3.373-3.88.548-.97 1.097-1.982 1.729-2.825-3.753-2.193-8.181-2.32-12.482-2.404-1.223-.042-2.53-.042-3.753-.126-1.476 0-2.994 0-4.386.042-1.223.042-2.53.127-3.837.21a25.743 25.743 0 0 0-3.248.423c-.843.168-1.729.421-2.53.759a6.505 6.505 0 0 0-1.94 1.096c-.506.464-.927.97-1.349 1.56-.38.549-.717 1.181-1.012 1.898-1.097 2.699-1.054 5.777.169 8.307 1.096 2.278 3.078 3.88 5.524 4.513 2.952.674 5.904.506 8.729.38 1.813-.085 3.669-.212 5.482-.085h.042c.38.042 2.362.59 2.404 1.392 0 .21-.084.548-.633.716-4.132 1.265-7.632 1.814-10.795 1.771-4.048 0-7.338-1.138-9.826-3.289ZM694.752 37.918l.043-.464c.084-1.096.21-2.193.295-3.247.295-3.458.59-7 1.181-10.542 1.096-6.832 3.036-13.663 3.078-13.706l.084-.253h12.651l-.168.464c-1.265 3.67-1.814 7.59-2.32 11.428-.632 4.766-1.307 9.7-3.415 13.916-.802 1.603-3.964 1.814-7.296 2.025-1.265.084-2.572.168-3.669.337l-.464.042Zm5.187-27.537c-.379 1.307-1.982 7.38-2.994 13.368-.59 3.5-.885 7.085-1.18 10.5l-.253 2.784a40.052 40.052 0 0 1 3.289-.253c2.867-.17 6.072-.38 6.705-1.603 2.024-4.09 2.657-8.73 3.331-13.663.506-3.71 1.012-7.506 2.193-11.09-3.711-.043-7.295-.043-11.091-.043ZM712 8.273h-11.976l.084-6.115H712v6.115Zm-11.217-.717h10.542V2.875h-10.458l-.084 4.68ZM756.405 38.509l-.337-.042c-1.139-.127-2.32-.169-3.458-.253-2.573-.127-5.229-.295-7.633-.97-.084 0-.211-.085-.253-.169-.211-.253-.169-.759.042-2.066-5.06.759-11.259 1.602-17.079 1.223-6.916-.464-11.934-2.615-15.35-6.537-1.771-2.108-2.277-4.85-1.476-7.759 1.097-3.964 4.597-7.717 8.519-9.024 2.066-.928 3.921-1.73 6.03-2.32a26.968 26.968 0 0 1 6.789-.843c4.681 0 8.983.928 12.778 2.699v-8.56h11.85v28.675c0 3.12-.338 5.566-.338 5.566l-.084.38Zm-11.133-1.898c2.319.633 4.765.801 7.38.928 1.012.042 2.066.127 3.12.21a46.6 46.6 0 0 0 .296-5.144V4.646h-10.416v8.983l-.506-.253c-3.838-1.898-8.181-2.868-12.989-2.868-2.319 0-4.554.295-6.578.843-2.067.548-3.922 1.35-5.946 2.277h-.043c-3.71 1.266-7.042 4.808-8.054 8.561-.506 1.898-.717 4.639 1.349 7.085 7.507 8.645 21.802 6.536 32.261 5.018l.463-.084-.084.463c0 .085-.042.211-.042.338-.084.421-.253 1.265-.211 1.602Zm-8.645-7.337c-4.259 0-8.645-.464-11.681-3.543-.759-.759-1.012-1.729-.843-2.867.168-.928.674-1.94 1.391-2.741l.042-.043c1.476-1.307 3.29-1.686 4.85-1.855h.042c.38-.042.801-.127 1.265-.169.506-.042.886-.084 1.139-.084h1.181c6.789 0 10.627 1.434 11.681 4.343l.042.043v3.964l-.042.084c-1.054 1.645-2.404 2.53-4.175 2.783h-.042c-.591 0-1.181.042-1.856.042-1.012 0-2.024.043-2.994.043ZM726 20.587c-1.223 1.349-1.813 3.415-.59 4.638 3.584 3.585 9.193 3.416 14.127 3.29.632 0 1.223-.043 1.813-.043 1.476-.21 2.657-1.012 3.585-2.361v-3.627c-1.012-2.53-4.681-3.837-11.007-3.837h-1.18c-.211 0-.591.042-1.055.084-.464.042-.843.127-1.223.169h-.042c-2.066.253-3.373.759-4.428 1.687ZM775.339 39.563c-5.819 0-11.217-1.73-14.591-7.085-.927-1.223-1.602-2.572-1.982-4.006-.337-1.392-.548-3.036-.548-4.892 0-4.554 1.771-8.18 5.272-10.753 3.457-2.53 8.602-3.795 15.349-3.795 3.29 0 6.242.295 8.645.885 2.446.59 4.639 1.56 6.452 2.868 1.856 1.35 3.205 3.205 4.049 5.524 1.012 2.741.97 5.567-.085 8.308l-.084.21h-.253c-.084 0-7.253.127-13.916.127-5.651 0-11.428-.042-13.115-.042.253.548.801 1.054 1.602 1.56 3.669 1.265 7.549.675 11.302.084 2.868-.463 5.862-.927 8.645-.463 1.138.126 1.771 2.15 2.488 4.47.253.843.548 1.729.801 2.445l.127.38-1.097.337c-5.566 1.73-12.609 3.838-19.061 3.838Zm3.5-29.814c-6.578 0-11.596 1.223-14.928 3.668-3.289 2.404-4.976 5.82-4.976 10.163 0 1.772.169 3.374.506 4.724.338 1.307.97 2.572 1.856 3.753v.042c6.831 10.838 22.476 6.114 32.85 2.994l.38-.127c-.253-.674-.464-1.433-.717-2.15-.506-1.645-1.181-3.922-1.856-3.964-2.656-.422-5.482 0-8.434.464-3.837.59-7.843 1.223-11.681-.127h-.084c-1.265-.759-1.94-1.56-2.109-2.488l-.084-.422h.422c.084 0 6.916.085 13.621.043 5.988 0 12.355-.127 13.663-.127.927-2.53.927-5.018 0-7.59-.801-2.194-2.067-3.923-3.796-5.188-1.729-1.265-3.837-2.192-6.199-2.783-2.319-.59-5.186-.885-8.434-.885Zm8.73 12.313h-17.88v-.337c0-.464.168-.928.463-1.35.296-.421.717-.843 1.35-1.265.632-.421 1.56-.759 2.867-1.054 1.266-.253 2.826-.38 4.597-.38 3.078 0 5.229.38 6.579 1.097 1.391.76 2.066 1.771 2.066 2.952v.337h-.042Zm-17.121-.717h16.362c-.127-.759-.675-1.391-1.687-1.982-1.223-.674-3.289-1.012-6.241-1.012-1.729 0-3.205.127-4.428.38-1.181.253-2.067.548-2.615.928s-.928.716-1.138 1.096c-.085.169-.169.38-.253.59Z" fill="#fff"/></svg>