<svg width="400" height="63" fill="none" xmlns="http://www.w3.org/2000/svg"><path d="M10.368 18.528c-1.792 0-3.374-.274-4.702-.802-1.329-.527-2.32-1.201-2.952-1.982-.612-.759-1.118-1.539-1.476-2.298-.358-.759-.57-1.434-.611-1.982l-.127-.99h5.84v.168c0 .021 0 .063.022.126 0 .042.02.148.084.401.063.21.126.4.21.59a2.93 2.93 0 0 0 1.075 1.16c.254.169.592.295 1.013.4.422.106.907.17 1.434.17.527 0 1.012-.043 1.455-.127.422-.085.78-.19 1.054-.316.274-.127.506-.275.696-.422.19-.148.316-.295.4-.443.085-.169.17-.316.232-.443.064-.126.085-.21.106-.274V7.268H7.353l.063-5.882h.19c1.77.063 3.584.105 5.334.147 2.889.064 5.883.127 8.835.317l.295.02-.169.254c-.97 1.518-1.581 2.994-1.834 4.343v4.892c0 .105 0 .253-.021.443s-.084.506-.211.99a9 9 0 0 1-.57 1.413c-.231.443-.59.949-1.075 1.497a7.207 7.207 0 0 1-1.729 1.434c-.653.4-1.539.738-2.593 1.012-1.033.253-2.214.38-3.5.38ZM.9 10.832l.063.59c.042.506.253 1.139.59 1.855.338.738.823 1.476 1.434 2.235.59.738 1.54 1.371 2.825 1.877 1.287.506 2.826.78 4.555.78 1.265 0 2.425-.126 3.437-.4 1.033-.253 1.855-.59 2.488-.97a7.4 7.4 0 0 0 1.644-1.35c.464-.527.802-.99 1.012-1.434.211-.421.38-.885.506-1.349.127-.464.19-.78.211-.949.021-.168.021-.295.021-.4V6.404c.253-1.329.823-2.762 1.73-4.238-2.826-.169-5.694-.232-8.498-.295-1.687-.043-3.437-.085-5.145-.148l-.063 5.166h6.768v4.66a2.53 2.53 0 0 1-.126.358 3.465 3.465 0 0 1-.253.464c-.106.19-.274.38-.506.548-.211.169-.464.316-.76.464-.294.148-.674.253-1.138.358-.464.085-.97.127-1.518.127a6.69 6.69 0 0 1-1.518-.169 3.243 3.243 0 0 1-1.118-.464c-.274-.19-.527-.4-.738-.653a3.537 3.537 0 0 1-.463-.675 5.597 5.597 0 0 1-.232-.633c-.064-.231-.085-.38-.106-.463H.901v.02ZM31.453 18.675c-1.687 0-3.163-.126-4.365-.358-1.223-.253-2.32-.633-3.226-1.181a5.084 5.084 0 0 1-2.066-2.256c-.443-.949-.675-2.088-.675-3.416 0-1.138.19-2.15.548-3.015.359-.864.865-1.581 1.476-2.108.549-.485 1.413-.844 2.72-1.139a31.524 31.524 0 0 1 3.247-.59c.95-.106 1.982-.169 3.31-.211 1.814-.063 3.712-.085 5.399.38 2.066.569 3.268 1.792 3.563 3.626.38.864.59 1.898.59 3.057 0 1.329-.253 2.488-.717 3.437-.485.949-1.223 1.708-2.171 2.277-.95.548-2.046.928-3.269 1.18-1.244.19-2.699.317-4.364.317Zm2.53-13.979c-.527 0-1.033.021-1.56.021a41.22 41.22 0 0 0-3.268.21c-.991.106-2.067.317-3.205.57-1.244.295-2.067.633-2.573 1.076-.569.484-1.033 1.16-1.37 1.981-.359.823-.527 1.793-.527 2.89 0 1.285.21 2.382.632 3.267.422.886 1.076 1.582 1.94 2.109.864.527 1.919.906 3.1 1.138 1.201.232 2.635.359 4.3.359 1.624 0 3.058-.106 4.26-.338 1.18-.232 2.256-.611 3.163-1.138.885-.506 1.581-1.223 2.024-2.13.464-.906.696-2.003.696-3.268 0-1.117-.19-2.108-.57-2.93V8.47c-.274-1.73-1.37-2.826-3.31-3.374-1.16-.317-2.446-.401-3.732-.401Zm-2.467 10.036c-1.497 0-2.614-.274-3.331-.822-.738-.57-1.118-1.434-1.118-2.593 0-.464.106-.907.295-1.287.19-.38.443-.695.738-.927a3.868 3.868 0 0 1 1.055-.57c.4-.147.78-.253 1.16-.316.379-.063.758-.084 1.138-.084a8.19 8.19 0 0 1 1.476.126c.464.085.949.253 1.434.464.506.211.906.57 1.223 1.033.295.464.463 1.034.463 1.687 0 1.202-.4 2.066-1.202 2.551-.78.506-1.897.738-3.33.738Zm-.084-6.24c-.359 0-.717.02-1.076.084a5.667 5.667 0 0 0-1.096.295 3.443 3.443 0 0 0-.949.527c-.253.21-.485.485-.654.822a2.51 2.51 0 0 0-.253 1.139c0 1.054.317 1.813.97 2.298.654.506 1.708.759 3.121.759 1.37 0 2.425-.232 3.12-.675.696-.442 1.034-1.18 1.034-2.256 0-.59-.127-1.096-.4-1.497a2.564 2.564 0 0 0-1.055-.906 5.838 5.838 0 0 0-1.35-.422c-.442-.127-.906-.169-1.412-.169ZM48.932 18.527h-5.946v-7.126c.085-3.416 1.898-6.579 1.92-6.6l.062-.084 5.989.169-.085.232c-.02.042-1.075 3.268-1.94 6.325v7.084Zm-5.587-.358h5.229v-6.81c.738-2.594 1.623-5.335 1.877-6.136l-5.314-.148c-.295.527-1.729 3.332-1.813 6.347l.02 6.747Zm7.949-14.042-6.03-.064 1.033-2.91 5.988-.231-.991 3.205Zm-5.524-.401 5.27.042.76-2.467-5.25.19-.78 2.235ZM69.638 18.527h-5.946v-4.976c0-.4.105-.674.19-.8l.126-.19c.4-.675.949-1.582.78-2.236-.063-.252-.232-.442-.527-.59-1.897-1.054-4.238-1.033-5.967.084-1.497.97-2.256 2.594-2.108 4.491V18.527h-5.989v-.168c0-.042 0-3.521.528-6.768.126-.612.19-1.287.231-1.94.17-1.708.317-3.48 1.455-4.344.991-.717 2.488-.548 4.07-.358.717.084 1.434.169 2.108.169h.317l-.148.274c-.127.232-.21.464-.316.717-.042.126-.106.274-.148.4 4.26-1.244 9.467-2.678 13.41.127l.021.02c.422.422.654.928.675 1.498-.021.717-.4 1.581-1.244 2.91-.654 1.412-1.16 3.436-1.54 6.177v1.287h.022Zm-5.588-.358h5.23v-.949c.379-2.783.885-4.85 1.56-6.304l.02-.021c.802-1.265 1.16-2.088 1.182-2.72a1.78 1.78 0 0 0-.549-1.244c-3.9-2.783-9.193-1.223-13.43.02l-.465.127.211-.38c.127-.231.211-.463.316-.716.064-.169.127-.337.211-.506-.611-.021-1.244-.105-1.876-.169-1.518-.19-2.952-.358-3.817.274-1.012.78-1.16 2.446-1.328 4.09-.063.655-.127 1.35-.253 1.962-.464 2.804-.527 5.777-.527 6.536h5.271v-3.837c-.169-2.025.654-3.775 2.256-4.808 1.835-1.18 4.323-1.223 6.326-.105.38.19.611.464.695.801.211.801-.379 1.792-.822 2.51a.854.854 0 0 0-.105.189c-.042.063-.127.295-.127.611v4.639h.021ZM91.081 18.78c-1.455 0-2.888-.231-4.259-.885-.97-.443-.464-1.687-.232-2.298.211-.485.4-.991.612-1.476.695-1.666 1.433-3.374 1.834-5.124-.57.063-1.139.169-1.708.253-.295.042-.59.106-.885.148l-.232.042.02-.232c.043-.337.064-.675.064-1.012.063-1.054.105-2.13.675-2.93.295-.38.864-.507 1.412-.612.443-.085.886-.169 1.097-.4.316-.423.168-1.308.042-2.088-.021-.148-.042-.295-.063-.422l-.042-.19h.19c.484-.02 1.011-.084 1.517-.126 1.371-.148 2.763-.316 3.859.232.38.19.443.822.485 1.497.021.316.084.949.19.99h.02c1.287.549 2.995.36 4.64.19.463-.042.948-.105 1.412-.126l.211-.021-.021.21c-.148 1.561-.148 3.163-.148 4.703v.19l-.189-.022a28.375 28.375 0 0 1-1.877-.21c-1.623-.232-3.29-.443-4.364.19-.57.379-1.455 1.58-1.624 2.698-.084.59.021 1.097.316 1.476.127.063.295.105.527.148 1.603.253 3.31.21 5.06-.148l.19-.042.022.19c.105.653.189 1.328.295 1.96.084.654.168 1.329.295 1.961l.042.211h-.211c-1.412.042-2.888.295-4.301.527-1.602.274-3.247.549-4.87.549ZM89.5 8.598l-.042.232c-.4 1.876-1.16 3.668-1.898 5.418-.21.485-.422.97-.611 1.455-.38.928-.506 1.582.042 1.835 2.762 1.328 5.904.822 8.919.316 1.37-.232 2.783-.464 4.154-.527-.085-.59-.17-1.181-.253-1.771-.085-.59-.17-1.202-.254-1.771-1.728.337-3.415.379-4.997.126-.295-.042-.506-.105-.695-.21l-.022-.022-.02-.021c-.38-.485-.528-1.075-.422-1.792.19-1.265 1.18-2.551 1.77-2.952 1.203-.717 2.932-.464 4.597-.232a22.41 22.41 0 0 0 1.666.19c0-1.413 0-2.889.127-4.323-.401.021-.802.064-1.202.106-1.687.168-3.437.358-4.808-.211-.358-.105-.4-.654-.442-1.307-.043-.464-.085-1.097-.296-1.202-.99-.485-2.34-.337-3.647-.19-.443.042-.907.106-1.35.127.021.063.021.147.042.232.148.885.317 1.813-.105 2.361-.274.316-.801.422-1.307.527-.485.084-.97.19-1.202.464-.506.717-.548 1.687-.612 2.72-.02.274-.02.548-.042.801.211-.042.443-.084.654-.105.653-.106 1.35-.232 1.982-.274h.274ZM119.947 19.814a21.48 21.48 0 0 1-1.645-.064c-.527-.02-1.075-.063-1.581-.063h-.211l.042-.21c.169-.76.38-1.54.59-2.278.338-1.223.696-2.509.844-3.774.063-1.012-.38-1.877-1.181-2.172-2.425-.885-5.482-.99-6.789.802-.612.843-.991 1.897-1.371 2.91-.548 1.454-1.096 2.972-2.319 3.837-.97.674-2.594.4-4.175.126-.506-.084-1.033-.19-1.518-.232l-.274-.02.147-.233c1.561-2.446 2.615-5.313 3.079-8.265.443-2.93.316-5.967-.38-8.813l-.084-.338.316.127c.527.21 1.118.358 1.687.506 1.181.295 2.425.611 3.184 1.476.78.927.97 2.256 1.181 3.52.063.465.147.929.232 1.371 1.792-1.117 3.985-1.813 6.051-1.94 1.75-.105 4.238.148 6.094 1.983a6.773 6.773 0 0 1 1.18 1.644c.907 1.518 1.497 3.31 1.624 4.955.126 1.94-.401 3.437-1.518 4.365-.802.632-1.961.78-3.205.78Zm-3.015-.464c.442 0 .927.02 1.391.042 1.75.084 3.585.169 4.576-.654.717-.59 1.56-1.77 1.391-4.069-.105-1.581-.674-3.331-1.56-4.807a6.299 6.299 0 0 0-1.139-1.56c-1.771-1.73-4.132-1.983-5.819-1.877-2.087.126-4.301.864-6.094 2.024l-.21.127-.064-.232c-.126-.527-.211-1.097-.295-1.645-.19-1.223-.379-2.488-1.096-3.352-.675-.78-1.814-1.055-2.994-1.371-.464-.126-.949-.253-1.413-.4.653 2.783.759 5.756.316 8.623a22.194 22.194 0 0 1-2.973 8.181c.422.063.844.127 1.265.21 1.497.254 3.058.528 3.901-.062 1.117-.802 1.645-2.193 2.193-3.67.379-1.032.78-2.129 1.413-2.993.674-.928 1.813-1.455 3.289-1.54 1.202-.084 2.593.148 3.922.633.927.359 1.497 1.35 1.412 2.53-.126 1.308-.506 2.594-.843 3.838-.211.653-.422 1.328-.569 2.024ZM142.255 19.898c-.675 0-1.329-.063-1.898-.127-1.497-.168-3.015-.147-4.47-.126-1.602.021-3.247.063-4.892-.169-3.31-.464-4.617-2.024-5.144-3.247-.759-1.792-.886-3.795-.359-5.608.548-1.877 1.771-3.437 3.437-4.386.928-.611 2.109-1.202 3.458-1.708 1.75-.843 3.521-.906 5.25-.168 1.624.695 3.226 2.087 4.618 4.069a21.551 21.551 0 0 1 2.783 5.524l.084.253h-.253l-1.961-.063c-3.5-.148-7.105-.274-10.584.337 1.771.844 3.943.612 6.051.38 1.518-.169 3.1-.338 4.47-.085.949.232 1.645 1.645 2.298 3.016.19.4.401.843.612 1.201l.084.169-.168.084c-1.16.506-2.341.654-3.416.654Zm-4.765-.633c.948 0 1.918.021 2.888.148 1.413.169 3.247.274 4.955-.422-.168-.337-.358-.695-.527-1.054-.632-1.286-1.265-2.636-2.045-2.825-1.307-.253-2.783-.085-4.365.084-2.34.253-4.765.506-6.705-.675l-.379-.232.442-.084c3.669-.738 7.486-.59 11.176-.443l1.686.064c-1.244-3.606-3.879-7.76-7.126-9.13-1.645-.696-3.311-.633-4.976.169h-.022c-1.349.506-2.488 1.075-3.394 1.665-1.582.928-2.762 2.404-3.268 4.196-.506 1.73-.38 3.627.337 5.356.485 1.138 1.729 2.593 4.871 3.036 1.623.21 3.247.19 4.828.169.527 0 1.075-.021 1.624-.021Zm-6.052-7.358c-.147 0-.232-.063-.274-.19-.063-.232.169-.654.38-.949.274-.38.59-.717.864-.906.654-.4 1.371-.696 2.235-.97 1.181-.316 2.214-.211 3.057.337l.022.021.379.316c.464.359.928.739 1.054 1.413l.043.232-.232-.021c-1.434-.169-2.889.084-4.302.337-1.054.19-2.172.38-3.226.38Zm1.16-1.75c-.485.337-1.033 1.117-1.097 1.392 1.013 0 2.025-.19 3.121-.38 1.349-.232 2.741-.485 4.154-.359-.148-.4-.506-.674-.865-.948-.126-.106-.274-.211-.4-.338-.759-.485-1.687-.569-2.762-.295-.844.253-1.519.548-2.151.928ZM164.015 19.076h-.127c-1.687-.021-3.141-.633-4.217-1.73-3.205-3.14-5.208-7.084-7.148-10.9-.442-.886-.927-1.813-1.391-2.72l-.127-.21.253-.043c.422-.063.865-.169 1.308-.274 1.433-.316 2.909-.654 3.626-.042 1.371 1.16 2.045 2.846 2.762 4.638.78 1.94 1.582 3.964 3.374 5.23.949.653 1.898.505 2.509.274 1.202-.464 2.235-1.645 2.594-2.973l-2.404-8.14h.253c.527.022 1.138-.02 1.729-.041 1.476-.085 2.741-.148 3.099.485 1.518 2.91 2.509 6.114 3.458 9.214.633 2.045 1.265 4.153 2.067 6.156l.105.253h-.253c-.443 0-.886.021-1.307.064-1.139.063-2.32.147-3.332-.274-.506-.19-.696-.928-.885-1.624-.021-.063-.042-.148-.064-.21-.337.78-.843 1.349-1.475 1.686-1.392.759-2.931 1.18-4.407 1.18Zm-12.44-15.287c.442.823.864 1.687 1.286 2.51 1.918 3.795 3.9 7.716 7.063 10.816 2.214 2.298 5.862 1.855 8.287.464.843-.464 1.265-1.329 1.497-1.982l.168-.485.169.485c.084.21.148.464.211.717.169.59.337 1.265.675 1.391.948.4 2.024.338 3.183.253.359-.02.717-.042 1.076-.063-.759-1.94-1.371-3.985-1.982-5.946-.949-3.1-1.919-6.283-3.416-9.15-.232-.444-1.581-.36-2.762-.296-.506.021-1.033.063-1.518.063l2.298 7.738-.021.043c-.358 1.476-1.476 2.762-2.825 3.268-.991.38-2.004.274-2.847-.316-1.876-1.329-2.699-3.395-3.5-5.377-.696-1.75-1.349-3.395-2.657-4.491-.569-.485-1.961-.169-3.31.126a25.23 25.23 0 0 1-1.075.232Z" fill="#fff"/><path d="M190.181 19.308c-.78 0-1.455-.106-1.834-.464-1.413-1.518-1.94-3.606-2.488-5.82-.253-1.054-.527-2.15-.907-3.162-.527-1.56-1.792-2.235-2.825-2.235-.991 0-2.13.421-2.699 1.033-.295.316-.422.654-.422 1.012.211 2.425 1.075 4.87 1.877 7.232.232.654.463 1.35.674 2.003l.085.274-.274-.042c-.401-.063-.865-.084-1.308-.105-1.37-.106-2.783-.19-3.331-.97-2.91-4.512-4.048-9.425-5.25-15.35l-.042-.253.253.042c.59.106 1.201.19 1.792.253 1.307.148 2.678.316 3.816.907l.021.02c.295.212.338.823.38 1.477v.042c1.455-1.476 3.669-2.383 5.84-2.383h.021c2.004 0 3.775.76 4.955 2.13a6.93 6.93 0 0 1 1.076 1.898c.611 1.729 1.075 3.5 1.539 5.25.59 2.277 1.223 4.617 2.151 6.81l.105.232-.253.021c-.38.021-.78.042-1.202.084-.569.021-1.202.064-1.75.064Zm-1.602-.696c.548.485 2.045.358 3.373.253.338-.021.654-.063.949-.084-.885-2.151-1.497-4.428-2.066-6.621-.464-1.729-.928-3.5-1.539-5.208-.275-.675-.612-1.286-1.034-1.792-1.117-1.286-2.783-2.003-4.68-2.003-2.236 0-4.492.97-5.883 2.551l-.274.295-.042-.4c-.022-.148-.022-.296-.043-.443-.042-.422-.084-1.076-.232-1.202-1.096-.57-2.403-.717-3.689-.864-.507-.064-1.055-.127-1.561-.211 1.16 5.798 2.298 10.584 5.145 14.97.422.611 1.771.717 3.057.801.359.021.696.042 1.055.084-.19-.59-.401-1.18-.591-1.75-.822-2.382-1.666-4.85-1.897-7.316a1.648 1.648 0 0 1 .506-1.265c.632-.675 1.855-1.139 2.951-1.139 1.624 0 2.763 1.244 3.163 2.488.38 1.033.654 2.13.928 3.205.548 2.15 1.054 4.196 2.404 5.65ZM195.452 18.991c-.379 0-.695-.084-.864-.295-3.331-4.175-3.437-10.036-3.142-14.696.127-1.623.295-2.699.295-2.72l.022-.147h.147c.865 0 1.729-.106 2.573-.211.906-.106 1.855-.232 2.825-.232h.19l-.021.19c-.064.716-.148 1.454-.211 2.171l-.19 1.835c3.753-2.088 8.455-2.467 12.63-1.055 1.307.443 2.446 1.287 3.205 2.425a5.8 5.8 0 0 1 .991 3.922v.042c-.148 1.328-.295 2.699-1.434 3.521-1.876 1.455-4.154 2.467-6.6 2.931-2.319.443-4.659.358-6.81-.232.042.105.084.19.126.295.211.506.338.823.106.95-.759.463-1.792.906-2.678 1.138-.337.084-.759.168-1.16.168Zm-3.394-17.5c-.042.337-.169 1.265-.253 2.53-.274 4.576-.19 10.374 3.078 14.443.38.485 2.594-.105 4.196-1.075-.021-.127-.126-.358-.19-.548-.084-.232-.189-.464-.253-.654l-.084-.316.316.084c2.172.654 4.597.76 6.979.316 2.383-.442 4.618-1.433 6.452-2.867 1.012-.738 1.139-2.024 1.287-3.268v-.021a5.534 5.534 0 0 0-.928-3.67 5.912 5.912 0 0 0-3.015-2.276c-4.196-1.434-8.919-.97-12.651 1.202l-.296.168.043-.358c.063-.717.147-1.455.21-2.172l.19-1.982c-.885.021-1.75.127-2.593.232-.823.106-1.645.21-2.488.232Zm8.961 11.512h-1.624a2.12 2.12 0 0 1-1.518-.632c-.548-.57-.843-1.455-.822-2.383v-.042c.337-1.581 2.256-2.593 5.693-3.036 1.391-.19 2.973-.295 3.943.97.569.822.738 1.729.443 2.446-.865 2.424-3.711 2.677-6.115 2.677Zm-3.627-3.036c-.021.822.253 1.624.717 2.109.338.358.78.527 1.265.527h.759c2.573.042 5.778.063 6.642-2.467.253-.612.084-1.392-.4-2.109-.844-1.096-2.236-1.012-3.606-.822-3.247.443-5.06 1.37-5.377 2.762ZM233.616 20.088l-.232-.085a18.485 18.485 0 0 0-1.539-.442c-1.118-.296-2.277-.612-3.268-1.244-.232-.17-.211-.57-.169-1.055 0-.042 0-.105.021-.147-1.623.78-3.5 1.202-5.419 1.202a13.38 13.38 0 0 1-5.693-1.265c-1.476-.696-2.762-2.172-3.12-3.606-.232-.907-.085-1.75.421-2.446 1.35-1.813 3.501-2.657 6.41-2.53 2.615.105 5.229 1.012 6.79 1.645-1.455-2.615-5.145-2.446-8.413-2.299-1.139.064-2.235.106-3.163.043h-.021c-.443-.064-.696-.823-1.075-2.046-.106-.38-.232-.759-.359-1.075l-.063-.169.169-.063c3.141-1.18 6.409-1.687 9.446-1.434 3.437.274 6.452 1.54 8.729 3.606 1.518 1.391 1.265 3.584 1.012 5.503-.021.148-.042.295-.063.464a82.44 82.44 0 0 0-.422 7.21l.021.233Zm-4.828-3.585v.296c0 .147-.021.316-.021.484-.022.232-.043.654.021.738.948.612 2.066.907 3.162 1.202.443.127.886.232 1.329.38.042-2.994.253-5.293.421-7 .022-.148.043-.317.064-.464.232-1.856.485-3.943-.907-5.208-2.214-2.024-5.166-3.247-8.518-3.521-2.952-.232-6.094.232-9.13 1.35.105.294.211.61.295.927.211.653.527 1.75.78 1.792.907.063 1.982.021 3.1-.042 3.542-.169 7.569-.359 8.961 2.93l.169.401-.401-.168c-1.455-.633-4.28-1.687-7.106-1.814-2.783-.126-4.828.675-6.114 2.404-.443.59-.57 1.328-.359 2.15.337 1.35 1.539 2.72 2.931 3.374a12.992 12.992 0 0 0 5.524 1.244c1.982 0 3.901-.443 5.525-1.307l.274-.148Zm-5.419-1.96c-2.383-.148-3.479-.612-3.5-1.434v-.085l.063-.063c1.961-1.581 5.566-.864 8.307.337l.211.085-.147.19c-.802 1.033-2.32.99-3.669.97-.422-.022-.865-.043-1.265 0Zm-3.121-1.371c.084.38.717.843 3.121 1.012.4-.042.843-.021 1.286-.021 1.223.02 2.488.042 3.205-.654-.844-.358-2.298-.885-3.88-1.054-1.602-.19-2.867.063-3.732.717ZM234.143 20.214l.022-.717c.147-5.144.274-10.458 2.656-14.78.401-.696 1.835-.675 3.5-.633.654 0 1.35.021 1.94-.02l.232-.022-.042.232c-.105.485-.253.991-.422 1.476 1.708-1.054 3.732-1.687 5.735-1.834 2.362-.169 4.534.358 6.263 1.539l.021.021.021.021c.358.4.569.907.632 1.476.085.253.064.485.064.717 0 .084-.021.19-.021.274v.021c-.106.696-.19 1.413-.253 2.13-.254 2.256-.507 4.575-1.561 6.304-.611.886-2.298.97-3.922 1.075-.632.042-1.286.064-1.834.148l-.19.02-.021-.189c-.147-1.117.106-2.32.359-3.479.379-1.876.759-3.668-.506-4.85-.675-.674-1.666-.948-2.805-.758-1.434.232-2.783 1.117-3.352 2.214-.633 1.307-.696 2.846-.759 4.322-.064 1.518-.127 2.93-.738 4.111-.422.844-2.404.991-4.133 1.118-.232.021-.443.042-.654.042l-.232.021Zm5.335-15.792c-1.096 0-2.109.063-2.34.464-2.32 4.238-2.467 9.509-2.615 14.611v.317c.148-.021.295-.021.464-.043 1.476-.105 3.521-.253 3.837-.927.591-1.097.633-2.488.696-3.964.063-1.518.127-3.1.801-4.47.633-1.202 2.067-2.172 3.627-2.404 1.244-.19 2.34.106 3.099.865 1.392 1.307.991 3.268.612 5.165-.211 1.076-.443 2.193-.358 3.184a21.026 21.026 0 0 1 1.686-.126c1.54-.085 3.121-.169 3.648-.907 1.012-1.645 1.265-3.943 1.497-6.157.084-.696.148-1.433.253-2.13 0-.105 0-.189.021-.294.021-.211.021-.401-.042-.612v-.042a2.21 2.21 0 0 0-.527-1.265c-1.666-1.118-3.732-1.624-6.009-1.476-2.13.147-4.26.885-5.989 2.045l-.442.295.168-.506c.19-.548.38-1.117.506-1.687-.548.022-1.138.022-1.729 0-.316.064-.59.064-.864.064ZM270.114 17.937c-1.18 0-2.319-.105-3.394-.464-.823-.253-1.434-1.054-2.003-1.813-.591-.76-1.139-1.476-1.835-1.603-.4-.084-.801.022-1.159.317-.717.57-1.223 1.75-1.265 2.952v.21l-.211-.042c-.612-.126-1.371-.168-2.109-.232-1.56-.105-2.931-.21-3.099-.906-.928-3.142.4-6.579 1.708-9.889.316-.801.632-1.645.906-2.446.443-1.413.464-2.425.464-2.446v-.168h5.925v.168c0 .021 0 2.088-.485 3.964-.337 1.329-.654 2.678-.822 3.31.674-.4 2.171-1.265 3.669-2.108a24.61 24.61 0 0 0 3.563-2.425l.042-.042h8.16l-.358.316c-.022.022-2.025 1.75-4.049 3.48v.02h-.021c-.295.148-.569.317-.864.464a251.025 251.025 0 0 0-4.491 2.488 66.47 66.47 0 0 0 6.62 6.473l.401.338-.527-.021c-.928-.043-1.898 0-2.826.042-.632.042-1.286.063-1.94.063Zm-7.506-4.28c.106 0 .211.021.316.042.823.148 1.455.97 2.046 1.75.548.717 1.117 1.455 1.834 1.687 1.603.548 3.458.464 5.229.38.78-.043 1.582-.064 2.362-.064-2.362-2.045-4.534-4.175-6.41-6.325l-.148-.169.19-.105a150.12 150.12 0 0 1 4.681-2.594c.274-.147.569-.316.843-.464 1.497-1.286 2.994-2.572 3.669-3.162h-7.084c-.296.232-1.75 1.412-3.564 2.403a108.888 108.888 0 0 0-4.027 2.32l-.358.21.105-.421c0-.021.443-1.877.907-3.732.379-1.518.442-3.163.463-3.69h-5.229a10.084 10.084 0 0 1-.464 2.382c-.274.802-.611 1.645-.927 2.467-1.265 3.269-2.594 6.642-1.687 9.678.105.443 1.518.549 2.783.633.675.042 1.35.105 1.961.19.106-1.244.633-2.404 1.392-3.016.337-.252.738-.4 1.117-.4Z" fill="#fff"/><path d="M281.964 17.726c-.906 0-1.813-.02-2.699-.042-1.897-.042-3.774-1.117-4.659-2.657-.696-1.201-.696-2.572 0-3.837.653-2.235 1.897-4.027 3.689-5.334 1.729-1.265 4.302-1.898 7.675-1.898 1.645 0 3.121.148 4.323.443 1.223.295 2.319.78 3.226 1.434.928.674 1.602 1.602 2.024 2.762.422 1.138.569 2.53.443 4.132l-.021.169h-.169c-.042 0-3.711-.063-7.675-.19-2.572-.063-5.039-.063-7.654-.063.148.485.654.632 1.371.717 1.813.232 3.605.084 5.355-.063 1.94-.17 3.964-.317 5.946.063.696.105 1.097.99 1.539 1.918.232.485.443.97.717 1.371l.169.253-.295.042c-4.47.506-8.94.78-13.305.78Zm3.985-13.41c-3.289 0-5.798.612-7.464 1.835-1.729 1.265-2.931 3.015-3.563 5.166V11.359c-.823 1.497-.464 2.74-.021 3.52.822 1.414 2.614 2.426 4.364 2.468 5.103.126 10.374-.127 15.688-.76-.211-.358-.401-.78-.591-1.159-.4-.843-.759-1.645-1.265-1.729-1.94-.38-3.837-.21-5.862-.063-1.771.148-3.584.295-5.418.063-.528-.063-1.645-.19-1.729-1.244l-.021-.19h.189c2.678 0 5.229 0 7.865.064 3.479.126 6.747.19 7.506.19.106-1.477-.042-2.763-.442-3.817-.401-1.096-1.034-1.96-1.898-2.593-.865-.633-1.919-1.097-3.1-1.392-1.18-.274-2.593-.4-4.238-.4Zm4.386 6.136h-.19c-.021 0-2.214-.021-4.554-.063-.822-.063-1.687-.042-2.509-.021-.717.02-1.455.02-2.172 0l-.274-.021.105-.232c.527-1.118 1.814-1.434 2.973-1.645.633-.126 1.392-.19 2.277-.19 1.54 0 2.615.19 3.29.549.696.38 1.033.885 1.033 1.476v.147h.021Zm-4.723-.443c1.94.043 3.774.064 4.365.064-.064-.38-.338-.696-.844-.991-.611-.338-1.645-.506-3.12-.506-.865 0-1.603.063-2.214.19-.991.168-2.046.421-2.573 1.201.633.021 1.244 0 1.856 0 .822 0 1.687 0 2.53.042ZM303.85 18.823c-1.307 0-2.466-.211-3.436-.633a5.51 5.51 0 0 1-2.741-2.572c-.317-.506-.57-1.118-.781-1.877a10.102 10.102 0 0 1-.295-2.488c0-1.138.253-2.193.759-3.1.506-.906 1.181-1.644 2.046-2.192a9.765 9.765 0 0 1 2.867-1.244 13.487 13.487 0 0 1 3.395-.422c2.34 0 4.491.464 6.389 1.35v-4.26h5.924v8.56c0 4.155-.379 8.203-.379 8.245l-.021.169h-.169c-2.045-.021-4.027-.021-6.114-.021h-.232l.063-.232c.063-.253.147-.485.211-.717.042-.106.063-.232.105-.337-1.392.611-4.28 1.686-7.232 1.77h-.359Zm1.793-14.148c-1.16 0-2.277.147-3.29.421-1.033.275-1.96.675-2.762 1.202a5.81 5.81 0 0 0-1.918 2.067c-.464.864-.717 1.834-.717 2.93 0 .886.084 1.687.274 2.383s.443 1.307.738 1.771v.021c1.096 2.088 3.184 3.1 6.199 3.015 3.163-.084 6.262-1.35 7.464-1.897l.358-.169-.105.38c-.063.253-.148.484-.211.716-.042.148-.105.317-.148.485 1.961 0 3.817 0 5.715.021.063-.8.358-4.385.358-8.054V1.744h-5.208v4.491l-.253-.126c-1.919-.95-4.112-1.434-6.494-1.434Zm1.223 9.804c-2.868 0-4.323-1.012-4.323-3.036 0-.358.042-.696.106-1.012.084-.316.189-.57.358-.78.148-.19.295-.38.464-.527.169-.169.38-.296.633-.38.231-.084.442-.169.611-.21a4.25 4.25 0 0 1 .654-.106c.253-.021.442-.042.569-.042h.59c3.395 0 5.314.717 5.841 2.171l.021.021v1.982l-.021.043c-.485.759-1.139 1.265-1.961 1.497-.78.253-1.982.38-3.542.38Zm-.928-5.735c-.106 0-.295.021-.527.042a3.357 3.357 0 0 0-.591.106 6.185 6.185 0 0 0-.59.19c-.211.084-.379.19-.506.316a2.408 2.408 0 0 0-.422.485c-.126.168-.232.4-.295.653-.063.274-.105.59-.105.907 0 1.792 1.307 2.678 3.964 2.678 1.518 0 2.677-.106 3.437-.338.716-.21 1.286-.653 1.729-1.307v-1.813c-.507-1.265-2.341-1.919-5.504-1.919h-.59ZM339.822 19.055c-4.977 0-7.823-.401-8.73-1.244l-.084-.085 1.687-4.301.19.126c.253.169.927.401 2.741.612a39.43 39.43 0 0 0 4.406.253h1.055c1.307 0 2.192-.021 2.593-.063.316-.021.464-.106.464-.17 0-.104-.211-.61-4.47-.61-1.265 0-2.362-.043-3.247-.106a15.2 15.2 0 0 1-2.509-.4c-.78-.19-1.413-.465-1.877-.802a3.54 3.54 0 0 1-1.096-1.328c-.253-.548-.38-1.202-.38-1.94 0-.548.042-1.033.127-1.455.084-.443.253-.822.464-1.16.21-.316.463-.61.716-.843.275-.253.633-.464 1.076-.632a8.8 8.8 0 0 1 1.328-.401c.443-.105 1.012-.169 1.666-.21.654-.043 1.307-.085 1.919-.106a66.314 66.314 0 0 1 2.256-.042c1.94 0 3.563.063 4.786.19 1.244.126 2.13.273 2.678.463.548.169 1.138.443 1.75.76l.147.084-1.855 4.111-.148-.063c-.738-.274-1.855-.506-3.331-.696a34.438 34.438 0 0 0-4.344-.295h-.548c-1.307 0-2.172.021-2.551.063-.422.042-.422.211-.422.253 0 .042.106.485 3.458.485 1.645 0 3.015.042 4.07.127 1.075.084 2.003.21 2.804.38.822.189 1.455.463 1.876.821.422.38.738.823.928 1.329.19.506.295 1.16.295 1.918 0 .654-.042 1.223-.126 1.687a2.946 2.946 0 0 1-.569 1.286c-.296.401-.675.717-1.139.95-.443.231-1.054.42-1.813.59-.759.168-1.645.274-2.636.337-.97.084-2.193.127-3.605.127Zm-8.392-1.434c.927.717 3.753 1.075 8.392 1.075 1.391 0 2.593-.042 3.605-.105.991-.064 1.856-.17 2.594-.338.716-.147 1.307-.337 1.729-.569a2.66 2.66 0 0 0 1.012-.843 3.01 3.01 0 0 0 .506-1.16c.084-.422.126-.97.126-1.602 0-.717-.084-1.329-.274-1.793a2.782 2.782 0 0 0-.843-1.18c-.38-.338-.97-.59-1.729-.76-.781-.168-1.708-.295-2.762-.379-1.055-.084-2.425-.127-4.049-.127-3.352 0-3.816-.421-3.816-.843 0-.232.126-.548.738-.611.4-.043 1.244-.064 2.593-.064h.548c1.413 0 2.91.106 4.407.296 1.392.19 2.488.4 3.247.653l1.582-3.5c-.549-.274-1.055-.506-1.54-.654-.527-.168-1.391-.316-2.593-.442-1.202-.127-2.804-.19-4.744-.19-.865 0-1.624.021-2.256.042-.612.021-1.265.063-1.919.106a12.86 12.86 0 0 0-1.624.21c-.421.085-.864.211-1.265.38-.4.147-.716.337-.97.548a4.857 4.857 0 0 0-.674.78 3.03 3.03 0 0 0-.422 1.033c-.084.401-.126.865-.126 1.37 0 .697.126 1.287.358 1.772.232.485.569.886.991 1.202.422.316 1.012.57 1.75.759.738.19 1.56.316 2.446.4a45.36 45.36 0 0 0 3.205.106c4.259 0 4.828.485 4.828.97 0 .295-.274.485-.78.527-.422.042-1.286.063-2.635.063h-1.055c-1.455 0-2.952-.084-4.449-.253-1.349-.147-2.235-.337-2.72-.548l-1.412 3.669ZM356.5 18.527h-5.946V4.296h5.946v14.232Zm-5.588-.358h5.229V4.654h-5.229v13.515ZM356.5 3.557h-5.946V.5h5.946v3.057Zm-5.588-.358h5.229V.859h-5.229v2.34ZM366.705 18.654c-.675 0-1.286-.021-1.835-.063a21.002 21.002 0 0 1-1.792-.232c-.653-.127-1.244-.295-1.729-.506a6.492 6.492 0 0 1-1.497-.886 5.232 5.232 0 0 1-1.223-1.328 6.716 6.716 0 0 1-.78-1.877 10.054 10.054 0 0 1-.295-2.488c0-1.138.253-2.193.759-3.1.506-.906 1.181-1.644 2.045-2.192a9.782 9.782 0 0 1 2.868-1.244 13.487 13.487 0 0 1 3.395-.422c2.34 0 4.491.464 6.388 1.35v-4.28h5.925v17.141h-5.925V17.2c-1.56.97-3.668 1.455-6.304 1.455Zm-.127-13.98a12.66 12.66 0 0 0-3.289.422c-1.033.275-1.961.675-2.762 1.202a5.822 5.822 0 0 0-1.919 2.067c-.464.864-.717 1.834-.717 2.93 0 .886.085 1.687.274 2.383.19.696.443 1.307.738 1.771.296.464.675.886 1.139 1.244.464.358.949.633 1.413.843.485.211 1.033.359 1.665.485.633.127 1.223.19 1.75.232.549.043 1.139.064 1.814.064 2.72 0 4.87-.527 6.346-1.582l.274-.19v1.645h5.208V1.744h-5.208v4.491l-.253-.126c-1.897-.95-4.069-1.434-6.473-1.434Zm1.223 9.805c-2.867 0-4.322-1.012-4.322-3.036 0-.358.042-.696.105-1.012.085-.316.19-.57.359-.78.147-.19.295-.38.464-.527.168-.169.379-.296.632-.38.232-.084.443-.169.612-.21.168-.043.4-.085.653-.106.253-.021.443-.042.57-.042h.59c3.395 0 5.313.717 5.84 2.171l.022.021v1.982l-.022.043c-.484.759-1.138 1.265-1.96 1.497-.781.253-1.982.38-3.543.38Zm-.906-5.735c-.106 0-.296.021-.528.042a3.36 3.36 0 0 0-.59.106 6.098 6.098 0 0 0-.59.19c-.211.084-.38.19-.506.316a2.377 2.377 0 0 0-.422.485c-.127.168-.232.4-.295.653-.063.274-.106.59-.106.907 0 1.792 1.308 2.678 3.964 2.678 1.518 0 2.678-.106 3.437-.338.717-.21 1.286-.653 1.729-1.307v-1.813c-.506-1.265-2.34-1.919-5.503-1.919h-.59ZM390.067 18.527c-1.644 0-3.078-.105-4.28-.337-1.223-.232-2.235-.548-2.994-.949a5.556 5.556 0 0 1-1.898-1.56 5.744 5.744 0 0 1-.991-2.003 10.466 10.466 0 0 1-.274-2.446c0-2.277.886-4.09 2.636-5.376 1.729-1.265 4.301-1.898 7.675-1.898 1.645 0 3.12.148 4.322.443 1.223.295 2.32.78 3.226 1.434.928.674 1.603 1.602 2.024 2.762.422 1.138.57 2.53.443 4.132l-.021.169h-14.148c.148.274.485.506.991.717.675.253 1.729.4 3.1.4 1.223 0 2.445-.084 3.647-.232 1.202-.147 2.13-.316 2.741-.484l1.034-.275 2.551 4.133-.148.105a1.817 1.817 0 0 1-.295.148c-.148.063-.464.169-.991.316-.527.148-1.117.274-1.771.38-.654.105-1.581.21-2.741.295a53.34 53.34 0 0 1-3.838.127Zm-.147-14.21c-3.289 0-5.799.61-7.464 1.834-1.645 1.202-2.488 2.91-2.488 5.081 0 .886.084 1.687.253 2.362.168.653.485 1.286.927 1.876.443.59 1.034 1.076 1.772 1.455.738.38 1.707.696 2.888.928 1.181.21 2.615.337 4.217.337 1.392 0 2.678-.042 3.817-.126a32.501 32.501 0 0 0 2.72-.296 15.708 15.708 0 0 0 1.75-.379c.506-.148.822-.232.948-.295.022-.021.064-.021.085-.042l-2.235-3.606-.78.211c-.633.169-1.561.316-2.784.485a27.191 27.191 0 0 1-3.711.232c-1.412 0-2.509-.148-3.226-.422-.759-.295-1.201-.696-1.286-1.18l-.042-.211h14.296c.105-1.476-.042-2.763-.443-3.817-.401-1.096-1.033-1.96-1.898-2.593-.864-.633-1.918-1.097-3.099-1.392-1.16-.316-2.594-.443-4.217-.443Zm4.364 6.135h-8.94v-.169c0-.231.085-.463.232-.674a2.48 2.48 0 0 1 .675-.633c.316-.21.78-.38 1.434-.527.632-.126 1.412-.19 2.298-.19 1.539 0 2.615.19 3.289.548.696.38 1.033.886 1.033 1.476v.17h-.021Zm-8.56-.358h8.181c-.063-.38-.337-.696-.844-.991-.611-.338-1.644-.506-3.12-.506-.865 0-1.603.063-2.214.19-.59.126-1.033.273-1.307.463s-.464.359-.57.548c-.042.106-.084.19-.126.296ZM10.368 39.106c-1.792 0-3.374-.274-4.702-.801-1.329-.527-2.32-1.202-2.952-1.982-.612-.759-1.118-1.54-1.476-2.298-.358-.76-.57-1.434-.611-1.982L.5 31.052h5.84v.169c0 .02 0 .063.022.126 0 .042.02.148.084.4.063.212.126.401.21.591a2.933 2.933 0 0 0 1.075 1.16c.254.168.592.295 1.013.4.422.106.907.169 1.434.169.527 0 1.012-.042 1.455-.127.422-.084.78-.19 1.054-.316s.506-.274.696-.422c.19-.147.316-.295.4-.442.085-.169.17-.317.232-.443.064-.127.085-.21.106-.274v-4.238H7.353V21.88h12.714v10.036c0 .106 0 .253-.021.443s-.084.506-.211.991-.316.97-.548 1.413c-.232.443-.59.949-1.076 1.497a7.204 7.204 0 0 1-1.728 1.434c-.654.4-1.54.737-2.594 1.012-1.054.253-2.235.4-3.521.4ZM.9 31.41l.063.59c.042.507.253 1.14.59 1.856.338.738.823 1.476 1.434 2.235.59.738 1.54 1.37 2.825 1.877 1.287.506 2.826.78 4.555.78 1.265 0 2.425-.127 3.437-.4 1.033-.254 1.855-.591 2.488-.97a7.4 7.4 0 0 0 1.644-1.35c.464-.527.802-.991 1.012-1.434.211-.422.38-.886.506-1.35.127-.463.19-.78.211-.948.021-.169.021-.295.021-.4v-9.658H7.711v5.208h6.768v4.66c-.02.084-.063.21-.126.358a3.46 3.46 0 0 1-.253.464c-.106.19-.274.38-.506.549-.211.168-.464.316-.76.463-.294.148-.674.254-1.138.359-.464.084-.97.126-1.518.126a6.69 6.69 0 0 1-1.518-.168 3.243 3.243 0 0 1-1.118-.464c-.274-.19-.527-.4-.738-.654a3.531 3.531 0 0 1-.463-.675 5.596 5.596 0 0 1-.232-.632c-.064-.232-.085-.38-.106-.464H.901v.042ZM31.453 39.254c-1.687 0-3.163-.127-4.365-.359-1.223-.253-2.32-.632-3.226-1.18a5.084 5.084 0 0 1-2.066-2.257c-.443-.948-.675-2.087-.675-3.415 0-1.139.19-2.15.548-3.015.359-.865.865-1.582 1.476-2.109.612-.527 1.37-.949 2.256-1.286a13.56 13.56 0 0 1 2.763-.675c.927-.126 2.003-.19 3.141-.19 1.181 0 2.256.064 3.205.148a14 14 0 0 1 2.868.633c.97.316 1.77.738 2.403 1.265.633.527 1.16 1.244 1.56 2.108.401.865.591 1.919.591 3.079 0 1.328-.253 2.488-.717 3.437-.485.948-1.223 1.707-2.172 2.277-.948.548-2.045.927-3.268 1.18-1.202.232-2.657.359-4.322.359Zm-.127-14.127c-1.138 0-2.192.063-3.1.169-.927.126-1.813.337-2.677.653-.864.317-1.581.717-2.15 1.223-.57.485-1.034 1.16-1.371 1.982-.359.823-.527 1.792-.527 2.889 0 1.286.21 2.382.632 3.268.422.886 1.076 1.581 1.94 2.108.864.528 1.919.907 3.1 1.139 1.201.232 2.635.358 4.3.358 1.624 0 3.058-.105 4.26-.337 1.18-.232 2.256-.611 3.163-1.139.885-.505 1.581-1.222 2.024-2.129.464-.907.696-2.003.696-3.268 0-1.118-.19-2.109-.57-2.931-.379-.822-.864-1.497-1.454-1.982a7.162 7.162 0 0 0-2.299-1.202 13.184 13.184 0 0 0-2.783-.611c-.949-.148-2.024-.19-3.184-.19Zm.19 10.184c-1.497 0-2.614-.274-3.331-.822-.738-.57-1.118-1.434-1.118-2.594 0-.464.106-.906.295-1.286.19-.38.443-.696.738-.928a3.869 3.869 0 0 1 1.055-.569c.4-.148.78-.253 1.16-.316.379-.063.758-.085 1.138-.085.527 0 1.012.043 1.476.127.464.084.949.253 1.434.464.506.21.906.57 1.223 1.033.295.464.463 1.033.463 1.687 0 1.202-.4 2.066-1.202 2.551-.78.485-1.897.738-3.33.738Zm-.084-6.262c-.359 0-.717.02-1.076.084a5.67 5.67 0 0 0-1.096.295 3.444 3.444 0 0 0-.949.527c-.253.211-.485.485-.654.823a2.51 2.51 0 0 0-.253 1.138c0 1.055.317 1.814.97 2.299.654.506 1.708.759 3.121.759 1.37 0 2.425-.232 3.12-.675.696-.443 1.034-1.18 1.034-2.256 0-.59-.127-1.097-.4-1.497a2.563 2.563 0 0 0-1.055-.907 5.833 5.833 0 0 0-1.35-.421c-.442-.127-.906-.17-1.412-.17ZM48.932 39.106h-5.946V24.874h5.946v14.232Zm-5.587-.358h5.229V25.232h-5.23v13.516Zm5.587-14.612h-5.946v-3.057h5.946v3.057Zm-5.587-.359h5.229v-2.34h-5.23v2.34ZM69.638 39.106h-5.946v-5.672c0-.168-.021-.4-.042-.716-.021-.317-.064-.549-.085-.738a13.34 13.34 0 0 0-.19-.675c-.084-.253-.168-.464-.295-.612a3.082 3.082 0 0 0-.442-.527 2.005 2.005 0 0 0-.59-.421 3.786 3.786 0 0 0-.823-.253 5.46 5.46 0 0 0-1.075-.106c-.991 0-1.793.148-2.383.422a5.62 5.62 0 0 0-1.603 1.18v8.14h-5.988V24.894h5.988v1.75c.38-.274.696-.464.907-.611.274-.169.675-.38 1.202-.612a7.134 7.134 0 0 1 1.687-.506c.59-.105 1.286-.147 2.066-.147.76 0 1.434.042 2.003.105.59.063 1.202.19 1.835.4.653.19 1.222.528 1.729.95.484.421.885.97 1.16 1.623.379.886.632 2.024.716 3.373.085 1.35.127 3.585.127 6.642v1.244h.042Zm-5.588-.358h5.23v-.928c0-3.036-.043-5.271-.127-6.62-.085-1.329-.316-2.425-.696-3.269a4.07 4.07 0 0 0-1.075-1.497 3.999 3.999 0 0 0-1.582-.864 9.903 9.903 0 0 0-1.77-.38 18.155 18.155 0 0 0-1.962-.084c-.759 0-1.433.042-2.003.147a5.67 5.67 0 0 0-1.602.485c-.506.232-.886.422-1.16.59-.274.17-.675.423-1.18.802l-.275.21v-2.087h-5.271V38.77h5.271V30.84l.042-.042c.549-.548 1.139-.991 1.771-1.286.633-.317 1.498-.464 2.53-.464.401 0 .802.042 1.14.105.337.084.653.169.906.295.253.127.485.296.696.485.19.19.358.38.464.57.126.19.253.421.337.716.084.296.148.528.19.717.042.19.084.464.105.78.021.338.042.57.042.739v5.292h-.02ZM90.154 39.17c-.78 0-1.434-.022-1.94-.085-.527-.063-1.012-.19-1.434-.4a2.884 2.884 0 0 1-1.033-.802c-.232-.316-.443-.759-.612-1.35a8.673 8.673 0 0 1-.316-1.939 46.525 46.525 0 0 1-.063-2.699v-2.593h-2.783v-4.534h2.783v-2.91h5.925v2.91h6.79v4.534h-6.79v2.74c0 .043 0 .127.021.338.021.169.042.316.084.464.043.148.106.295.19.485.084.169.169.316.295.443.127.126.274.21.485.295.211.084.422.126.675.126.4 0 .822-.02 1.265-.084.464-.063.865-.127 1.223-.21.358-.085.696-.17 1.012-.254.316-.084.548-.169.738-.21.021 0 .042-.022.063-.022l-.042-.063h.443l.021.127 2.045 4.448-.168.064c-.253.105-.612.21-1.076.337-.485.127-1.455.295-3.015.506a32.17 32.17 0 0 1-4.786.337ZM82.33 28.963h2.783v2.952c0 1.076.021 1.982.064 2.678.042.696.147 1.307.295 1.855.148.528.337.95.548 1.223.211.275.506.506.886.696.4.19.843.316 1.328.359.506.063 1.139.084 1.919.084 1.623 0 3.226-.105 4.744-.316 1.518-.211 2.509-.38 2.973-.506a7.52 7.52 0 0 0 .864-.253l-1.834-3.985c-.042 0-.063.02-.105.042-.19.063-.443.126-.738.21-.317.085-.654.17-1.034.254-.38.084-.8.147-1.265.21a9.692 9.692 0 0 1-1.307.085c-.295 0-.57-.042-.801-.148a1.784 1.784 0 0 1-.59-.38 2.108 2.108 0 0 1-.38-.547c-.084-.211-.169-.38-.21-.549a3.935 3.935 0 0 1-.085-.527c-.021-.19-.021-.295-.021-.358v-3.079h6.789v-3.816h-6.79v-2.91h-5.207v2.91h-2.784v3.816h-.042ZM119.588 39.106h-5.946v-5.65c0-.17 0-.401-.021-.718-.021-.316-.042-.548-.084-.716-.042-.17-.105-.401-.169-.675-.084-.253-.168-.464-.274-.612a4.13 4.13 0 0 0-.422-.527 1.729 1.729 0 0 0-.548-.421 3.208 3.208 0 0 0-.759-.253 4.705 4.705 0 0 0-.97-.106c-2.171 0-3.795.464-4.807 1.392v8.328h-5.946V22.006l6.241.148-.274 4.533c1.792-1.265 3.922-1.876 6.515-1.813h.359c1.855.021 3.985.042 5.334 1.518.401.38.717.822.928 1.35.358.885.59 2.087.696 3.584.105 1.476.147 3.669.147 6.557v1.223Zm-5.587-.358h5.229v-.928c0-2.868-.042-5.081-.148-6.536-.105-1.434-.337-2.615-.674-3.48a3.529 3.529 0 0 0-.844-1.222c-1.265-1.37-3.205-1.392-5.081-1.413h-.359c-2.635-.042-4.807.611-6.599 1.982l-.317.232.296-4.934-5.504-.148v16.426h5.229v-8.118l.064-.063c1.075-1.012 2.804-1.54 5.102-1.54.38 0 .738.043 1.055.106.316.084.611.169.843.274.253.105.464.274.654.506.189.21.337.4.442.57.127.19.232.421.317.716.084.274.147.527.189.717.043.19.064.464.085.78.021.338.021.57.021.738v5.335ZM130.616 39.106c-1.645 0-3.079-.105-4.28-.337-1.223-.232-2.235-.548-2.994-.949a5.546 5.546 0 0 1-1.898-1.56 5.743 5.743 0 0 1-.991-2.003 10.413 10.413 0 0 1-.274-2.446c0-2.425.97-4.154 2.973-5.25h.021c1.138-.527 2.53-.991 4.048-1.329h.042c1.561-.063 3.226 0 5.398.148a22.27 22.27 0 0 0 1.708.063c2.235.042 4.533.085 6.115 1.835 1.581 1.897.78 4.68.168 6.156l-.042.106h-.126c-.042 0-3.775-.063-7.296-.063h-6.873c.147.274.484.506.991.716.674.253 1.728.401 3.099.401 1.223 0 2.446-.084 3.648-.232 1.202-.148 2.129-.316 2.741-.485l1.033-.274 2.551 4.133-.084.084a1.87 1.87 0 0 1-.295.148c-.148.063-.464.168-.991.316-.527.148-1.118.274-1.771.38a33.19 33.19 0 0 1-2.741.295 44.303 44.303 0 0 1-3.88.147Zm-7.274-12.25c-1.877 1.033-2.784 2.657-2.784 4.934 0 .885.085 1.687.253 2.361.169.654.485 1.286.928 1.877.443.59 1.033 1.075 1.771 1.455.738.38 1.708.695 2.889.927 1.181.211 2.614.338 4.217.338a52.29 52.29 0 0 0 3.816-.127c1.16-.084 2.067-.19 2.72-.295a15.658 15.658 0 0 0 1.75-.38c.506-.147.823-.231.949-.295.021-.02.063-.02.084-.042l-2.235-3.605-.78.21c-.632.17-1.56.317-2.783.486a27.207 27.207 0 0 1-3.711.231c-1.413 0-2.509-.147-3.226-.421-.759-.295-1.202-.696-1.286-1.181l-.042-.21h7.337c3.163 0 6.495.041 7.169.062 1.286-3.204.464-4.933-.168-5.671-1.476-1.624-3.69-1.666-5.862-1.73-.569-.02-1.181-.02-1.729-.063-2.172-.147-3.816-.21-5.356-.147-1.455.316-2.825.78-3.921 1.286Zm11.575 4.238h-.147c-.021 0-2.278-.063-4.386-.063h-4.47v-.169c0-.232.084-.464.232-.675.147-.21.358-.421.675-.632.316-.211.78-.38 1.433-.527.675-.127 1.476-.19 2.404-.19 1.666.084 2.847.337 3.437.717.717.4 1.012.864.864 1.413l-.042.126Zm-8.624-.422h4.091c1.813 0 3.711.042 4.238.063.021-.19-.063-.505-.717-.864h-.021c-.527-.337-1.666-.57-3.247-.675-.907 0-1.708.064-2.34.19-.591.127-1.034.274-1.308.464s-.464.358-.569.548a.563.563 0 0 0-.127.274ZM172.955 39.718c-.781 0-1.708-.17-2.615-.317a28.483 28.483 0 0 0-1.708-.274l-.274-.02.928-1.477c-2.109.865-4.196 1.37-6.157 1.54-2.509.21-4.807-.17-6.832-1.118-1.012-.464-1.897-1.624-1.602-2.847.105-.463.232-.948.337-1.433.633-2.72 1.286-5.546 2.826-7.633.632-.822 2.214-.696 3.879-.59.549.042 1.118.084 1.624.084h.19l-.021.19c-.106 1.075-.591 2.171-1.055 3.247-.738 1.708-1.455 3.331-.421 4.407.97 1.033 2.509 1.497 4.322 1.307 1.708-.169 3.437-.907 4.639-1.961.59-.548.717-1.666.801-2.657.021-.232.042-.422.063-.632.274-1.814.295-3.711.295-3.732v-.19h.19c.464.02 1.033-.021 1.56-.042 1.392-.085 2.699-.148 3.016.569 1.792 4.26.717 10.015-2.467 13.136-.338.337-.886.443-1.518.443Zm-4.007-.907c.464.063.97.148 1.455.232 1.561.274 3.184.57 3.859 0 3.078-3.015 4.133-8.603 2.382-12.735-.21-.485-1.518-.422-2.656-.359-.485.021-.97.063-1.413.042-.021.527-.063 2.088-.295 3.585-.021.19-.042.4-.063.632-.106 1.055-.232 2.235-.928 2.868-2.551 2.256-7.232 3.015-9.467.632-1.202-1.244-.443-2.973.358-4.786.422-.97.865-1.982 1.012-2.952-.464 0-.97-.042-1.455-.084-1.497-.105-3.057-.21-3.563.443-1.497 2.045-2.151 4.807-2.762 7.506-.106.464-.232.949-.338 1.434-.253 1.054.528 2.045 1.392 2.446 1.961.927 4.196 1.286 6.642 1.075 2.108-.169 4.301-.76 6.578-1.73l.528-.231-1.266 1.982Z" fill="#fff"/><path d="m191.531 40.434.021-.231c.063-.464.147-.928.232-1.392.358-2.066.717-4.196-.422-6.136-.612-1.054-1.813-1.686-3.226-1.644-1.413.02-2.657.695-3.184 1.708-.401.78-.675 1.729-.949 2.614-.485 1.581-.927 3.057-1.94 3.943-1.012.822-2.825.696-4.575.57-.464-.043-.949-.064-1.413-.085h-.274l.127-.253c2.129-4.491 2.952-9.193 2.34-13.537l-.021-.232.232.021c.569.064 1.16.106 1.729.127 1.265.063 2.593.148 3.753.59l.021.021c.316.19.401.76.485 1.371.021.105.021.19.042.295 1.286-1.16 3.079-1.897 4.955-2.003 2.046-.126 3.964.464 5.398 1.645.59.295 1.139.738 1.581 1.286a11.717 11.717 0 0 1 2.151 5.334c.274 2.003-.084 3.817-.991 5.124-.548.864-2.108.843-3.753.822-.717 0-1.455-.02-2.087.042h-.232Zm-3.29-9.762c1.497 0 2.784.675 3.437 1.835 1.202 2.045.823 4.259.464 6.388-.063.38-.126.76-.19 1.16a19.262 19.262 0 0 1 1.919-.021c1.476.02 3.015.042 3.437-.654.843-1.244 1.181-2.973.928-4.892-.232-1.834-.991-3.668-2.088-5.165a4.41 4.41 0 0 0-1.476-1.202h-.021l-.021-.021c-1.37-1.139-3.205-1.687-5.166-1.56-1.918.126-3.711.906-4.955 2.13l-.232.231-.063-.316a5.671 5.671 0 0 1-.105-.633c-.064-.443-.127-.97-.296-1.096-1.096-.422-2.319-.485-3.626-.57-.506-.02-1.012-.063-1.518-.105.548 4.28-.253 8.877-2.299 13.284.38.02.76.042 1.139.084 1.687.126 3.437.253 4.322-.485.949-.801 1.371-2.256 1.835-3.774.274-.907.569-1.856.97-2.678.59-1.118 1.961-1.877 3.5-1.898.042-.042.063-.042.105-.042Z" fill="#fff"/><path d="m199.1 39.802.042-.232c.633-4.196-.105-8.75-2.214-13.98-.632-1.56-1.096-2.614-1.096-2.635l-.085-.19.19-.063c.506-.126 1.033-.337 1.56-.527 1.266-.485 2.446-.928 3.311-.548 1.012.4 1.518 2.087 1.982 3.584.042.106.063.211.105.317 1.265-1.265 3.606-3.079 6.368-2.762 2.53.19 4.765 1.665 6.621 4.364 1.286 1.919 2.066 3.479 2.446 4.913.527 1.94.295 3.647-.654 5.06-1.223 1.898-3.268 2.72-6.073 2.404-2.382-.253-4.828-1.265-6.515-2.045-.021.126-.021.274-.042.421-.021.4-.042.78-.295.907-1.16.506-2.446.632-3.711.738-.57.063-1.139.105-1.687.19l-.253.084Zm-2.847-16.784c.148.38.528 1.266 1.013 2.446 2.087 5.166 2.825 9.742 2.256 13.916.485-.063.991-.126 1.476-.168 1.223-.127 2.488-.232 3.584-.717.084-.042.084-.4.106-.612.021-.232.021-.485.084-.717l.063-.21.19.084c6.346 2.93 10.395 2.888 12.356-.148 2.045-3.057.126-6.726-1.793-9.593-1.792-2.615-3.942-4.027-6.367-4.217-1.202-.127-3.585.063-6.284 2.867l-.21.211-.085-.295c-.063-.19-.126-.4-.19-.611-.421-1.413-.927-3.016-1.771-3.353-.738-.316-1.897.127-3.036.548-.464.253-.949.422-1.392.57Zm15.076 11.323h-.168c-.232-.021-.506-.021-.781-.042-2.635-.106-6.241-.253-6.156-3.732.105-1.687 1.792-2.868 4.617-3.247 1.118-.085 2.13.337 2.931 1.202 1.033 1.096 1.539 2.783 1.328 4.3-.105.907-.885 1.519-1.771 1.519Zm-6.747-3.753c-.084 3.12 3.184 3.268 5.798 3.352.275.022.528.022.781.043.78.063 1.476-.464 1.602-1.202.211-1.413-.274-2.994-1.244-4.006-.506-.549-1.392-1.181-2.657-1.097-2.614.359-4.174 1.413-4.28 2.91Z" fill="#fff"/><path d="m234.396 41.868.021-.21c.043-.254-.042-.486-.126-.739a2.187 2.187 0 0 1-.106-.337c-1.222.548-2.488.78-3.774.78-3.205 0-6.536-1.413-9.53-2.93-1.118-.549-1.94-1.814-2.088-3.206-.147-1.265.296-2.403 1.202-3.162 1.624-1.265 3.521-1.624 5.841-1.076 1.75.401 3.479 1.266 5.039 2.088-1.117-1.54-2.825-2.657-4.849-3.184-2.193-.57-4.555-.38-6.452.548l-.169.084-.084-.168a75.186 75.186 0 0 0-1.139-2.214c-.38-.717-.78-1.476-1.139-2.214l-.084-.19.211-.063c.379-.105.759-.232 1.117-.337 2.067-.633 4.175-1.308 6.473-.886 2.889.548 5.525 1.834 7.844 3.816 2.13 1.814 3.943 4.217 5.25 6.958.991 1.898 1.856 3.922 2.636 6.136l.084.232-.232.021-1.307.063c-1.434.064-2.931.127-4.365.253l-.274-.063Zm.064-1.834.042.232c.021.19.084.337.147.506.085.21.148.421.148.674 1.37-.105 2.804-.168 4.175-.231.358-.022.696-.043 1.054-.043-.759-2.108-1.581-4.027-2.53-5.861-1.286-2.7-3.079-5.06-5.166-6.832-2.277-1.94-4.85-3.183-7.675-3.732-2.193-.421-4.28.232-6.283.865-.295.084-.612.19-.928.295.337.675.696 1.37 1.054 2.024.359.675.738 1.37 1.076 2.066 1.96-.885 4.322-1.075 6.536-.485 2.383.612 4.322 2.003 5.461 3.922l.337.548-.653-.337c-3.374-1.792-7.57-4.027-11.007-1.328-.822.675-1.202 1.687-1.075 2.846.148 1.265.885 2.425 1.898 2.931 4.195 2.13 9.045 4.048 13.199 2.066l.19-.126Zm-3.669-2.214c-.759 0-1.539-.127-2.32-.274-2.298-.527-3.584-1.223-3.795-2.066-.063-.232-.042-.443.106-.57.126-.126.295-.168.506-.126.274.02.569.063.864.084 2.488.253 5.313.548 6.958 2.172l.169.168-.211.106c-.717.38-1.497.506-2.277.506Zm-2.235-.633c1.391.274 2.867.464 4.09-.084-1.581-1.392-4.217-1.666-6.557-1.898-.295-.02-.591-.063-.886-.084h-.021a.225.225 0 0 0-.169.021c-.042.042-.042.127-.021.232v.021c.127.4.717 1.16 3.564 1.792ZM242.24 41.11c-.316 0-.548-.064-.696-.233-2.551-3.015-3.922-6.979-5.271-10.816-.295-.844-.59-1.708-.907-2.53l-.063-.17.19-.062c.379-.106.759-.253 1.159-.38 1.329-.464 2.678-.928 3.986-.759.295.021.4.422.527.928.042.147.084.316.126.485.865-1.455 2.024-2.467 3.395-3.037 2.024-.738 5.081-1.855 7.084.127.506.443.97 1.012 1.371 1.687 1.181 2.087 2.172 4.322 3.121 6.494.759 1.75 1.56 3.542 2.445 5.271l.106.21-.232.043c-.401.063-.822.19-1.286.295-1.329.338-2.72.675-3.374.085-1.455-1.223-2.193-2.973-2.952-4.829-.696-1.687-1.434-3.415-2.762-4.744-.611-.57-1.539-.548-2.804.042-1.202.527-2.341 1.54-2.046 2.51.464 1.644 1.244 3.183 1.982 4.68.528 1.055 1.076 2.13 1.498 3.247l.063.19-.19.063c-.464.127-1.033.317-1.56.506-1.244.359-2.256.696-2.91.696Zm-6.473-13.537c.295.78.569 1.581.843 2.361 1.329 3.796 2.72 7.738 5.208 10.69.338.38 1.94-.169 3.247-.611.464-.169.949-.317 1.392-.464-.422-1.033-.928-2.045-1.413-3.036-.759-1.518-1.539-3.079-2.003-4.744-.168-.57.021-1.181.548-1.772.422-.442 1.034-.864 1.687-1.16 1.413-.653 2.467-.632 3.184.043 1.392 1.392 2.13 3.163 2.847 4.87.759 1.814 1.475 3.522 2.867 4.702.527.464 1.856.127 3.036-.168.359-.085.717-.19 1.076-.253-.844-1.666-1.603-3.395-2.341-5.082-.949-2.15-1.918-4.385-3.099-6.473-.38-.632-.823-1.18-1.308-1.602-1.855-1.834-4.765-.76-6.705-.063-1.412.569-2.551 1.644-3.415 3.204l-.169.296-.148-.296c-.126-.253-.21-.59-.295-.885-.063-.232-.147-.59-.211-.654-1.223-.168-2.551.296-3.837.738-.316.127-.654.253-.991.359ZM261.617 38.453c-.759 0-1.391-.127-1.708-.549-1.897-2.34-3.352-5.123-4.322-8.265-.907-2.91-1.392-6.051-1.413-9.34v-.211l.211.02c.548.064 1.181.064 1.771.085 1.518.021 2.952.021 3.5.864.886 1.308 1.055 3.037 1.244 4.85.085.907.19 1.834.359 2.699.253-.211.485-.443.738-.654.527-.485 1.096-.97 1.665-1.391 1.35-1.034 2.742-2.51 2.742-2.53l.042-.043h.063l1.413-.126c2.15-.19 4.385-.38 6.578-.38h.485l-.358.317c-2.741 2.361-4.955 4.723-6.79 7.232 1.055.611 2.151 1.223 3.205 1.792 2.214 1.244 4.512 2.509 6.705 3.9l.443.275-.527.042c-.843.084-1.687.253-2.53.422-1.518.316-3.079.632-4.534.358-1.307-.253-2.445-1.139-3.542-1.982-.843-.654-1.708-1.328-2.657-1.708-.168.148-.59.801-.59 1.244.042.506.295 1.012.569 1.54.19.358.38.737.506 1.138l.064.232h-.232c-.464 0-.991.042-1.497.084-.591.042-1.118.084-1.603.084Zm-7.105-17.944c.063 3.184.527 6.22 1.391 9.046.97 3.1 2.404 5.84 4.28 8.16.401.548 1.708.421 2.973.316.443-.042.886-.085 1.287-.085a6.195 6.195 0 0 0-.401-.843c-.274-.527-.548-1.096-.611-1.666v-.02c0-.57.527-1.413.801-1.561.105-.063.19-.042.232-.021 1.012.4 1.918 1.096 2.804 1.792 1.118.865 2.151 1.687 3.395 1.919 1.391.274 2.846-.042 4.385-.359a34.878 34.878 0 0 1 2.046-.38c-2.046-1.264-4.196-2.466-6.263-3.605-1.117-.611-2.256-1.265-3.373-1.897l-.169-.106.106-.168c1.771-2.467 3.942-4.829 6.599-7.148-2.003.021-4.069.21-6.051.38-.443.042-.907.084-1.35.105-.253.274-1.518 1.581-2.741 2.53-.569.4-1.117.907-1.644 1.37-.317.296-.654.57-.97.844l-.211.19-.063-.274c-.232-.97-.338-2.025-.443-3.037-.169-1.77-.338-3.457-1.181-4.701-.443-.675-1.855-.696-3.205-.696-.548-.043-1.117-.043-1.623-.085Z" fill="#fff"/><path d="M287.362 38.853h-.401c-2.445-.063-4.849-.611-6.937-1.602-1.644-.78-3.057-1.813-4.174-3.057a11.45 11.45 0 0 1-2.552-4.618c-.316-1.223-.105-2.404.654-3.416 1.033-1.391 2.931-2.34 4.871-2.425 1.686-.21 3.268-.38 4.87-.527 2.53-.4 5.082.443 7 2.299 1.982 1.918 2.973 4.638 2.657 7.274l-.021.169-.169-.022c-1.223-.084-2.488-.084-3.711-.084-3.078-.021-6.283-.042-9.235-1.16 1.455 2.256 4.344 2.046 7.127 1.814 1.244-.106 2.404-.19 3.416-.064 1.012.127 1.792 1.476 2.551 2.784.232.38.443.759.654 1.096l.105.169-.19.084c-1.94.843-4.196 1.286-6.515 1.286Zm-2.425-15.413c-.4 0-.78.021-1.181.085-1.602.147-3.204.337-4.87.527h-.021c-1.835.084-3.648.97-4.618 2.298-.675.928-.885 2.003-.59 3.12a10.863 10.863 0 0 0 2.467 4.47c1.096 1.202 2.467 2.214 4.069 2.973 2.045.97 4.386 1.519 6.789 1.56 2.341.043 4.618-.358 6.6-1.201-.19-.295-.358-.59-.548-.928-.675-1.18-1.434-2.509-2.277-2.593-.991-.127-2.13-.021-3.353.063-2.931.232-6.241.506-7.717-2.446l-.211-.443.443.19c3.015 1.286 6.347 1.307 9.573 1.328 1.18 0 2.382.022 3.563.085.253-2.488-.717-5.018-2.572-6.81-1.561-1.477-3.522-2.278-5.546-2.278Zm-.738 6.81c-2.572 0-3.858-.78-4.512-1.539-.19-.231-.169-.421-.126-.527.189-.421 1.117-.485 2.614-.527.548-.02 1.075-.02 1.455-.084h.042c1.413.063 2.446.316 3.079.738.4.274 1.012 1.033.948 1.37a.29.29 0 0 1-.168.211h-.021c-1.287.253-2.383.359-3.311.359Zm-.527-2.319c-.379.043-.907.064-1.476.085-.759.02-2.193.063-2.298.316 0 .021 0 .063.084.148 1.539 1.813 5.208 1.497 7.359 1.096-.084-.21-.443-.717-.78-.949-.591-.38-1.56-.611-2.889-.696ZM303.007 39.254h-.274c-2.741-.064-5.187-1.118-6.895-2.952-1.455-1.56-2.298-3.795-2.15-5.672.126-1.37.738-2.51 1.813-3.31 1.877-1.413 4.238-2.214 7-2.404 2.235-.148 4.702.127 7.19.801l.591-4.132h.147c.801 0 1.624-.043 2.404-.085 1.202-.063 2.446-.126 3.648-.084h.189l-.021.19c-.759 5.334-.801 10.416-.147 15.096l.021.17-.169.02c-.358.063-.738.148-1.096.211-1.582.316-3.226.633-4.808.57-.253 0-.316-.338-.4-1.097-1.835 1.729-4.365 2.678-7.043 2.678Zm.696-14.022c-.401 0-.78.021-1.16.043-2.699.168-4.976.948-6.81 2.319-.991.738-1.56 1.792-1.666 3.057-.147 1.792.654 3.9 2.045 5.398 1.645 1.77 4.007 2.783 6.642 2.846 2.783.063 5.461-.949 7.317-2.783l.253-.253.042.358c.021.085.021.19.042.296.042.274.084.696.148.843 1.518.042 3.12-.274 4.659-.57.296-.063.612-.126.928-.189-.632-4.596-.59-9.594.148-14.823a46.144 46.144 0 0 0-3.416.085c-.759.042-1.518.084-2.277.084l-.591 4.217-.189-.063c-2.088-.57-4.175-.865-6.115-.865Zm.337 9.931c-1.265 0-2.382-.4-3.31-1.223-.696-.611-1.117-1.729-.97-2.656.106-.675.485-1.181 1.075-1.434 2.257-.949 4.871-1.223 7.38-.801 1.898.358 1.75 2.445 1.708 3.12v.042l-.021.043a4.395 4.395 0 0 1-1.877 1.792c-1.286.675-2.509 1.033-3.647 1.096-.106.021-.211.021-.338.021Zm1.877-5.946c-1.708 0-3.416.338-4.934.97-.611.253-.801.78-.864 1.16-.127.801.232 1.792.843 2.32 1.202 1.032 3.374 1.897 6.916.063a3.966 3.966 0 0 0 1.708-1.624c.105-1.666-.338-2.51-1.413-2.699a13.39 13.39 0 0 0-2.256-.19ZM337.186 41.088c-.907 0-1.771-.042-2.467-.084-2.045-.148-4.365-1.076-4.871-2.762-.253-.76.253-1.54.78-2.383.275-.422.57-.864.738-1.307l.106-.253.19.168c1.223 1.118 2.846 1.708 4.849 1.75 1.539.022 3.268-.253 5.271-.864.021 0 .022-.021.043-.021-.148-.127-.57-.295-.865-.359-.885-.063-1.813 0-2.699.043-1.455.084-2.952.168-4.47-.19a4.649 4.649 0 0 1-2.994-2.446c-.654-1.35-.696-3.015-.105-4.449.168-.358.337-.696.548-.99a4.73 4.73 0 0 1 .717-.844c.274-.253.632-.464 1.075-.633a8.866 8.866 0 0 1 1.328-.4c.443-.106 1.013-.17 1.666-.211.654-.042 1.307-.085 1.919-.106.696-.02 1.455-.042 2.214-.02.611.041 1.244.063 1.876.063 2.257.042 4.618.105 6.6 1.349l.169.105-.127.148c-.337.422-.653.97-.949 1.518-.569 1.033-1.117 2.024-1.939 2.13-1.35.19-2.91.042-4.386-.106-2.045-.19-4.133-.4-5.883.211 0 .021.021.021.021.042.127.127.633.443 2.91.422 2.446-.127 4.66-.169 7 .4.844.211 1.455.696 1.771 1.434.274.612.359 1.413.232 2.277a6.377 6.377 0 0 1-.696 2.172c-.906 1.877-2.677 3.142-5.25 3.753-1.455.337-2.973.443-4.322.443Zm-5.609-6.199c-.19.4-.421.78-.653 1.139-.485.759-.928 1.455-.738 2.066.274.886 1.096 1.455 1.729 1.771.801.4 1.813.675 2.825.738 1.75.127 4.344.21 6.684-.337 2.467-.59 4.154-1.771 4.997-3.564.59-1.16.991-2.93.443-4.153-.295-.633-.801-1.055-1.539-1.244-2.277-.549-4.47-.506-6.895-.38-1.813.021-2.847-.148-3.184-.527a.53.53 0 0 1-.126-.422l.021-.105.105-.042c1.834-.696 4.048-.485 6.178-.274 1.539.147 2.994.295 4.322.105.654-.084 1.16-.99 1.687-1.94.274-.485.548-.99.865-1.412-1.877-1.097-4.091-1.16-6.241-1.202-.612-.021-1.266-.021-1.877-.064-.738 0-1.497 0-2.193.022a65.79 65.79 0 0 0-1.919.105c-.653.042-1.18.127-1.623.21-.422.085-.865.212-1.265.38a3.245 3.245 0 0 0-.97.549 4.86 4.86 0 0 0-.675.78 5.03 5.03 0 0 0-.506.948c-.548 1.35-.527 2.89.084 4.154a4.189 4.189 0 0 0 2.763 2.256c1.475.338 2.951.253 4.364.19.907-.042 1.835-.105 2.741-.042h.021c.19.021 1.181.295 1.202.696 0 .105-.042.274-.316.358-2.067.633-3.817.907-5.398.886-2.024 0-3.669-.57-4.913-1.645ZM347.876 38.959l.021-.232c.043-.549.106-1.097.148-1.624.148-1.729.295-3.5.59-5.271.549-3.416 1.518-6.832 1.54-6.853l.042-.126h6.325l-.084.232c-.633 1.834-.907 3.795-1.16 5.714-.316 2.382-.653 4.85-1.708 6.958-.4.8-1.982.906-3.647 1.012-.633.042-1.287.084-1.835.168l-.232.022Zm2.594-13.769a71.91 71.91 0 0 0-1.497 6.684c-.296 1.75-.443 3.542-.591 5.25l-.126 1.392a20.053 20.053 0 0 1 1.644-.127c1.434-.084 3.037-.19 3.353-.801 1.012-2.045 1.328-4.365 1.666-6.832.253-1.855.506-3.753 1.096-5.545-1.855-.02-3.648-.02-5.545-.02Zm6.03-1.054h-5.988l.042-3.057h5.946v3.057Zm-5.609-.358h5.272v-2.34h-5.229l-.043 2.34ZM378.702 39.254l-.168-.021c-.57-.063-1.16-.085-1.729-.127-1.286-.063-2.615-.147-3.817-.485-.042 0-.105-.042-.126-.084-.106-.127-.084-.38.021-1.033-2.53.38-5.63.801-8.54.611-3.457-.232-5.967-1.307-7.674-3.268-.886-1.054-1.139-2.425-.738-3.88.548-1.982 2.298-3.858 4.259-4.512 1.033-.463 1.961-.864 3.015-1.16a13.487 13.487 0 0 1 3.395-.421c2.34 0 4.491.464 6.388 1.35v-4.28h5.925V36.28c0 1.56-.168 2.783-.168 2.783l-.043.19Zm-5.566-.949c1.16.316 2.383.4 3.69.464.506.02 1.033.063 1.56.105.042-.38.148-1.37.148-2.572v-13.98h-5.208v4.492l-.253-.127c-1.919-.949-4.091-1.434-6.494-1.434-1.16 0-2.278.148-3.29.422-1.033.274-1.961.675-2.973 1.139h-.021c-1.855.632-3.521 2.404-4.027 4.28-.253.949-.359 2.32.675 3.542 3.753 4.323 10.901 3.268 16.13 2.51l.232-.043-.043.232c0 .042-.021.105-.021.169-.042.21-.126.632-.105.801Zm-4.322-3.669c-2.13 0-4.323-.232-5.841-1.77-.38-.38-.506-.865-.422-1.435.085-.463.338-.97.696-1.37l.021-.021c.738-.654 1.645-.844 2.425-.928h.021c.19-.021.401-.063.633-.084.253-.021.442-.043.569-.043h.59c3.395 0 5.314.717 5.841 2.172l.021.021v1.982l-.021.043c-.527.822-1.202 1.265-2.088 1.391h-.021c-.295 0-.59.021-.927.021-.506 0-1.013.021-1.497.021Zm-5.314-4.343c-.611.675-.907 1.708-.295 2.32 1.792 1.791 4.596 1.707 7.063 1.644.317 0 .612-.021.907-.021.738-.106 1.328-.506 1.792-1.181v-1.813c-.506-1.265-2.34-1.92-5.503-1.92h-.59c-.106 0-.295.022-.527.043-.232.021-.422.063-.612.084h-.021c-1.033.127-1.687.38-2.214.844ZM388.17 39.78c-2.91 0-5.609-.864-7.296-3.541a5.748 5.748 0 0 1-.991-2.003 10.466 10.466 0 0 1-.274-2.446c0-2.277.886-4.09 2.636-5.377 1.729-1.265 4.301-1.898 7.675-1.898 1.644 0 3.12.148 4.322.443 1.223.296 2.32.78 3.226 1.434.928.675 1.603 1.602 2.024 2.762.506 1.37.485 2.783-.042 4.154l-.042.105h-.126c-.043 0-3.627.064-6.959.064-2.825 0-5.714-.021-6.557-.021.126.274.401.527.801.78 1.835.632 3.774.337 5.651.042 1.434-.232 2.931-.464 4.322-.232.57.063.886 1.075 1.244 2.235.127.422.275.864.401 1.223l.063.19-.548.168c-2.783.865-6.304 1.919-9.53 1.919Zm1.75-14.906c-3.29 0-5.799.611-7.464 1.834-1.645 1.202-2.488 2.91-2.488 5.082 0 .885.084 1.687.253 2.361.168.654.485 1.286.927 1.877v.02c3.416 5.42 11.239 3.058 16.426 1.498l.189-.063c-.126-.338-.232-.717-.358-1.076-.253-.822-.59-1.96-.928-1.982-1.328-.21-2.741 0-4.217.232-1.919.296-3.922.612-5.84-.063h-.043c-.632-.38-.969-.78-1.054-1.244l-.042-.21h.211c.042 0 3.458.041 6.81.02 2.994 0 6.178-.063 6.832-.063.464-1.265.464-2.51 0-3.795-.401-1.097-1.033-1.961-1.898-2.594-.864-.632-1.918-1.096-3.099-1.391-1.16-.295-2.594-.443-4.217-.443Zm4.364 6.157h-8.94v-.169c0-.232.085-.464.232-.675a2.48 2.48 0 0 1 .675-.632c.316-.211.78-.38 1.434-.527.632-.127 1.412-.19 2.298-.19 1.539 0 2.615.19 3.289.548.696.38 1.033.886 1.033 1.476v.169h-.021Zm-8.56-.359h8.181c-.063-.38-.338-.695-.844-.99-.611-.338-1.644-.507-3.12-.507-.865 0-1.603.063-2.214.19-.59.127-1.033.274-1.307.464s-.464.358-.57.548c-.042.084-.084.19-.126.295ZM10.368 59.685c-1.792 0-3.374-.274-4.702-.801-1.329-.528-2.32-1.202-2.952-1.982-.612-.76-1.118-1.54-1.476-2.299-.358-.759-.57-1.433-.611-1.982l-.127-.99h5.84v.168c0 .021 0 .063.022.127 0 .042.02.147.084.4.063.211.126.4.21.59a2.933 2.933 0 0 0 1.075 1.16c.254.169.592.295 1.013.4.422.106.907.17 1.434.17.527 0 1.012-.043 1.455-.127.422-.084.78-.19 1.054-.316.274-.127.506-.274.696-.422.19-.148.316-.295.4-.443.085-.168.17-.316.232-.443.064-.126.085-.21.106-.274v-4.238H7.353V42.46h12.714v10.015c0 .105 0 .253-.021.443s-.084.506-.211.99c-.127.486-.316.97-.548 1.413-.232.443-.59.95-1.076 1.497a7.204 7.204 0 0 1-1.728 1.434c-.654.4-1.54.738-2.594 1.012-1.054.274-2.235.422-3.521.422ZM.9 51.989l.063.59c.042.506.253 1.139.59 1.856.338.738.823 1.476 1.434 2.235.59.738 1.54 1.37 2.825 1.876 1.287.506 2.826.78 4.555.78 1.265 0 2.425-.126 3.437-.4 1.033-.253 1.855-.59 2.488-.97a7.4 7.4 0 0 0 1.644-1.35c.464-.527.802-.99 1.012-1.433.211-.422.38-.886.506-1.35.127-.464.19-.78.211-.949.021-.168.021-.295.021-.4v-9.657H7.711v5.208h6.768v4.66c-.02.084-.063.21-.126.358a3.46 3.46 0 0 1-.253.464c-.106.19-.274.38-.506.548-.211.169-.464.316-.76.464-.294.148-.674.253-1.138.358-.464.085-.97.127-1.518.127a6.69 6.69 0 0 1-1.518-.169 3.243 3.243 0 0 1-1.118-.464c-.274-.19-.527-.4-.738-.653a3.531 3.531 0 0 1-.463-.675 5.603 5.603 0 0 1-.232-.632c-.064-.232-.085-.38-.106-.464H.901v.042ZM31.453 59.811c-1.687 0-3.163-.126-4.365-.358-1.223-.253-2.32-.633-3.226-1.18a5.084 5.084 0 0 1-2.066-2.257c-.443-.949-.675-2.087-.675-3.416 0-1.138.19-2.15.548-3.015.359-.864.865-1.581 1.476-2.108.612-.527 1.37-.95 2.256-1.286a13.56 13.56 0 0 1 2.763-.675c.927-.127 2.003-.19 3.141-.19 1.181 0 2.256.063 3.205.148.949.105 1.919.316 2.868.632.97.316 1.77.738 2.403 1.265.633.527 1.16 1.244 1.56 2.109.401.864.591 1.919.591 3.078 0 1.328-.253 2.488-.717 3.437-.485.949-1.223 1.708-2.172 2.277-.948.548-2.045.928-3.268 1.18-1.202.254-2.657.36-4.322.36Zm-.127-14.105c-1.138 0-2.192.063-3.1.168a12.74 12.74 0 0 0-2.677.654c-.864.316-1.581.717-2.15 1.223-.57.485-1.034 1.16-1.371 1.982-.359.822-.527 1.792-.527 2.888 0 1.287.21 2.383.632 3.268.422.886 1.076 1.582 1.94 2.109.864.527 1.919.907 3.1 1.139 1.201.231 2.635.358 4.3.358 1.624 0 3.058-.105 4.26-.337 1.18-.232 2.256-.612 3.163-1.139.885-.506 1.581-1.223 2.024-2.13.464-.906.696-2.003.696-3.268 0-1.117-.19-2.108-.57-2.93-.379-.823-.864-1.497-1.454-1.982a7.164 7.164 0 0 0-2.299-1.202 13.178 13.178 0 0 0-2.783-.612c-.949-.147-2.024-.19-3.184-.19Zm.19 10.183c-1.497 0-2.614-.274-3.331-.822-.738-.57-1.118-1.434-1.118-2.593 0-.464.106-.907.295-1.286.19-.38.443-.696.738-.928a3.869 3.869 0 0 1 1.055-.57c.4-.147.78-.252 1.16-.316.379-.063.758-.084 1.138-.084.527 0 1.012.042 1.476.127.464.084.949.252 1.434.463.506.211.906.57 1.223 1.033.295.464.463 1.034.463 1.687 0 1.202-.4 2.067-1.202 2.552-.78.484-1.897.737-3.33.737Zm-.084-6.262c-.359 0-.717.021-1.076.085a5.664 5.664 0 0 0-1.096.295 3.441 3.441 0 0 0-.949.527c-.253.21-.485.485-.654.822a2.51 2.51 0 0 0-.253 1.139c0 1.054.317 1.813.97 2.298.654.506 1.708.76 3.121.76 1.37 0 2.425-.233 3.12-.676.696-.442 1.034-1.18 1.034-2.256 0-.59-.127-1.096-.4-1.497a2.564 2.564 0 0 0-1.055-.906 5.843 5.843 0 0 0-1.35-.422c-.442-.127-.906-.169-1.412-.169ZM48.932 59.685h-5.946V45.452h5.946v14.233Zm-5.587-.359h5.229V45.811h-5.23v13.515Zm5.587-14.611h-5.946v-3.058h5.946v3.058Zm-5.587-.359h5.229v-2.361h-5.23v2.361ZM69.638 59.685h-5.946v-5.672c0-.169-.021-.4-.042-.717-.021-.316-.064-.548-.085-.738a13.34 13.34 0 0 0-.19-.675c-.084-.253-.168-.463-.295-.611a3.082 3.082 0 0 0-.442-.527 2.005 2.005 0 0 0-.59-.422 3.786 3.786 0 0 0-.823-.253 5.46 5.46 0 0 0-1.075-.105c-.991 0-1.793.147-2.383.421a5.618 5.618 0 0 0-1.603 1.181v8.139h-5.988V45.474h5.988v1.75c.38-.274.696-.464.907-.612.274-.168.675-.38 1.202-.611a7.134 7.134 0 0 1 1.687-.506c.59-.106 1.286-.148 2.066-.148.76 0 1.434.042 2.003.106.59.063 1.202.19 1.835.4.653.19 1.222.527 1.729.949.484.422.885.97 1.16 1.624.379.885.632 2.024.716 3.373.085 1.35.127 3.584.127 6.642v1.244h.042Zm-5.588-.359h5.23V58.4c0-3.037-.043-5.272-.127-6.621-.085-1.328-.316-2.425-.696-3.268a4.07 4.07 0 0 0-1.075-1.497 3.999 3.999 0 0 0-1.582-.865 9.903 9.903 0 0 0-1.77-.38 18.155 18.155 0 0 0-1.962-.084c-.759 0-1.433.043-2.003.148a5.67 5.67 0 0 0-1.602.485c-.506.232-.886.422-1.16.59-.274.17-.675.422-1.18.802l-.275.21v-2.087h-5.271v13.494h5.271v-7.928l.042-.042c.549-.548 1.139-.99 1.771-1.286.633-.316 1.498-.464 2.53-.464.401 0 .802.042 1.14.106.337.084.653.168.906.295.253.126.485.295.696.485.19.19.358.38.464.57.126.189.253.42.337.716.084.295.148.527.19.717.042.19.084.464.105.78.021.337.042.57.042.738v5.313h-.02ZM90.154 59.748c-.78 0-1.434-.021-1.94-.084-.527-.064-1.012-.19-1.434-.4a2.884 2.884 0 0 1-1.033-.802c-.232-.316-.443-.76-.612-1.35a8.674 8.674 0 0 1-.316-1.94 46.527 46.527 0 0 1-.063-2.698V49.88h-2.783v-4.533h2.783V42.46h5.925v2.91h6.79V49.9h-6.79v2.741c0 .043 0 .127.021.338.021.169.042.316.084.464.043.147.106.295.19.485.084.168.169.316.295.442.127.127.274.211.485.296.211.084.422.126.675.126.4 0 .822-.02 1.265-.084.464-.063.865-.127 1.223-.211.358-.084.696-.169 1.012-.253.316-.084.548-.169.738-.21.021 0 .042-.022.063-.022l-.042-.063h.443l.021.126 2.045 4.45-.168.062c-.253.106-.612.211-1.076.338-.485.126-1.455.295-3.015.506a35.33 35.33 0 0 1-4.786.316ZM82.33 49.543h2.783v2.952c0 1.075.021 1.982.064 2.678.042.695.147 1.307.295 1.855.148.527.337.949.548 1.223.211.274.506.506.886.696.4.19.843.316 1.328.358.506.063 1.139.085 1.919.085 1.623 0 3.226-.106 4.744-.317 1.518-.21 2.509-.38 2.973-.506.358-.084.633-.168.864-.253l-1.834-3.985c-.042 0-.063.021-.105.042-.19.064-.443.127-.738.211-.317.085-.654.169-1.034.253-.38.085-.8.148-1.265.211a9.692 9.692 0 0 1-1.307.084 1.94 1.94 0 0 1-.801-.147 1.784 1.784 0 0 1-.59-.38 2.108 2.108 0 0 1-.38-.548c-.084-.21-.169-.38-.21-.548a3.935 3.935 0 0 1-.085-.527c-.021-.19-.021-.295-.021-.359v-3.099h6.789v-3.816h-6.79v-2.91h-5.207v2.91h-2.784v3.837h-.042ZM119.588 59.685h-5.946v-5.651c0-.169 0-.4-.021-.717-.021-.316-.042-.548-.084-.717-.042-.168-.105-.4-.169-.674-.084-.254-.168-.464-.274-.612a4.116 4.116 0 0 0-.422-.527 1.729 1.729 0 0 0-.548-.422 3.204 3.204 0 0 0-.759-.253 4.705 4.705 0 0 0-.97-.105c-2.171 0-3.795.464-4.807 1.391v8.329h-5.946V42.585h5.946v4.702c1.75-1.244 3.88-1.877 6.325-1.877.591 0 1.118.022 1.561.043a9.2 9.2 0 0 1 1.539.21c.59.106 1.096.275 1.539.464.443.19.865.485 1.265.865.401.38.717.822.928 1.35.358.885.59 2.087.696 3.584.105 1.475.147 3.668.147 6.557v1.202Zm-5.587-.359h5.229V58.4c0-2.868-.042-5.082-.148-6.537-.105-1.434-.337-2.614-.674-3.479a3.53 3.53 0 0 0-.844-1.223 4.581 4.581 0 0 0-1.159-.8c-.401-.19-.907-.338-1.455-.444a18.078 18.078 0 0 0-1.497-.21 31.304 31.304 0 0 0-1.54-.043c-2.488 0-4.638.675-6.388 2.025l-.296.21v-5.06H100v16.488h5.229V51.21l.064-.064c1.075-1.012 2.804-1.539 5.102-1.539.38 0 .738.042 1.055.106.316.084.611.168.843.274.253.105.464.274.654.506.189.21.337.4.442.57.127.189.232.42.317.716.084.274.147.527.189.717.043.19.064.464.085.78.021.337.021.57.021.738v5.313ZM130.616 59.685c-1.645 0-3.079-.106-4.28-.338-1.223-.232-2.235-.548-2.994-.949a5.546 5.546 0 0 1-1.898-1.56 5.743 5.743 0 0 1-.991-2.003 10.413 10.413 0 0 1-.274-2.446c0-2.277.885-4.09 2.635-5.376 1.729-1.265 4.302-1.898 7.675-1.898 1.645 0 3.121.148 4.323.443 1.223.295 2.319.78 3.226 1.434.928.674 1.602 1.602 2.024 2.762.422 1.138.569 2.53.443 4.132l-.021.17h-14.148c.147.273.485.505.991.716.674.253 1.729.4 3.099.4 1.223 0 2.446-.084 3.648-.231 1.202-.148 2.129-.317 2.741-.485l1.033-.274 2.551 4.132-.147.106a1.917 1.917 0 0 1-.295.147c-.148.063-.464.169-.991.316-.528.148-1.118.275-1.772.38a33.09 33.09 0 0 1-2.741.295 68.558 68.558 0 0 1-3.837.127Zm-.127-14.233c-3.289 0-5.798.612-7.464 1.835-1.644 1.202-2.488 2.91-2.488 5.081 0 .886.085 1.687.253 2.362.169.653.485 1.286.928 1.876.443.59 1.033 1.076 1.771 1.455.738.38 1.708.696 2.889.928 1.181.21 2.614.337 4.217.337a52.29 52.29 0 0 0 3.816-.126c1.16-.085 2.067-.19 2.72-.296a15.658 15.658 0 0 0 1.75-.379c.506-.148.823-.232.949-.295.021-.021.063-.021.084-.042l-2.235-3.606-.78.211c-.632.169-1.56.316-2.783.485a27.207 27.207 0 0 1-3.711.232c-1.413 0-2.509-.148-3.226-.422-.759-.295-1.202-.696-1.286-1.18l-.042-.211h14.295c.106-1.476-.042-2.763-.442-3.817-.401-1.096-1.034-1.96-1.898-2.593-.865-.633-1.919-1.097-3.1-1.392-1.18-.295-2.593-.443-4.217-.443Zm4.365 6.136h-8.94v-.169c0-.231.084-.463.232-.674.147-.211.358-.422.675-.633.316-.21.78-.38 1.433-.527.633-.126 1.413-.19 2.299-.19 1.539 0 2.614.19 3.289.548.696.38 1.033.886 1.033 1.477v.168h-.021Zm-8.561-.358h8.181c-.063-.38-.337-.696-.843-.991-.611-.338-1.645-.506-3.121-.506-.864 0-1.602.063-2.213.19-.591.126-1.034.274-1.308.463-.274.19-.464.359-.569.548-.063.106-.105.211-.127.296ZM173.735 59.685h-5.862v-1.898c-1.413 1.244-3.416 1.877-5.925 1.877-2.172 0-3.901-.232-5.145-.717-1.265-.485-2.214-1.392-2.825-2.7-.443-.927-.738-2.087-.886-3.436-.147-1.35-.21-3.395-.21-6.114l.021-1.287h5.861v4.829c0 .4 0 .696.021.906 0 .211.043.485.085.865.063.358.126.654.211.843.084.211.232.443.421.717.19.253.401.443.654.59.274.148.611.254 1.033.38.422.105.907.169 1.455.169 1.898 0 3.627-.696 5.187-2.088v-7.21h5.862v14.274h.042Zm-5.503-.359h5.165V45.77h-5.165v7l-.064.063c-1.644 1.476-3.479 2.235-5.482 2.235a6.739 6.739 0 0 1-1.539-.169 5.249 5.249 0 0 1-1.118-.4 2.035 2.035 0 0 1-.78-.696 4.713 4.713 0 0 1-.464-.78 3.148 3.148 0 0 1-.232-.949c-.063-.38-.084-.696-.105-.907 0-.21-.021-.506-.021-.927v-4.47h-5.166l-.021.928c0 2.698.063 4.743.211 6.072.147 1.307.422 2.425.843 3.331.57 1.223 1.455 2.067 2.615 2.51 1.202.463 2.888.695 4.997.695 2.615 0 4.618-.696 5.988-2.066l.295-.295v2.382h.043ZM194.124 59.685h-5.946v-5.672c0-.169-.021-.4-.042-.717-.021-.316-.063-.548-.085-.738-.042-.169-.105-.4-.189-.675-.085-.253-.169-.463-.295-.611a3.103 3.103 0 0 0-.443-.527 2.01 2.01 0 0 0-.591-.422 3.79 3.79 0 0 0-.822-.253 5.468 5.468 0 0 0-1.075-.105c-.991 0-1.793.147-2.383.421a5.62 5.62 0 0 0-1.602 1.181v8.139h-5.989V45.474l6.199.063-.168 1.666c.358-.253.653-.443.885-.59h.021c3.016-1.35 7.739-2.025 11.112.463l.021.021.021.021c.296.422.612.907.781 1.476.21.717.358 1.75.442 3.205.085 1.35.127 3.584.127 6.642v1.244h.021Zm-5.588-.359h5.23V58.4c0-3.037-.043-5.272-.127-6.621-.084-1.434-.232-2.425-.443-3.12-.147-.507-.421-.95-.717-1.35-2.024-1.497-6.051-2.509-10.732-.422-.274.169-.675.422-1.16.78l-.316.232.211-2.066-5.44-.063v13.557h5.271v-7.928l.042-.042c.549-.548 1.139-.99 1.772-1.286.632-.316 1.497-.464 2.53-.464.4 0 .801.042 1.138.106.338.084.654.168.907.295.253.126.485.295.696.485.19.19.358.38.464.57.126.189.253.42.337.716.084.295.148.527.19.717.042.19.084.464.105.78.021.337.042.57.042.738v5.313ZM207.281 59.748c-2.636 0-4.744-.485-6.262-1.455v1.328h-5.946V51.02c.4-1.73 1.138-3.48 1.729-4.87.063-.127.105-.275.168-.401.612-1.455 1.076-2.488 1.097-2.488l.042-.106h.106l2.066-.126c1.117-.085 2.298-.169 3.458-.169h.253l-.085.232c-.253.759-.484 1.497-.716 2.214-.19.59-.38 1.223-.591 1.834 5.124-2.193 9.172-2.382 12.377-.548 2.003 1.139 2.72 3.627 1.666 5.777-.042.19-.063.4-.106.57-.168.948-.316 1.75-.569 2.487-.316.886-.738 1.603-1.265 2.13-.527.548-1.202.991-2.003 1.328a9.263 9.263 0 0 1-2.488.675c-.865.127-1.856.19-2.931.19Zm-6.642-2.13.274.19c1.476 1.054 3.606 1.581 6.347 1.581 1.075 0 2.045-.063 2.868-.168a10.395 10.395 0 0 0 2.403-.654c.759-.316 1.392-.738 1.877-1.244.485-.506.885-1.18 1.181-2.003.253-.696.4-1.497.569-2.425.042-.19.063-.4.105-.611v-.021l.021-.021c.991-1.982.338-4.28-1.518-5.335-3.184-1.813-7.232-1.581-12.419.717l-.379.169.126-.38c.253-.759.485-1.497.717-2.214.211-.653.422-1.307.633-1.981-1.076 0-2.109.084-3.184.168-.633.042-1.308.106-1.961.127-.127.295-.548 1.18-1.033 2.382-.064.127-.106.253-.169.4-.59 1.392-1.307 3.1-1.708 4.808v8.202h5.229v-1.687h.021Zm5.525-2.045c-1.561 0-2.763-.126-3.543-.358a3.434 3.434 0 0 1-1.94-1.497l-.042-.064.295-1.94.022-.041c.969-1.308 3.226-2.025 6.684-2.151.927-.127 1.855-.021 2.551.337 1.075.59.801 1.898.632 2.678-.379 2.066-1.855 3.036-4.659 3.036Zm-5.145-1.982a2.968 2.968 0 0 0 1.708 1.286c.759.232 1.918.338 3.458.338 2.593 0 3.964-.865 4.28-2.741.19-.95.337-1.877-.443-2.299-.611-.295-1.476-.421-2.34-.295h-.021c-3.311.127-5.461.78-6.389 1.982l-.253 1.73ZM225.519 59.938c-.653 0-1.201 0-1.665-.021a36.48 36.48 0 0 1-1.708-.127c-.675-.063-1.265-.148-1.729-.274-.464-.105-.97-.295-1.497-.506-.527-.232-.97-.506-1.308-.843a3.873 3.873 0 0 1-.822-1.266 4.367 4.367 0 0 1-.316-1.686c0-.802.253-1.497.78-2.067.464-.527 1.223-.843 2.488-1.054 4.027-.443 8.561-.949 12.693.338-2.172-2.362-5.819-1.961-9.362-1.582-1.349.148-2.614.274-3.753.253h-.189l.021-.19c.021-.337 0-.737 0-1.096-.043-1.033-.085-2.024.527-2.383 1.729-1.222 4.238-1.623 7.485-1.18 2.13.358 4.09.8 6.157 1.286a84.78 84.78 0 0 0 3.795.843c1.223.232 2.214.928 2.783 1.961.591 1.075.633 2.404.148 3.627-.401 1.434-1.371 3.31-2.594 5.608l-.042.106h-6.135l.084-.232c.084-.253.169-.527.274-.823-2.235.907-4.133 1.308-6.115 1.308Zm-5.735-7.464c-1.181.19-1.876.464-2.277.927a2.654 2.654 0 0 0-.696 1.835c0 .57.106 1.075.295 1.539.19.464.443.843.759 1.139.296.295.696.548 1.202.759.506.21.991.38 1.434.485.443.105 1.012.19 1.687.253s1.223.105 1.687.126c.464.021 1.012.021 1.665.021 2.046 0 3.986-.422 6.263-1.391l.337-.148-.105.358c-.085.338-.19.654-.296.95h5.419c1.181-2.257 2.13-4.07 2.509-5.462v-.02c.464-1.14.422-2.341-.126-3.332-.506-.928-1.413-1.56-2.53-1.771-1.308-.274-2.573-.57-3.796-.865-2.066-.485-4.006-.928-6.135-1.286-3.142-.443-5.588-.063-7.233 1.118h-.021c-.421.253-.379 1.18-.358 2.066.021.316.021.654.021.949 1.075 0 2.277-.127 3.521-.253 3.69-.4 7.844-.844 10.079 2.193l.337.463-.548-.19c-4.175-1.454-8.898-.927-13.094-.463Zm6.832 4.132c-2.193-.084-3.395-.358-3.753-.822a.524.524 0 0 1-.085-.464l.021-.084.085-.042c2.804-1.223 6.346-.76 9.467-.148l.337.063-.232.232c-1.138 1.139-2.994 1.181-4.659 1.202-.422.042-.802.042-1.181.063Zm-3.479-1.096c0 .021.021.042.042.063.126.169.696.57 3.458.675.379-.021.759-.042 1.181-.042 1.454-.021 3.078-.064 4.132-.865-2.952-.548-6.241-.906-8.813.169Z" fill="#fff"/><path d="M256.704 60.17c-.674 0-1.433-.106-2.235-.19-.653-.084-1.328-.169-1.939-.19h-.253l.084-.232c.337-.885.864-1.729 1.392-2.551 1.033-1.645 2.003-3.184 1.665-5.06-.147-.865-.97-1.329-2.488-1.434-1.961-.084-4.111-.021-4.913 1.476-.379.78-.674 1.665-.948 2.509-.654 1.897-1.308 3.88-2.889 4.997-1.033.78-2.572.59-4.048.4-.633-.084-1.308-.168-1.919-.168h-.316l.147-.274c2.573-4.555 3.859-8.455 4.049-12.293v-.147l.147-.021c1.328-.148 2.678-.359 3.985-.549.654-.105 1.329-.21 2.003-.295l.211-.02v1.686c1.771-.991 3.69-1.666 5.461-1.919 2.298-.316 4.28.063 5.904 1.139l.021.02c.506.444.907 1.034 1.202 1.75v.022c.527 1.813.548 3.922.063 5.946-.485 1.96-1.413 3.71-2.636 4.934-.337.337-.969.464-1.75.464Zm-3.9-.738c.548.042 1.138.105 1.729.168 1.539.19 3.12.38 3.753-.21 1.159-1.16 2.066-2.868 2.551-4.766.485-1.94.464-3.985-.063-5.756-.274-.653-.633-1.18-1.097-1.602-3.352-2.193-8.012-.95-11.259.949l-.274.147v-1.898c-.59.085-1.202.19-1.792.275-1.265.19-2.573.4-3.859.548-.211 3.753-1.476 7.59-3.943 12.018a14.51 14.51 0 0 1 1.645.169c1.476.19 2.867.358 3.795-.337 1.476-1.055 2.109-2.89 2.762-4.808.295-.864.591-1.75.97-2.551.886-1.687 3.163-1.75 5.25-1.666 1.687.106 2.636.696 2.805 1.73.337 2.002-.717 3.689-1.729 5.313-.443.758-.907 1.518-1.244 2.277Z" fill="#fff"/><path d="M263.852 60.38c-.569 0-1.181-.063-1.813-.126-.612-.063-1.244-.127-1.835-.127h-.295l.127-.253c2.741-5.334 3.205-11.723 1.265-17.5l-.084-.232h.253c.421 0 .885-.02 1.349-.063 1.434-.084 2.762-.169 3.352.464 1.708 1.897 1.835 4.997 1.94 7.717 0 .169.021.337.021.506.464-.548.907-1.075 1.35-1.603.337-.421.696-.843 1.054-1.265 1.244-1.602 2.362-3.247 2.362-3.268l.042-.063.063-.021c2.319-.506 4.66-.127 6.853.295l.274.063-.169.232c-1.054 1.392-2.277 2.72-3.479 3.985-.97 1.033-1.961 2.088-2.867 3.184.59.654 1.18 1.328 1.75 1.982 1.476 1.687 2.994 3.437 4.702 4.955l.358.316h-.464c-.97 0-1.961.148-2.931.295-1.729.253-3.352.485-4.828-.02-.738-.275-1.244-1.14-1.708-1.962-.443-.78-.865-1.518-1.392-1.602-.78-.148-1.307.78-1.876 1.771-.38.675-.759 1.37-1.265 1.75-.549.464-1.287.59-2.109.59Zm-3.373-.59c.527.021 1.054.063 1.581.127 1.476.147 2.867.295 3.669-.38.442-.337.822-1.012 1.18-1.645.591-1.054 1.202-2.15 2.257-1.96.695.126 1.159.927 1.644 1.77.443.78.907 1.582 1.518 1.814 1.392.485 2.973.253 4.66 0 .844-.127 1.687-.253 2.53-.274-1.602-1.455-3.015-3.1-4.406-4.68-.612-.697-1.223-1.414-1.856-2.088l-.105-.106.105-.126c.928-1.16 1.961-2.256 2.973-3.332 1.118-1.201 2.277-2.424 3.289-3.732-2.045-.38-4.217-.695-6.346-.253a74.972 74.972 0 0 1-2.341 3.226c-.358.422-.717.865-1.054 1.265-.527.633-1.075 1.308-1.645 1.961l-.295.338-.021-.443c-.021-.316-.021-.633-.042-.97-.105-2.804-.232-5.693-1.834-7.506-.464-.527-1.793-.443-3.079-.359l-1.117.064c1.813 5.714 1.37 11.976-1.265 17.29Z" fill="#fff"/><path d="M289.429 60.612c-4.492 0-8.772-1.244-10.417-5.44-.822-2.108-.59-4.912.528-6.83.843-1.435 2.108-2.299 3.69-2.531l.105-.021c1.012-.169 2.298-.358 3.774-.4 3.036-.338 6.326.695 8.603 2.72 1.897 1.686 2.952 3.942 2.952 6.346v.168h-.169c-4.491.064-8.813.064-13.389.064 1.856 1.412 4.428 1.096 6.916.78 1.455-.19 2.825-.359 4.048-.211.802.105 1.286 1.223 1.814 2.425.21.485.442.97.674 1.391l.127.211-.232.063c-2.509.633-5.82 1.265-9.024 1.265Zm-1.139-14.928c-.38 0-.759.022-1.139.064h-.021c-1.476.042-2.72.232-3.732.4l-.105.021c-1.476.211-2.657 1.034-3.437 2.362-1.075 1.834-1.265 4.512-.485 6.515 1.56 4.027 5.714 5.23 10.079 5.23 3.078 0 6.241-.591 8.708-1.203-.211-.38-.401-.8-.57-1.223-.463-1.033-.948-2.13-1.539-2.214-1.181-.147-2.53.022-3.964.211-2.741.338-5.587.696-7.569-1.18l-.317-.317h.443c4.681 0 9.109 0 13.684-.063-.063-2.846-1.56-4.786-2.825-5.904-1.94-1.708-4.618-2.699-7.211-2.699Zm-3.88 6.6h-.211l.043-.21c.316-2.046 2.994-2.088 4.132-2.11 1.455-.041 2.53.127 3.247.507h.021c.549.337 1.181.738 1.266 1.455l.021.19h-.19c-2.826.168-5.503.168-8.329.168Zm4.323-1.96h-.359c-1.644.02-3.373.252-3.753 1.602 2.678 0 5.208 0 7.844-.127-.148-.443-.591-.738-1.033-1.012-.591-.316-1.497-.464-2.699-.464ZM305.664 59.98c-.991 0-2.003-.084-2.994-.274a2.919 2.919 0 0 1-1.898-1.286v-.022c-1.012-1.834-1.623-3.457-1.898-4.933-.337-1.919-.063-3.606.823-4.955 1.159-1.813 3.12-2.952 5.798-3.374 2.277-.358 4.787-.169 6.768.063l-1.18-4.153.19-.042c1.286-.211 2.614-.401 3.9-.612.591-.084 1.181-.19 1.75-.274l.169-.021.042.169c1.181 5.165 2.045 10.9 2.72 18.027l.021.19h-.19c-.695 0-1.391-.021-2.066-.042a37.371 37.371 0 0 0-3.078-.021h-.211l.021-.211c.042-.232 0-.464-.042-.738a2.593 2.593 0 0 1-.042-.4c-1.434 1.201-3.248 2.087-5.272 2.55a15.654 15.654 0 0 1-3.331.359Zm-4.597-1.75c.401.59.991.99 1.666 1.138 2.087.401 4.238.359 6.22-.084 2.109-.485 3.964-1.413 5.419-2.72l.358-.337-.063.485c-.042.232 0 .464.042.738.021.21.064.421.043.632.969-.02 1.939 0 2.909.042.612.021 1.244.043 1.856.043-.654-6.937-1.497-12.567-2.657-17.627-.527.084-1.054.168-1.602.253-1.223.19-2.467.38-3.711.569l1.201 4.28-.274-.02c-2.003-.233-4.596-.465-6.937-.085-2.614.422-4.427 1.455-5.566 3.205-.843 1.286-1.118 2.867-.78 4.702.295 1.391.885 2.972 1.876 4.786Zm6.621-2.72c-.843 0-1.645-.232-2.383-.843-.969-.823-1.18-2.34-.463-3.374 1.792-2.678 5.819-3.521 8.455-1.771.611.4.695 1.075.759 1.75.021.253.042.527.105.78l.021.063-.021.063c-.337.865-.864 1.519-1.602 1.94l-.021.021c-.296.106-.591.232-.907.359-1.265.464-2.636 1.012-3.943 1.012Zm2.425-6.557c-.422 0-.865.042-1.307.147-1.54.316-2.889 1.202-3.669 2.383-.612.885-.422 2.214.4 2.91 1.708 1.412 3.964.526 5.967-.275.317-.126.612-.232.907-.358.633-.359 1.118-.928 1.413-1.687-.063-.253-.085-.527-.106-.78-.063-.611-.105-1.18-.59-1.476-.865-.57-1.919-.864-3.015-.864ZM337.376 62.215H335.204c-.612 0-1.244-.105-1.729-.316-.633-.253-1.012-.654-1.075-1.118-.253-1.18.147-2.382.548-3.542.063-.169.105-.316.169-.485l.084-.232.19.127c1.476 1.012 3.31 1.391 5.587 1.18 1.898-.168 3.838-.738 5.503-1.307-.97-.59-2.424-.21-3.711.127-.485.126-.948.253-1.37.316-.591.084-1.181.126-1.729.126-2.868 0-5.103-1.117-6.389-3.205-.843-1.475-1.666-3.626-.864-5.524.611-1.455 2.15-1.223 3.521-1.033.379.063.738.106 1.075.127 1.518.042 3.121-.296 4.66-.633 2.593-.57 5.271-1.139 7.569.232l.022.021c.274.211.21 1.012.168 1.476-.105.886-.443 2.024-.991 2.256-1.602.738-3.584.865-5.482 1.012-1.792.127-3.626.274-5.124.886.211.168.949.38 3.353.042.907-.084 1.834-.274 2.72-.464 1.94-.4 3.943-.822 5.925-.232.885.316 1.666 1.033 2.108 2.003.464.991.549 2.13.211 3.015-.822 2.298-2.72 3.796-5.819 4.533-2.193.549-4.744.612-6.958.612Zm-3.985-5.124c-.021.085-.064.17-.085.274-.379 1.118-.78 2.278-.548 3.353v.021c.127.822 1.539 1.139 2.467 1.139h1.033c4.997.02 11.829.063 13.6-4.892.295-.801.232-1.834-.19-2.741-.421-.886-1.096-1.54-1.897-1.813-1.898-.57-3.859-.148-5.736.232-.906.19-1.834.38-2.762.484-2.446.338-3.711.211-3.837-.421l-.021-.148.126-.063c1.561-.717 3.521-.864 5.419-1.012 1.877-.148 3.817-.274 5.377-.991.253-.127.527-.654.675-1.413.189-.906.147-1.602.063-1.708-2.172-1.286-4.66-.759-7.275-.168-1.56.337-3.183.696-4.765.632a11.348 11.348 0 0 1-1.117-.126c-1.308-.19-2.636-.4-3.142.801-.738 1.771.063 3.795.843 5.208 1.961 3.205 5.693 3.205 7.76 2.91.4-.064.864-.19 1.328-.317 1.497-.4 3.205-.843 4.301.148l.232.21-.295.106c-1.771.59-3.837 1.244-5.904 1.434-2.298.19-4.153-.19-5.65-1.139ZM353.232 58.652c-.359 0-.654-.064-.886-.253-1.117-.865-1.455-2.573-1.75-4.196-.148-.76-.295-1.54-.527-2.256-.991-3.268-1.624-6.6-1.645-6.642l-.042-.19.19-.02c1.919-.317 3.88-.739 5.777-1.16l.19-.043.021.19c.422 2.657 1.075 5.334 1.729 7.907.443 1.771.886 3.605 1.265 5.44l.042.19-.189.02c-.591.106-1.266.296-1.898.507-.844.253-1.645.506-2.277.506Zm-4.428-13.242c.147.738.738 3.606 1.602 6.41.232.717.38 1.518.527 2.277.317 1.645.612 3.205 1.624 3.985.527.422 1.666.064 2.846-.316.591-.19 1.181-.38 1.751-.485a178.34 178.34 0 0 0-1.223-5.25c-.633-2.53-1.266-5.145-1.708-7.76a70.883 70.883 0 0 1-5.419 1.14Zm-.527-.97-.295-2.993 6.156-1.055.232 2.868-6.093 1.18Zm.105-2.72.211 2.278 5.419-1.054-.19-2.151-5.44.928ZM378.724 62.215l-.274-.084c-2.109-.675-3.775-1.413-5.251-2.299-.295-.19-.316-.59-.316-1.012 0-.147 0-.295-.021-.443-.822.359-1.708.232-2.551.106-.085-.021-.19-.021-.274-.042h-.022c-.506-.106-.991-.296-1.454-.464-.443-.169-.907-.359-1.392-.464a21.94 21.94 0 0 0-1.16-.169c-2.677-.4-5.44-.8-7.232-3.1-2.446-3.14-2.34-5.523-1.813-6.957.611-1.581 2.045-2.762 3.901-3.247 2.003-.59 4.132-.76 6.156-.464 2.046.295 3.901 1.054 5.377 2.193l.148-4.09.211.063c.295.084.632.147.969.232 2.193.527 3.648.906 3.775 1.56.632 3.373.674 6.831.717 10.163.042 2.72.063 5.524.421 8.286l.085.232Zm-5.588-4.386.063.232c.064.232.064.506.064.76 0 .316 0 .632.147.716 1.392.843 2.952 1.54 4.913 2.193-.316-2.678-.358-5.398-.401-8.033-.042-3.332-.084-6.769-.717-10.1-.105-.485-2.15-.97-3.521-1.286a19.996 19.996 0 0 1-.759-.19l-.168 4.365-.275-.232c-1.454-1.223-3.352-2.024-5.461-2.34a14.519 14.519 0 0 0-6.009.442c-1.75.464-3.099 1.56-3.669 3.036-.485 1.35-.59 3.606 1.772 6.62 1.707 2.194 4.28 2.573 7 2.974.379.063.78.105 1.181.169.506.105.991.295 1.454.463.443.17.907.359 1.392.464.084.021.19.021.274.042.907.127 1.75.253 2.551-.168l.169-.127Zm-1.855-3.605c-.085 0-.19 0-.296-.021-.738-.127-1.433-.359-2.108-.57-.78-.253-1.603-.527-2.467-.632-1.497-.169-2.72-1.012-3.205-2.172-.126-.316-.337-.97-.274-1.645.042-.653.316-1.117.78-1.37 1.328-.738 2.994-.886 4.639-.422 1.602.443 3.036 1.455 3.964 2.762.443.654.443 1.35.443 2.046 0 .358 0 .716.063 1.054l.021.063-.042.063c-.38.549-.886.844-1.518.844Zm-.232-.38c.59.085 1.054-.126 1.391-.611-.063-.359-.042-.717-.042-1.054 0-.654 0-1.287-.379-1.835-1.835-2.614-5.567-3.648-8.118-2.235-.865.464-.633 1.835-.359 2.572.338.823 1.287 1.772 2.931 1.961.907.127 1.729.38 2.53.654.654.21 1.329.422 2.046.548ZM387.031 62.025c-2.108 0-3.985-.57-5.693-1.708-1.244-.843-2.108-2.066-2.509-3.626-.337-1.287-.38-2.763-.148-4.407.422-2.425 2.299-4.428 4.934-5.23 1.118-.379 2.425-.632 4.028-.8 2.804-.696 5.946-.021 7.97 1.708 1.159.99 2.488 2.762 2.214 5.587l-.021.127-.127.02c-4.28 1.034-8.708 2.109-13.199 2.615.485.843 1.687.949 2.656.886 1.455-.106 2.868-.654 4.217-1.181 1.329-.506 2.573-.991 3.838-1.096.801-.064 1.497.948 2.256 2.002.295.422.59.844.886 1.202l.147.169-.211.105c-2.509 1.244-5.376 2.657-8.307 3.29-.991.232-1.982.337-2.931.337Zm2.889-15.687c-.738 0-1.476.084-2.193.274h-.021c-1.561.148-2.847.422-3.964.78-2.509.76-4.302 2.657-4.702 4.955-.675 4.491.991 6.663 2.488 7.675 5.292 3.563 11.428.611 16.404-1.834a22.834 22.834 0 0 1-.78-1.055c-.654-.927-1.328-1.897-1.94-1.855-1.223.105-2.446.57-3.753 1.075-1.392.527-2.826 1.097-4.323 1.202-2.108.148-2.846-.654-3.12-1.328l-.084-.211.231-.021c4.513-.485 8.983-1.56 13.284-2.615.19-2.593-1.033-4.238-2.108-5.144-1.371-1.223-3.395-1.898-5.419-1.898Zm-6.157 7.4v-.21c.084-2.024 2.551-2.383 4.027-2.615 1.455-.21 2.467-.168 3.1.085.59.253 1.012.759 1.159 1.328l.042.19-.189.042c-2.383.443-4.976.822-7.949 1.139l-.19.042Zm4.069-2.466c-1.771.253-3.5.632-3.69 2.066 2.784-.316 5.251-.654 7.507-1.075a1.625 1.625 0 0 0-.886-.907c-.569-.253-1.56-.274-2.931-.084Z" fill="#fff"/></svg>